VotoSerifGX-ExtendedBoldDisplay.ufo
<glyph name="quotedbl" format="2">
  <advance width="583"/>
  <unicode hex="0022"/>
  <outline>
    <contour>
      <point x="147" y="479" type="line"/>
      <point x="163" y="479" type="line"/>
      <point x="280" y="714" type="line"/>
      <point x="30" y="714" type="line"/>
    </contour>
    <contour>
      <point x="420" y="479" type="line"/>
      <point x="436" y="479" type="line"/>
      <point x="553" y="714" type="line"/>
      <point x="303" y="714" type="line"/>
    </contour>
  </outline>
</glyph>
<glyph name="one" format="2">
  <advance width="662"/>
  <unicode hex="0031"/>
  <outline>
    <contour>
      <point x="95" y="0" type="line"/>
      <point x="616" y="0" type="line"/>
      <point x="616" y="10" type="line"/>
      <point x="522" y="10" type="line" smooth="yes"/>
      <point x="482" y="10"/>
      <point x="472" y="53"/>
      <point x="472" y="65" type="curve" smooth="yes"/>
      <point x="472" y="718" type="line"/>
      <point x="342" y="718" type="line"/>
      <point x="329" y="702" type="line" smooth="yes"/>
      <point x="268" y="629"/>
      <point x="181" y="585"/>
      <point x="33" y="587" type="curve"/>
      <point x="33" y="524"/>
      <point x="53" y="485"/>
      <point x="96" y="485" type="curve" smooth="yes"/>
      <point x="144" y="485"/>
      <point x="183" y="515"/>
      <point x="258" y="626" type="curve"/>
      <point x="258" y="65" type="line" smooth="yes"/>
      <point x="258" y="35"/>
      <point x="242" y="10"/>
      <point x="209" y="10" type="curve" smooth="yes"/>
      <point x="95" y="10" type="line"/>
    </contour>
  </outline>
</glyph>
<glyph name="question" format="2">
  <advance width="684"/>
  <unicode hex="003F"/>
  <outline>
    <contour>
      <point x="297" y="245" type="line"/>
      <point x="312" y="245" type="line"/>
      <point x="390" y="347" type="line"/>
      <point x="543" y="380"/>
      <point x="616" y="426"/>
      <point x="616" y="533" type="curve" smooth="yes"/>
      <point x="616" y="651"/>
      <point x="498" y="724"/>
      <point x="309" y="724" type="curve" smooth="yes"/>
      <point x="123" y="724"/>
      <point x="38" y="656"/>
      <point x="38" y="597" type="curve" smooth="yes"/>
      <point x="38" y="525"/>
      <point x="108" y="507"/>
      <point x="233" y="507" type="curve"/>
      <point x="233" y="647"/>
      <point x="254" y="714"/>
      <point x="310" y="714" type="curve" smooth="yes"/>
      <point x="363" y="714"/>
      <point x="393" y="659"/>
      <point x="393" y="512" type="curve" smooth="yes"/>
      <point x="393" y="404"/>
      <point x="345" y="345"/>
      <point x="228" y="351" type="curve"/>
    </contour>
    <contour>
      <point x="302" y="-10" type="curve" smooth="yes"/>
      <point x="353" y="-10"/>
      <point x="399" y="14"/>
      <point x="399" y="86" type="curve" smooth="yes"/>
      <point x="399" y="160"/>
      <point x="353" y="182"/>
      <point x="302" y="182" type="curve" smooth="yes"/>
      <point x="247" y="182"/>
      <point x="205" y="160"/>
      <point x="205" y="86" type="curve" smooth="yes"/>
      <point x="205" y="14"/>
      <point x="247" y="-10"/>
    </contour>
  </outline>
</glyph>
<glyph name="at" format="2">
  <advance width="1075"/>
  <unicode hex="0040"/>
  <outline>
    <contour>
      <point x="490" y="-142" type="curve" smooth="yes"/>
      <point x="621" y="-142"/>
      <point x="735" y="-111"/>
      <point x="848" y="-43" type="curve"/>
      <point x="838" y="-34" type="line"/>
      <point x="726" y="-102"/>
      <point x="617" y="-131"/>
      <point x="501" y="-131" type="curve" smooth="yes"/>
      <point x="284" y="-131"/>
      <point x="180" y="-20"/>
      <point x="180" y="203" type="curve" smooth="yes"/>
      <point x="180" y="495"/>
      <point x="361" y="704"/>
      <point x="639" y="704" type="curve" smooth="yes"/>
      <point x="829" y="704"/>
      <point x="934" y="612"/>
      <point x="934" y="403" type="curve" smooth="yes"/>
      <point x="934" y="241"/>
      <point x="871" y="87"/>
      <point x="795" y="87" type="curve" smooth="yes"/>
      <point x="757" y="87"/>
      <point x="751" y="122"/>
      <point x="751" y="146" type="curve" smooth="yes"/>
      <point x="751" y="172"/>
      <point x="760" y="208"/>
      <point x="771" y="263" type="curve" smooth="yes"/>
      <point x="831" y="520" type="line"/>
      <point x="817" y="520" type="line"/>
      <point x="681" y="484" type="line"/>
      <point x="662" y="510"/>
      <point x="639" y="529"/>
      <point x="575" y="529" type="curve" smooth="yes"/>
      <point x="368" y="529"/>
      <point x="278" y="353"/>
      <point x="278" y="234" type="curve" smooth="yes"/>
      <point x="278" y="131"/>
      <point x="346" y="77"/>
      <point x="446" y="77" type="curve" smooth="yes"/>
      <point x="520" y="77"/>
      <point x="584" y="114"/>
      <point x="611" y="218" type="curve"/>
      <point x="614" y="218" type="line"/>
      <point x="614" y="81"/>
      <point x="704" y="77"/>
      <point x="769" y="77" type="curve" smooth="yes"/>
      <point x="900" y="77"/>
      <point x="1029" y="203"/>
      <point x="1029" y="385" type="curve" smooth="yes"/>
      <point x="1029" y="575"/>
      <point x="891" y="714"/>
      <point x="621" y="714" type="curve" smooth="yes"/>
      <point x="285" y="714"/>
      <point x="59" y="500"/>
      <point x="59" y="223" type="curve" smooth="yes"/>
      <point x="59" y="-24"/>
      <point x="238" y="-142"/>
    </contour>
    <contour>
      <point x="508" y="106" type="curve" smooth="yes"/>
      <point x="481" y="106"/>
      <point x="456" y="134"/>
      <point x="456" y="204" type="curve" smooth="yes"/>
      <point x="456" y="318"/>
      <point x="510" y="518"/>
      <point x="594" y="518" type="curve" smooth="yes"/>
      <point x="631" y="518"/>
      <point x="660" y="495"/>
      <point x="657" y="479" type="curve"/>
      <point x="608" y="251" type="line" smooth="yes"/>
      <point x="588" y="160"/>
      <point x="544" y="106"/>
    </contour>
  </outline>
</glyph>
<glyph name="V" format="2">
  <advance width="834"/>
  <unicode hex="0056"/>
  <anchor x="418" y="0" name="bottom"/>
  <anchor x="418" y="714" name="top"/>
  <anchor x="854" y="714" name="topright"/>
  <outline>
    <contour>
      <point x="397" y="0" type="line"/>
      <point x="479" y="0" type="line"/>
      <point x="683" y="612" type="line" smooth="yes"/>
      <point x="708" y="692"/>
      <point x="726" y="704"/>
      <point x="749" y="704" type="curve" smooth="yes"/>
      <point x="834" y="704" type="line"/>
      <point x="834" y="714" type="line"/>
      <point x="493" y="714" type="line"/>
      <point x="493" y="704" type="line"/>
      <point x="639" y="704" type="line" smooth="yes"/>
      <point x="660" y="704"/>
      <point x="677" y="677"/>
      <point x="677" y="638" type="curve" smooth="yes"/>
      <point x="677" y="638"/>
      <point x="677" y="636"/>
      <point x="683" y="664" type="curve" smooth="yes"/>
      <point x="556" y="265" type="line" smooth="yes"/>
      <point x="557" y="281"/>
      <point x="547" y="251"/>
      <point x="542" y="234" type="curve"/>
      <point x="536" y="243"/>
      <point x="539" y="175"/>
      <point x="500" y="287" type="curve" smooth="yes"/>
      <point x="356" y="633" type="line" smooth="yes"/>
      <point x="350" y="647"/>
      <point x="340" y="666"/>
      <point x="340" y="682" type="curve" smooth="yes"/>
      <point x="340" y="691"/>
      <point x="348" y="704"/>
      <point x="367" y="704" type="curve" smooth="yes"/>
      <point x="421" y="704" type="line"/>
      <point x="421" y="714" type="line"/>
      <point x="0" y="714" type="line"/>
      <point x="0" y="704" type="line"/>
      <point x="47" y="704" type="line" smooth="yes"/>
      <point x="61" y="704"/>
      <point x="97" y="697"/>
      <point x="112" y="662" type="curve" smooth="yes"/>
    </contour>
  </outline>
</glyph>
<glyph name="j" format="2">
  <advance width="440"/>
  <unicode hex="006A"/>
  <anchor x="142" y="-240" name="bottom"/>
  <anchor x="221" y="783" name="top"/>
  <anchor x="420" y="783" name="topright"/>
  <outline>
    <contour>
      <point x="-30" y="-240" type="line"/>
      <point x="-3" y="-240" type="line" smooth="yes"/>
      <point x="194" y="-240"/>
      <point x="336" y="-187"/>
      <point x="336" y="-8" type="curve" smooth="yes"/>
      <point x="336" y="536" type="line"/>
      <point x="15" y="536" type="line"/>
      <point x="15" y="526" type="line"/>
      <point x="20" y="526" type="line" smooth="yes"/>
      <point x="69" y="526"/>
      <point x="110" y="517"/>
      <point x="110" y="462" type="curve" smooth="yes"/>
      <point x="110" y="-59" type="line" smooth="yes"/>
      <point x="110" y="-189"/>
      <point x="64" y="-230"/>
      <point x="-22" y="-230" type="curve" smooth="yes"/>
      <point x="-30" y="-230" type="line"/>
    </contour>
    <contour>
      <point x="219" y="613" type="curve" smooth="yes"/>
      <point x="276" y="613"/>
      <point x="325" y="645"/>
      <point x="325" y="698" type="curve" smooth="yes"/>
      <point x="325" y="755"/>
      <point x="276" y="783"/>
      <point x="219" y="783" type="curve" smooth="yes"/>
      <point x="158" y="783"/>
      <point x="114" y="755"/>
      <point x="114" y="698" type="curve" smooth="yes"/>
      <point x="114" y="645"/>
      <point x="158" y="613"/>
    </contour>
  </outline>
</glyph>
<glyph name="ordfeminine" format="2">
  <advance width="522"/>
  <unicode hex="00AA"/>
  <outline>
    <contour>
      <point x="167" y="380" type="curve" smooth="yes"/>
      <point x="239" y="380"/>
      <point x="281" y="406"/>
      <point x="295" y="455" type="curve"/>
      <point x="297" y="455" type="line"/>
      <point x="297" y="386" type="line"/>
      <point x="494" y="386" type="line"/>
      <point x="494" y="396" type="line"/>
      <point x="455" y="396"/>
      <point x="444" y="405"/>
      <point x="444" y="434" type="curve" smooth="yes"/>
      <point x="444" y="615" type="line" smooth="yes"/>
      <point x="444" y="691"/>
      <point x="389" y="719"/>
      <point x="235" y="719" type="curve" smooth="yes"/>
      <point x="132" y="719"/>
      <point x="59" y="704"/>
      <point x="59" y="661" type="curve" smooth="yes"/>
      <point x="59" y="619"/>
      <point x="104" y="607"/>
      <point x="196" y="607" type="curve"/>
      <point x="196" y="676"/>
      <point x="205" y="709"/>
      <point x="242" y="709" type="curve" smooth="yes"/>
      <point x="271" y="709"/>
      <point x="287" y="692"/>
      <point x="287" y="645" type="curve" smooth="yes"/>
      <point x="287" y="571" type="line"/>
      <point x="229" y="569" type="line" smooth="yes"/>
      <point x="90" y="565"/>
      <point x="29" y="534"/>
      <point x="29" y="470" type="curve" smooth="yes"/>
      <point x="29" y="415"/>
      <point x="78" y="380"/>
    </contour>
    <contour>
      <point x="238" y="414" type="curve" smooth="yes"/>
      <point x="209" y="414"/>
      <point x="186" y="440"/>
      <point x="186" y="484" type="curve" smooth="yes"/>
      <point x="186" y="538"/>
      <point x="209" y="559"/>
      <point x="259" y="560" type="curve" smooth="yes"/>
      <point x="287" y="561" type="line"/>
      <point x="287" y="485" type="line" smooth="yes"/>
      <point x="287" y="455"/>
      <point x="278" y="414"/>
    </contour>
  </outline>
</glyph>
<glyph name="Lslash" format="2">
  <advance width="789"/>
  <unicode hex="0141"/>
  <anchor x="395" y="0" name="bottom"/>
  <anchor x="395" y="714" name="top"/>
  <outline>
    <contour>
      <point x="24" y="0" type="line"/>
      <point x="751" y="0" type="line"/>
      <point x="759" y="235" type="line"/>
      <point x="749" y="235" type="line"/>
      <point x="749" y="230" type="line" smooth="yes"/>
      <point x="737" y="57"/>
      <point x="692" y="10"/>
      <point x="529" y="10" type="curve" smooth="yes"/>
      <point x="366" y="10" type="line"/>
      <point x="366" y="427" type="line"/>
      <point x="522" y="509" type="line"/>
      <point x="522" y="521" type="line"/>
      <point x="366" y="439" type="line"/>
      <point x="366" y="667" type="line" smooth="yes"/>
      <point x="366" y="678"/>
      <point x="357" y="704"/>
      <point x="401" y="704" type="curve" smooth="yes"/>
      <point x="473" y="704" type="line"/>
      <point x="473" y="714" type="line"/>
      <point x="24" y="714" type="line"/>
      <point x="24" y="704" type="line"/>
      <point x="89" y="704" type="line" smooth="yes"/>
      <point x="112" y="704"/>
      <point x="132" y="678"/>
      <point x="132" y="667" type="curve" smooth="yes"/>
      <point x="132" y="319" type="line"/>
      <point x="45" y="273" type="line"/>
      <point x="45" y="261" type="line"/>
      <point x="132" y="307" type="line"/>
      <point x="132" y="41" type="line" smooth="yes"/>
      <point x="132" y="36"/>
      <point x="112" y="10"/>
      <point x="105" y="10" type="curve" smooth="yes"/>
      <point x="24" y="10" type="line"/>
    </contour>
  </outline>
</glyph>
<glyph name="uni018B" format="2">
  <advance width="800"/>
  <unicode hex="018B"/>
  <anchor x="400" y="0" name="bottom"/>
  <anchor x="400" y="714" name="top"/>
  <outline>
    <contour>
      <point x="362" y="0" type="curve" smooth="yes"/>
      <point x="763" y="0" type="line"/>
      <point x="763" y="10" type="line"/>
      <point x="715" y="10" type="line" smooth="yes"/>
      <point x="671" y="10"/>
      <point x="656" y="35"/>
      <point x="656" y="74" type="curve" smooth="yes"/>
      <point x="656" y="647" type="line" smooth="yes"/>
      <point x="656" y="692"/>
      <point x="676" y="704"/>
      <point x="706" y="704" type="curve" smooth="yes"/>
      <point x="763" y="704" type="line"/>
      <point x="763" y="714" type="line"/>
      <point x="95" y="714" type="line"/>
      <point x="88" y="497" type="line"/>
      <point x="98" y="497" type="line"/>
      <point x="100" y="525" type="line" smooth="yes"/>
      <point x="112" y="661"/>
      <point x="153" y="704"/>
      <point x="293" y="704" type="curve" smooth="yes"/>
      <point x="423" y="704" type="line"/>
      <point x="423" y="410" type="line"/>
      <point x="326" y="410" type="line" smooth="yes"/>
      <point x="106" y="410"/>
      <point x="24" y="324"/>
      <point x="24" y="201" type="curve" smooth="yes"/>
      <point x="24" y="50"/>
      <point x="140" y="0"/>
    </contour>
    <contour>
      <point x="388" y="10" type="line" smooth="yes"/>
      <point x="298" y="10"/>
      <point x="275" y="49"/>
      <point x="275" y="221" type="curve" smooth="yes"/>
      <point x="275" y="368"/>
      <point x="296" y="400"/>
      <point x="383" y="400" type="curve" smooth="yes"/>
      <point x="425" y="400" type="line"/>
      <point x="425" y="10" type="line"/>
    </contour>
  </outline>
</glyph>
<glyph name="uni0198" format="2">
  <advance width="885"/>
  <unicode hex="0198"/>
  <anchor x="443" y="0" name="bottom"/>
  <anchor x="443" y="714" name="top"/>
  <outline>
    <contour>
      <point x="24" y="0" type="line"/>
      <point x="416" y="0" type="line"/>
      <point x="416" y="10" type="line"/>
      <point x="410" y="10" type="line" smooth="yes"/>
      <point x="396" y="10"/>
      <point x="364" y="28"/>
      <point x="364" y="41" type="curve" smooth="yes"/>
      <point x="364" y="334" type="line"/>
      <point x="374" y="341" type="line"/>
      <point x="482" y="170" type="line" smooth="yes"/>
      <point x="561" y="32"/>
      <point x="606" y="0"/>
      <point x="757" y="0" type="curve" smooth="yes"/>
      <point x="911" y="0" type="line"/>
      <point x="911" y="10" type="line"/>
      <point x="909" y="10" type="line" smooth="yes"/>
      <point x="867" y="10"/>
      <point x="838" y="41"/>
      <point x="819" y="62" type="curve" smooth="yes"/>
      <point x="531" y="494" type="line"/>
      <point x="553" y="499" type="line" smooth="yes"/>
      <point x="623" y="574"/>
      <point x="636" y="600"/>
      <point x="701" y="600" type="curve" smooth="yes"/>
      <point x="761" y="600"/>
      <point x="793" y="581"/>
      <point x="805" y="530" type="curve"/>
      <point x="841" y="530"/>
      <point x="904" y="550"/>
      <point x="904" y="631" type="curve" smooth="yes"/>
      <point x="904" y="700"/>
      <point x="866" y="719"/>
      <point x="820" y="719" type="curve" smooth="yes"/>
      <point x="754" y="719"/>
      <point x="715" y="693"/>
      <point x="482" y="424" type="curve" smooth="yes"/>
      <point x="364" y="348" type="line"/>
      <point x="364" y="673" type="line" smooth="yes"/>
      <point x="364" y="686"/>
      <point x="382" y="704"/>
      <point x="390" y="704" type="curve" smooth="yes"/>
      <point x="450" y="704" type="line"/>
      <point x="450" y="714" type="line"/>
      <point x="24" y="714" type="line"/>
      <point x="24" y="704" type="line"/>
      <point x="97" y="704" type="line" smooth="yes"/>
      <point x="108" y="704"/>
      <point x="132" y="685"/>
      <point x="132" y="671" type="curve" smooth="yes"/>
      <point x="132" y="50" type="line" smooth="yes"/>
      <point x="132" y="28"/>
      <point x="100" y="10"/>
      <point x="85" y="10" type="curve" smooth="yes"/>
      <point x="24" y="10" type="line"/>
    </contour>
  </outline>
</glyph>
<glyph name="uni01A4" format="2">
  <advance width="976"/>
  <unicode hex="01A4"/>
  <anchor x="488" y="0" name="bottom"/>
  <anchor x="488" y="714" name="top"/>
  <outline>
    <contour>
      <point x="227" y="0" type="line"/>
      <point x="699" y="0" type="line"/>
      <point x="699" y="10" type="line"/>
      <point x="621" y="10" type="line" smooth="yes"/>
      <point x="600" y="10"/>
      <point x="567" y="8"/>
      <point x="567" y="62" type="curve" smooth="yes"/>
      <point x="567" y="267" type="line"/>
      <point x="593" y="267" type="line" smooth="yes"/>
      <point x="870" y="267"/>
      <point x="972" y="363"/>
      <point x="972" y="499" type="curve" smooth="yes"/>
      <point x="972" y="644"/>
      <point x="861" y="714"/>
      <point x="619" y="714" type="curve" smooth="yes"/>
      <point x="274" y="714" type="line" smooth="yes"/>
      <point x="85" y="714"/>
      <point x="9" y="629"/>
      <point x="9" y="533" type="curve" smooth="yes"/>
      <point x="9" y="469"/>
      <point x="45" y="420"/>
      <point x="109" y="420" type="curve" smooth="yes"/>
      <point x="144" y="420"/>
      <point x="167" y="431"/>
      <point x="187" y="446" type="curve"/>
      <point x="156" y="484"/>
      <point x="143" y="531"/>
      <point x="143" y="573" type="curve" smooth="yes"/>
      <point x="143" y="667"/>
      <point x="174" y="704"/>
      <point x="250" y="704" type="curve" smooth="yes"/>
      <point x="329" y="704"/>
      <point x="335" y="672"/>
      <point x="335" y="594" type="curve" smooth="yes"/>
      <point x="335" y="67" type="line" smooth="yes"/>
      <point x="335" y="9"/>
      <point x="297" y="10"/>
      <point x="274" y="10" type="curve" smooth="yes"/>
      <point x="227" y="10" type="line"/>
    </contour>
    <contour>
      <point x="565" y="277" type="line"/>
      <point x="565" y="704" type="line"/>
      <point x="598" y="704" type="line" smooth="yes"/>
      <point x="693" y="704"/>
      <point x="729" y="645"/>
      <point x="729" y="493" type="curve" smooth="yes"/>
      <point x="729" y="337"/>
      <point x="688" y="277"/>
      <point x="582" y="277" type="curve" smooth="yes"/>
    </contour>
  </outline>
</glyph>
<glyph name="uni01AC" format="2">
  <advance width="800"/>
  <unicode hex="01AC"/>
  <anchor x="400" y="0" name="bottom"/>
  <anchor x="400" y="714" name="top"/>
  <outline>
    <contour>
      <point x="176" y="0" type="line"/>
      <point x="631" y="0" type="line"/>
      <point x="631" y="10" type="line"/>
      <point x="593" y="10" type="line" smooth="yes"/>
      <point x="559" y="10"/>
      <point x="521" y="9"/>
      <point x="521" y="67" type="curve" smooth="yes"/>
      <point x="521" y="704" type="line"/>
      <point x="590" y="704" type="line" smooth="yes"/>
      <point x="727" y="704"/>
      <point x="775" y="658"/>
      <point x="786" y="512" type="curve" smooth="yes"/>
      <point x="787" y="497" type="line"/>
      <point x="797" y="497" type="line"/>
      <point x="790" y="714" type="line"/>
      <point x="274" y="714" type="line" smooth="yes"/>
      <point x="85" y="714"/>
      <point x="9" y="637"/>
      <point x="9" y="543" type="curve" smooth="yes"/>
      <point x="9" y="478"/>
      <point x="45" y="424"/>
      <point x="110" y="424" type="curve" smooth="yes"/>
      <point x="144" y="424"/>
      <point x="167" y="435"/>
      <point x="187" y="450" type="curve"/>
      <point x="156" y="492"/>
      <point x="140" y="536"/>
      <point x="140" y="576" type="curve" smooth="yes"/>
      <point x="140" y="645"/>
      <point x="183" y="704"/>
      <point x="261" y="704" type="curve" smooth="yes"/>
      <point x="286" y="704" type="line"/>
      <point x="286" y="73" type="line" smooth="yes"/>
      <point x="286" y="10"/>
      <point x="250" y="10"/>
      <point x="213" y="10" type="curve" smooth="yes"/>
      <point x="176" y="10" type="line"/>
    </contour>
  </outline>
</glyph>
<glyph name="uni01AD" format="2">
  <advance width="517"/>
  <unicode hex="01AD"/>
  <anchor x="258" y="0" name="bottom"/>
  <anchor x="258" y="771" name="top"/>
  <outline>
    <contour>
      <point x="281" y="-10" type="curve" smooth="yes"/>
      <point x="383" y="-10"/>
      <point x="471" y="14"/>
      <point x="496" y="26" type="curve"/>
      <point x="496" y="36" type="line"/>
      <point x="469" y="24"/>
      <point x="443" y="18"/>
      <point x="420" y="18" type="curve" smooth="yes"/>
      <point x="374" y="18"/>
      <point x="338" y="44"/>
      <point x="338" y="100" type="curve" smooth="yes"/>
      <point x="338" y="526" type="line"/>
      <point x="486" y="526" type="line"/>
      <point x="486" y="536" type="line"/>
      <point x="338" y="536" type="line"/>
      <point x="338" y="622" type="line" smooth="yes"/>
      <point x="338" y="662"/>
      <point x="383" y="686"/>
      <point x="416" y="686" type="curve" smooth="yes"/>
      <point x="431" y="686"/>
      <point x="457" y="681"/>
      <point x="482" y="668" type="curve"/>
      <point x="492" y="677"/>
      <point x="498" y="689"/>
      <point x="498" y="708" type="curve" smooth="yes"/>
      <point x="498" y="746"/>
      <point x="478" y="764"/>
      <point x="424" y="764" type="curve" smooth="yes"/>
      <point x="369" y="764"/>
      <point x="339" y="741"/>
      <point x="332" y="676" type="curve" smooth="yes"/>
      <point x="321" y="563"/>
      <point x="265" y="536"/>
      <point x="25" y="536" type="curve"/>
      <point x="25" y="526" type="line"/>
      <point x="112" y="526" type="line"/>
      <point x="112" y="148" type="line" smooth="yes"/>
      <point x="112" y="31"/>
      <point x="183" y="-10"/>
    </contour>
  </outline>
</glyph>
<glyph name="uni01B2" format="2">
  <advance width="924"/>
  <unicode hex="01B2"/>
  <anchor x="463" y="0" name="bottom"/>
  <anchor x="463" y="714" name="top"/>
  <outline>
    <contour>
      <point x="370" y="-10" type="curve" smooth="yes"/>
      <point x="680" y="-10"/>
      <point x="843" y="311"/>
      <point x="843" y="535" type="curve" smooth="yes"/>
      <point x="843" y="654"/>
      <point x="792" y="725"/>
      <point x="695" y="725" type="curve" smooth="yes"/>
      <point x="623" y="725"/>
      <point x="582" y="686"/>
      <point x="582" y="628" type="curve"/>
      <point x="684" y="628"/>
      <point x="761" y="621"/>
      <point x="761" y="445" type="curve" smooth="yes"/>
      <point x="761" y="147"/>
      <point x="585" y="9"/>
      <point x="414" y="9" type="curve" smooth="yes"/>
      <point x="368" y="9"/>
      <point x="361" y="28"/>
      <point x="361" y="58" type="curve" smooth="yes"/>
      <point x="361" y="649" type="line" smooth="yes"/>
      <point x="361" y="698"/>
      <point x="397" y="704"/>
      <point x="443" y="704" type="curve" smooth="yes"/>
      <point x="468" y="704" type="line"/>
      <point x="468" y="714" type="line"/>
      <point x="20" y="714" type="line"/>
      <point x="20" y="704" type="line"/>
      <point x="51" y="704" type="line" smooth="yes"/>
      <point x="94" y="704"/>
      <point x="128" y="698"/>
      <point x="128" y="653" type="curve" smooth="yes"/>
      <point x="128" y="212" type="line" smooth="yes"/>
      <point x="128" y="52"/>
      <point x="197" y="-10"/>
    </contour>
  </outline>
</glyph>
<glyph name="uni0223" format="2">
  <advance width="802"/>
  <unicode hex="0223"/>
  <anchor x="401" y="0" name="bottom"/>
  <anchor x="401" y="765" name="top"/>
  <outline>
    <contour>
      <point x="400" y="-10" type="curve" smooth="yes"/>
      <point x="634" y="-10"/>
      <point x="754" y="70"/>
      <point x="754" y="233" type="curve" smooth="yes"/>
      <point x="754" y="353"/>
      <point x="665" y="431"/>
      <point x="495" y="450" type="curve"/>
      <point x="668" y="467"/>
      <point x="727" y="539"/>
      <point x="727" y="609" type="curve" smooth="yes"/>
      <point x="727" y="689"/>
      <point x="631" y="748"/>
      <point x="463" y="765" type="curve"/>
      <point x="479" y="735"/>
      <point x="491" y="687"/>
      <point x="491" y="621" type="curve" smooth="yes"/>
      <point x="491" y="505"/>
      <point x="466" y="456"/>
      <point x="403" y="456" type="curve" smooth="yes"/>
      <point x="338" y="456"/>
      <point x="311" y="505"/>
      <point x="311" y="621" type="curve" smooth="yes"/>
      <point x="311" y="687"/>
      <point x="325" y="735"/>
      <point x="341" y="765" type="curve"/>
      <point x="169" y="748"/>
      <point x="75" y="688"/>
      <point x="75" y="609" type="curve" smooth="yes"/>
      <point x="75" y="530"/>
      <point x="139" y="468"/>
      <point x="310" y="451" type="curve"/>
      <point x="135" y="433"/>
      <point x="48" y="354"/>
      <point x="48" y="233" type="curve" smooth="yes"/>
      <point x="48" y="70"/>
      <point x="181" y="-10"/>
    </contour>
    <contour>
      <point x="403" y="0" type="curve" smooth="yes"/>
      <point x="322" y="0"/>
      <point x="282" y="81"/>
      <point x="282" y="235" type="curve" smooth="yes"/>
      <point x="282" y="375"/>
      <point x="322" y="446"/>
      <point x="401" y="446" type="curve" smooth="yes"/>
      <point x="482" y="446"/>
      <point x="520" y="375"/>
      <point x="520" y="235" type="curve" smooth="yes"/>
      <point x="520" y="81"/>
      <point x="482" y="0"/>
    </contour>
  </outline>
</glyph>
<glyph name="uni023C" format="2">
  <advance width="645"/>
  <unicode hex="023C"/>
  <anchor x="323" y="-74" name="bottom"/>
  <anchor x="323" y="714" name="top"/>
  <anchor x="625" y="536" name="topright"/>
  <outline>
    <contour>
      <point x="193" y="-74" type="line"/>
      <point x="205" y="-74" type="line"/>
      <point x="488" y="714" type="line"/>
      <point x="476" y="714" type="line"/>
    </contour>
    <component base="c"/>
  </outline>
</glyph>
<glyph name="uni023F" format="2">
  <advance width="585"/>
  <unicode hex="023F"/>
  <anchor x="292" y="-237" name="bottom"/>
  <anchor x="292" y="536" name="top"/>
  <anchor x="565" y="536" name="topright"/>
  <outline>
    <contour>
      <point x="439" y="-234" type="curve" smooth="yes"/>
      <point x="525" y="-234"/>
      <point x="575" y="-200"/>
      <point x="575" y="-149" type="curve" smooth="yes"/>
      <point x="575" y="-105"/>
      <point x="535" y="-75"/>
      <point x="473" y="-74" type="curve"/>
      <point x="473" y="-131"/>
      <point x="443" y="-146"/>
      <point x="410" y="-146" type="curve" smooth="yes"/>
      <point x="369" y="-146"/>
      <point x="357" y="-124"/>
      <point x="330" y="-85" type="curve" smooth="yes"/>
      <point x="290" y="-29"/>
      <point x="272" y="-17"/>
      <point x="149" y="4" type="curve"/>
      <point x="149" y="2" type="line"/>
      <point x="216" y="-12"/>
      <point x="239" y="-32"/>
      <point x="264" y="-103" type="curve" smooth="yes"/>
      <point x="281" y="-154"/>
      <point x="305" y="-234"/>
    </contour>
    <component base="s"/>
  </outline>
</glyph>
<glyph name="uni0242" format="2">
  <advance width="756"/>
  <unicode hex="0242"/>
  <anchor x="379" y="0" name="bottom"/>
  <anchor x="379" y="536" name="top"/>
  <outline>
    <contour>
      <point x="164" y="0" type="line"/>
      <point x="573" y="0" type="line"/>
      <point x="573" y="10" type="line"/>
      <point x="563" y="10" type="line" smooth="yes"/>
      <point x="551" y="10"/>
      <point x="482" y="10"/>
      <point x="482" y="75" type="curve" smooth="yes"/>
      <point x="482" y="165" type="line"/>
      <point x="542" y="176" type="line" smooth="yes"/>
      <point x="642" y="192"/>
      <point x="694" y="269"/>
      <point x="694" y="360" type="curve" smooth="yes"/>
      <point x="694" y="478"/>
      <point x="610" y="548"/>
      <point x="334" y="548" type="curve" smooth="yes"/>
      <point x="181" y="548"/>
      <point x="76" y="490"/>
      <point x="76" y="396" type="curve" smooth="yes"/>
      <point x="76" y="323"/>
      <point x="125" y="303"/>
      <point x="284" y="303" type="curve"/>
      <point x="284" y="493"/>
      <point x="305" y="538"/>
      <point x="367" y="538" type="curve" smooth="yes"/>
      <point x="424" y="538"/>
      <point x="449" y="494"/>
      <point x="449" y="403" type="curve" smooth="yes"/>
      <point x="449" y="324"/>
      <point x="416" y="241"/>
      <point x="336" y="212" type="curve" smooth="yes"/>
      <point x="256" y="178" type="line"/>
      <point x="256" y="75" type="line" smooth="yes"/>
      <point x="256" y="10"/>
      <point x="186" y="10"/>
      <point x="172" y="10" type="curve" smooth="yes"/>
      <point x="164" y="10" type="line"/>
    </contour>
  </outline>
</glyph>
<glyph name="schwahook" format="2">
  <advance width="1068"/>
  <unicode hex="025A"/>
  <anchor x="519" y="0" name="bottom"/>
  <anchor x="519" y="536" name="top"/>
  <outline>
    <contour>
      <point x="343" y="-10" type="curve" smooth="yes"/>
      <point x="541" y="-10"/>
      <point x="654" y="87"/>
      <point x="654" y="275" type="curve" smooth="yes"/>
      <point x="654" y="314"/>
      <point x="648" y="349"/>
      <point x="639" y="381" type="curve"/>
      <point x="727" y="397" type="line"/>
      <point x="773" y="238" type="line" smooth="yes"/>
      <point x="798" y="148"/>
      <point x="840" y="106"/>
      <point x="907" y="106" type="curve" smooth="yes"/>
      <point x="972" y="106"/>
      <point x="1068" y="141"/>
      <point x="1068" y="204" type="curve" smooth="yes"/>
      <point x="1068" y="229"/>
      <point x="1051" y="261"/>
      <point x="1030" y="274" type="curve"/>
      <point x="1000" y="238"/>
      <point x="910" y="212"/>
      <point x="857" y="212" type="curve" smooth="yes"/>
      <point x="813" y="212"/>
      <point x="788" y="235"/>
      <point x="777" y="279" type="curve" smooth="yes"/>
      <point x="741" y="415" type="line"/>
      <point x="635" y="391" type="line"/>
      <point x="594" y="494"/>
      <point x="489" y="552"/>
      <point x="321" y="552" type="curve" smooth="yes"/>
      <point x="185" y="552"/>
      <point x="70" y="516"/>
      <point x="70" y="425" type="curve" smooth="yes"/>
      <point x="70" y="381"/>
      <point x="96" y="363"/>
      <point x="142" y="355" type="curve"/>
      <point x="137" y="470"/>
      <point x="166" y="538"/>
      <point x="261" y="538" type="curve" smooth="yes"/>
      <point x="362" y="538"/>
      <point x="410" y="475"/>
      <point x="423" y="343" type="curve"/>
      <point x="48" y="258" type="line"/>
      <point x="48" y="234" type="line" smooth="yes"/>
      <point x="48" y="72"/>
      <point x="160" y="-10"/>
    </contour>
    <contour>
      <point x="344" y="0" type="curve" smooth="yes"/>
      <point x="290" y="0"/>
      <point x="270" y="69"/>
      <point x="270" y="297" type="curve"/>
      <point x="423" y="333" type="line"/>
      <point x="424" y="308"/>
      <point x="426" y="280"/>
      <point x="426" y="252" type="curve" smooth="yes"/>
      <point x="426" y="50"/>
      <point x="409" y="0"/>
    </contour>
  </outline>
</glyph>
<glyph name="eopenreversedhook" format="2">
  <advance width="1012"/>
  <unicode hex="025D"/>
  <anchor x="454" y="0" name="bottom"/>
  <anchor x="454" y="536" name="top"/>
  <outline>
    <contour>
      <point x="851" y="151" type="curve" smooth="yes"/>
      <point x="916" y="151"/>
      <point x="1012" y="186"/>
      <point x="1012" y="249" type="curve" smooth="yes"/>
      <point x="1012" y="274"/>
      <point x="995" y="306"/>
      <point x="974" y="319" type="curve"/>
      <point x="944" y="283"/>
      <point x="854" y="257"/>
      <point x="801" y="257" type="curve" smooth="yes"/>
      <point x="757" y="257"/>
      <point x="732" y="280"/>
      <point x="721" y="324" type="curve" smooth="yes"/>
      <point x="685" y="460" type="line"/>
      <point x="502" y="407" type="line"/>
      <point x="505" y="393" type="line"/>
      <point x="671" y="442" type="line"/>
      <point x="717" y="283" type="line" smooth="yes"/>
      <point x="742" y="193"/>
      <point x="784" y="151"/>
    </contour>
    <component base="afii10073"/>
  </outline>
</glyph>
<glyph name="uni026E" format="2">
  <advance width="899"/>
  <unicode hex="026E"/>
  <anchor x="450" y="-240" name="bottom"/>
  <anchor x="450" y="760" name="top"/>
  <outline>
    <contour>
      <point x="519" y="-240" type="curve" smooth="yes"/>
      <point x="721" y="-240"/>
      <point x="853" y="-170"/>
      <point x="853" y="-62" type="curve" smooth="yes"/>
      <point x="853" y="79"/>
      <point x="736" y="151"/>
      <point x="493" y="151" type="curve"/>
      <point x="830" y="420" type="line"/>
      <point x="830" y="536" type="line"/>
      <point x="337" y="536" type="line"/>
      <point x="337" y="760" type="line"/>
      <point x="24" y="760" type="line"/>
      <point x="24" y="750" type="line"/>
      <point x="41" y="750" type="line" smooth="yes"/>
      <point x="30" y="750"/>
      <point x="110" y="751"/>
      <point x="110" y="699" type="curve" smooth="yes"/>
      <point x="110" y="85" type="line" smooth="yes"/>
      <point x="110" y="28"/>
      <point x="72" y="10"/>
      <point x="42" y="10" type="curve" smooth="yes"/>
      <point x="24" y="10" type="line"/>
      <point x="24" y="0" type="line"/>
      <point x="424" y="0" type="line"/>
      <point x="424" y="10" type="line"/>
      <point x="408" y="10" type="line" smooth="yes"/>
      <point x="376" y="10"/>
      <point x="337" y="28"/>
      <point x="337" y="85" type="curve" smooth="yes"/>
      <point x="337" y="397" type="line"/>
      <point x="785" y="397" type="line"/>
      <point x="475" y="151" type="line"/>
      <point x="475" y="141" type="line"/>
      <point x="482" y="141" type="line" smooth="yes"/>
      <point x="589" y="141"/>
      <point x="624" y="103"/>
      <point x="624" y="-20" type="curve" smooth="yes"/>
      <point x="624" y="-188"/>
      <point x="601" y="-230"/>
      <point x="512" y="-230" type="curve" smooth="yes"/>
      <point x="414" y="-230"/>
      <point x="374" y="-170"/>
      <point x="374" y="-18" type="curve"/>
      <point x="268" y="-18"/>
      <point x="238" y="-41"/>
      <point x="238" y="-96" type="curve" smooth="yes"/>
      <point x="238" y="-154"/>
      <point x="281" y="-240"/>
    </contour>
  </outline>
</glyph>
<glyph name="uni0278" format="2">
  <advance width="921"/>
  <unicode hex="0278"/>
  <anchor x="471" y="-240" name="bottom"/>
  <anchor x="472" y="268" name="center"/>
  <anchor x="471" y="760" name="top"/>
  <anchor x="901" y="536" name="topright"/>
  <outline>
    <contour>
      <point x="329" y="-240" type="line"/>
      <point x="592" y="-240" type="line"/>
      <point x="592" y="-230" type="line"/>
      <point x="580" y="-230" type="line" smooth="yes"/>
      <point x="546" y="-230"/>
      <point x="506" y="-213"/>
      <point x="506" y="-161" type="curve" smooth="yes"/>
      <point x="506" y="-9" type="line"/>
      <point x="758" y="-3"/>
      <point x="873" y="88"/>
      <point x="873" y="269" type="curve" smooth="yes"/>
      <point x="873" y="449"/>
      <point x="745" y="539"/>
      <point x="506" y="545" type="curve"/>
      <point x="506" y="681" type="line" smooth="yes"/>
      <point x="506" y="733"/>
      <point x="545" y="750"/>
      <point x="579" y="750" type="curve" smooth="yes"/>
      <point x="593" y="750" type="line"/>
      <point x="593" y="760" type="line"/>
      <point x="330" y="760" type="line"/>
      <point x="330" y="750" type="line"/>
      <point x="342" y="750" type="line" smooth="yes"/>
      <point x="376" y="750"/>
      <point x="416" y="733"/>
      <point x="416" y="681" type="curve" smooth="yes"/>
      <point x="416" y="545" type="line"/>
      <point x="164" y="539"/>
      <point x="48" y="449"/>
      <point x="48" y="269" type="curve" smooth="yes"/>
      <point x="48" y="88"/>
      <point x="175" y="-3"/>
      <point x="416" y="-9" type="curve"/>
      <point x="416" y="-161" type="line" smooth="yes"/>
      <point x="416" y="-213"/>
      <point x="377" y="-230"/>
      <point x="343" y="-230" type="curve" smooth="yes"/>
      <point x="329" y="-230" type="line"/>
    </contour>
    <contour>
      <point x="416" y="5" type="line"/>
      <point x="303" y="20"/>
      <point x="282" y="113"/>
      <point x="282" y="270" type="curve" smooth="yes"/>
      <point x="282" y="431"/>
      <point x="301" y="521"/>
      <point x="416" y="533" type="curve"/>
    </contour>
    <contour>
      <point x="506" y="5" type="curve"/>
      <point x="506" y="532" type="line"/>
      <point x="618" y="518"/>
      <point x="639" y="427"/>
      <point x="639" y="270" type="curve" smooth="yes"/>
      <point x="639" y="113"/>
      <point x="620" y="20"/>
    </contour>
  </outline>
</glyph>
<glyph name="uni028F" format="2">
  <advance width="768"/>
  <unicode hex="028F"/>
  <anchor x="385" y="0" name="bottom"/>
  <anchor x="385" y="536" name="top"/>
  <outline>
    <contour>
      <point x="143" y="0" type="line"/>
      <point x="610" y="0" type="line"/>
      <point x="610" y="10" type="line"/>
      <point x="553" y="10" type="line" smooth="yes"/>
      <point x="532" y="10"/>
      <point x="495" y="11"/>
      <point x="495" y="47" type="curve" smooth="yes"/>
      <point x="495" y="163" type="line"/>
      <point x="651" y="468" type="line" smooth="yes"/>
      <point x="678" y="520"/>
      <point x="695" y="526"/>
      <point x="785" y="526" type="curve" smooth="yes"/>
      <point x="768" y="526" type="line"/>
      <point x="768" y="536" type="line"/>
      <point x="506" y="536" type="line"/>
      <point x="506" y="526" type="line"/>
      <point x="586" y="526" type="line" smooth="yes"/>
      <point x="626" y="526"/>
      <point x="643" y="510"/>
      <point x="643" y="488" type="curve" smooth="yes"/>
      <point x="643" y="474"/>
      <point x="625" y="448"/>
      <point x="613" y="423" type="curve" smooth="yes"/>
      <point x="490" y="179" type="line"/>
      <point x="349" y="441" type="line" smooth="yes"/>
      <point x="344" y="449"/>
      <point x="329" y="474"/>
      <point x="329" y="497" type="curve" smooth="yes"/>
      <point x="329" y="518"/>
      <point x="350" y="526"/>
      <point x="380" y="526" type="curve" smooth="yes"/>
      <point x="409" y="526" type="line"/>
      <point x="409" y="536" type="line"/>
      <point x="0" y="536" type="line"/>
      <point x="0" y="526" type="line"/>
      <point x="-2" y="526" type="line" smooth="yes"/>
      <point x="29" y="526"/>
      <point x="50" y="517"/>
      <point x="69" y="483" type="curve" smooth="yes"/>
      <point x="257" y="172" type="line"/>
      <point x="257" y="52" type="line" smooth="yes"/>
      <point x="257" y="16"/>
      <point x="221" y="10"/>
      <point x="175" y="10" type="curve" smooth="yes"/>
      <point x="143" y="10" type="line"/>
    </contour>
  </outline>
</glyph>
<glyph name="uni0290" format="2">
  <advance width="633"/>
  <unicode hex="0290"/>
  <anchor x="316" y="-197" name="bottom"/>
  <anchor x="316" y="536" name="top"/>
  <outline>
    <contour>
      <point x="719" y="-189" type="curve" smooth="yes"/>
      <point x="789" y="-189"/>
      <point x="840" y="-162"/>
      <point x="840" y="-118" type="curve" smooth="yes"/>
      <point x="840" y="-100"/>
      <point x="834" y="-85"/>
      <point x="823" y="-70" type="curve"/>
      <point x="785" y="-82"/>
      <point x="755" y="-88"/>
      <point x="719" y="-88" type="curve" smooth="yes"/>
      <point x="642" y="-88"/>
      <point x="613" y="-64"/>
      <point x="613" y="-4" type="curve" smooth="yes"/>
      <point x="613" y="74" type="line"/>
      <point x="619" y="209" type="line"/>
      <point x="609" y="209" type="line"/>
      <point x="606" y="179" type="line" smooth="yes"/>
      <point x="593" y="41"/>
      <point x="557" y="10"/>
      <point x="436" y="10" type="curve" smooth="yes"/>
      <point x="211" y="10" type="line"/>
      <point x="600" y="526" type="line"/>
      <point x="600" y="536" type="line"/>
      <point x="55" y="536" type="line"/>
      <point x="41" y="344" type="line"/>
      <point x="51" y="344" type="line"/>
      <point x="54" y="376" type="line" smooth="yes"/>
      <point x="63" y="494"/>
      <point x="93" y="526"/>
      <point x="205" y="526" type="curve" smooth="yes"/>
      <point x="389" y="526" type="line"/>
      <point x="0" y="10" type="line"/>
      <point x="0" y="0" type="line"/>
      <point x="603" y="0" type="line"/>
      <point x="603" y="-95" type="line" smooth="yes"/>
      <point x="603" y="-156"/>
      <point x="635" y="-189"/>
    </contour>
  </outline>
</glyph>
<glyph name="uni029B" format="2">
  <advance width="779"/>
  <unicode hex="029B"/>
  <anchor x="389" y="0" name="bottom"/>
  <anchor x="389" y="760" name="top"/>
  <outline>
    <contour>
      <point x="396" y="-4" type="curve" smooth="yes"/>
      <point x="470" y="-4"/>
      <point x="577" y="4"/>
      <point x="689" y="51" type="curve"/>
      <point x="689" y="232" type="line" smooth="yes"/>
      <point x="689" y="251"/>
      <point x="689" y="281"/>
      <point x="733" y="281" type="curve" smooth="yes"/>
      <point x="749" y="281" type="line"/>
      <point x="749" y="289" type="line"/>
      <point x="414" y="289" type="line"/>
      <point x="414" y="279" type="line"/>
      <point x="431" y="279" type="line" smooth="yes"/>
      <point x="480" y="279"/>
      <point x="480" y="241"/>
      <point x="480" y="230" type="curve" smooth="yes"/>
      <point x="480" y="13" type="line"/>
      <point x="461" y="8"/>
      <point x="427" y="6"/>
      <point x="412" y="6" type="curve" smooth="yes"/>
      <point x="313" y="6"/>
      <point x="262" y="69"/>
      <point x="262" y="274" type="curve" smooth="yes"/>
      <point x="262" y="464"/>
      <point x="308" y="540"/>
      <point x="431" y="540" type="curve" smooth="yes"/>
      <point x="480" y="540"/>
      <point x="529" y="514"/>
      <point x="533" y="378" type="curve"/>
      <point x="614" y="378"/>
      <point x="688" y="395"/>
      <point x="688" y="447" type="curve" smooth="yes"/>
      <point x="688" y="575" type="line" smooth="yes"/>
      <point x="688" y="635"/>
      <point x="717" y="659"/>
      <point x="794" y="659" type="curve" smooth="yes"/>
      <point x="830" y="659"/>
      <point x="860" y="653"/>
      <point x="898" y="641" type="curve"/>
      <point x="909" y="656"/>
      <point x="915" y="671"/>
      <point x="915" y="689" type="curve" smooth="yes"/>
      <point x="915" y="733"/>
      <point x="864" y="760"/>
      <point x="794" y="760" type="curve" smooth="yes"/>
      <point x="710" y="760"/>
      <point x="678" y="727"/>
      <point x="678" y="666" type="curve" smooth="yes"/>
      <point x="678" y="510" type="line"/>
      <point x="653" y="534"/>
      <point x="561" y="550"/>
      <point x="444" y="550" type="curve" smooth="yes"/>
      <point x="164" y="550"/>
      <point x="36" y="432"/>
      <point x="36" y="282" type="curve" smooth="yes"/>
      <point x="36" y="117"/>
      <point x="128" y="-4"/>
    </contour>
  </outline>
</glyph>
<glyph name="qhook" format="2">
  <advance width="785"/>
  <unicode hex="02A0"/>
  <anchor x="393" y="-240" name="bottom"/>
  <anchor x="393" y="769" name="top"/>
  <outline>
    <contour>
      <point x="325" y="-217" type="line"/>
      <point x="773" y="-217" type="line"/>
      <point x="773" y="-207" type="line"/>
      <point x="759" y="-207" type="line" smooth="yes"/>
      <point x="734" y="-207"/>
      <point x="675" y="-206"/>
      <point x="675" y="-148" type="curve" smooth="yes"/>
      <point x="675" y="669" type="line" smooth="yes"/>
      <point x="675" y="738"/>
      <point x="686" y="759"/>
      <point x="717" y="759" type="curve" smooth="yes"/>
      <point x="752" y="759"/>
      <point x="761" y="720"/>
      <point x="761" y="597" type="curve"/>
      <point x="886" y="597"/>
      <point x="913" y="634"/>
      <point x="913" y="678" type="curve" smooth="yes"/>
      <point x="913" y="719"/>
      <point x="880" y="769"/>
      <point x="708" y="769" type="curve" smooth="yes"/>
      <point x="517" y="769"/>
      <point x="448" y="686"/>
      <point x="448" y="559" type="curve" smooth="yes"/>
      <point x="448" y="494" type="line" smooth="yes"/>
      <point x="448" y="449"/>
      <point x="448" y="401"/>
      <point x="449" y="356" type="curve"/>
      <point x="447" y="356" type="line"/>
      <point x="424" y="491"/>
      <point x="351" y="550"/>
      <point x="254" y="550" type="curve" smooth="yes"/>
      <point x="118" y="550"/>
      <point x="46" y="448"/>
      <point x="46" y="275" type="curve" smooth="yes"/>
      <point x="46" y="97"/>
      <point x="118" y="-10"/>
      <point x="267" y="-10" type="curve" smooth="yes"/>
      <point x="373" y="-10"/>
      <point x="426" y="40"/>
      <point x="447" y="167" type="curve"/>
      <point x="449" y="167" type="line"/>
      <point x="449" y="80"/>
      <point x="449" y="-6"/>
      <point x="449" y="-93" type="curve" smooth="yes"/>
      <point x="449" y="-148" type="line" smooth="yes"/>
      <point x="449" y="-206"/>
      <point x="390" y="-207"/>
      <point x="365" y="-207" type="curve" smooth="yes"/>
      <point x="325" y="-207" type="line"/>
    </contour>
    <contour>
      <point x="355" y="30" type="curve" smooth="yes"/>
      <point x="302" y="30"/>
      <point x="274" y="154"/>
      <point x="274" y="282" type="curve" smooth="yes"/>
      <point x="274" y="381"/>
      <point x="306" y="489"/>
      <point x="353" y="489" type="curve" smooth="yes"/>
      <point x="401" y="489"/>
      <point x="448" y="401"/>
      <point x="448" y="277" type="curve" smooth="yes"/>
      <point x="448" y="127"/>
      <point x="404" y="30"/>
    </contour>
  </outline>
</glyph>
<glyph name="uni02A1" format="2">
  <advance width="637"/>
  <unicode hex="02A1"/>
  <anchor x="318" y="0" name="bottom"/>
  <anchor x="318" y="766" name="top"/>
  <outline>
    <contour>
      <point x="84" y="207" type="line"/>
      <point x="538" y="207" type="line"/>
      <point x="538" y="217" type="line"/>
      <point x="84" y="217" type="line"/>
    </contour>
    <component base="uni0294"/>
  </outline>
</glyph>
<glyph name="uni02A2" format="2">
  <advance width="637"/>
  <unicode hex="02A2"/>
  <anchor x="318" y="0" name="bottom"/>
  <anchor x="318" y="766" name="top"/>
  <outline>
    <contour>
      <point x="133" y="0" type="line"/>
      <point x="515" y="0" type="line"/>
      <point x="515" y="10" type="line"/>
      <point x="486" y="10" type="line" smooth="yes"/>
      <point x="467" y="10"/>
      <point x="435" y="10"/>
      <point x="435" y="75" type="curve" smooth="yes"/>
      <point x="435" y="207" type="line"/>
      <point x="555" y="207" type="line"/>
      <point x="555" y="217" type="line"/>
      <point x="435" y="217" type="line"/>
      <point x="435" y="333" type="line"/>
      <point x="322" y="368"/>
      <point x="275" y="438"/>
      <point x="275" y="594" type="curve" smooth="yes"/>
      <point x="275" y="717"/>
      <point x="289" y="756"/>
      <point x="339" y="756" type="curve" smooth="yes"/>
      <point x="391" y="756"/>
      <point x="412" y="708"/>
      <point x="412" y="508" type="curve"/>
      <point x="573" y="508"/>
      <point x="609" y="535"/>
      <point x="609" y="619" type="curve" smooth="yes"/>
      <point x="609" y="667"/>
      <point x="555" y="766"/>
      <point x="367" y="766" type="curve" smooth="yes"/>
      <point x="132" y="766"/>
      <point x="30" y="695"/>
      <point x="30" y="565" type="curve" smooth="yes"/>
      <point x="30" y="455"/>
      <point x="87" y="395"/>
      <point x="216" y="348" type="curve"/>
      <point x="216" y="217" type="line"/>
      <point x="101" y="217" type="line"/>
      <point x="101" y="207" type="line"/>
      <point x="216" y="207" type="line"/>
      <point x="216" y="75" type="line" smooth="yes"/>
      <point x="216" y="10"/>
      <point x="184" y="10"/>
      <point x="165" y="10" type="curve" smooth="yes"/>
      <point x="133" y="10" type="line"/>
    </contour>
  </outline>
</glyph>
<glyph name="dzligcurl" format="2">
  <advance width="1312"/>
  <unicode hex="02A5"/>
  <anchor x="657" y="0" name="bottom"/>
  <anchor x="657" y="760" name="top"/>
  <outline>
    <contour>
      <point x="1016" y="-86" type="line"/>
      <point x="1023" y="-51"/>
      <point x="1029" y="-23"/>
      <point x="1036" y="0" type="curve"/>
      <point x="1141" y="0" type="line" smooth="yes"/>
      <point x="1253" y="0"/>
      <point x="1304" y="36"/>
      <point x="1304" y="104" type="curve" smooth="yes"/>
      <point x="1304" y="167"/>
      <point x="1261" y="207"/>
      <point x="1196" y="207" type="curve" smooth="yes"/>
      <point x="1113" y="207"/>
      <point x="1065" y="151"/>
      <point x="1028" y="10" type="curve"/>
      <point x="854" y="10" type="line"/>
      <point x="1243" y="526" type="line"/>
      <point x="1243" y="536" type="line"/>
      <point x="675" y="536" type="line"/>
      <point x="675" y="760" type="line"/>
      <point x="346" y="760" type="line"/>
      <point x="346" y="750" type="line"/>
      <point x="366" y="750" type="line" smooth="yes"/>
      <point x="414" y="750"/>
      <point x="448" y="735"/>
      <point x="448" y="679" type="curve" smooth="yes"/>
      <point x="448" y="610" type="line" smooth="yes"/>
      <point x="448" y="563"/>
      <point x="448" y="451"/>
      <point x="449" y="356" type="curve"/>
      <point x="447" y="356" type="line"/>
      <point x="424" y="491"/>
      <point x="351" y="550"/>
      <point x="254" y="550" type="curve" smooth="yes"/>
      <point x="118" y="550"/>
      <point x="46" y="448"/>
      <point x="46" y="275" type="curve" smooth="yes"/>
      <point x="46" y="97"/>
      <point x="118" y="-10"/>
      <point x="267" y="-10" type="curve" smooth="yes"/>
      <point x="368" y="-10"/>
      <point x="421" y="42"/>
      <point x="447" y="177" type="curve"/>
      <point x="449" y="177" type="line"/>
      <point x="449" y="0" type="line"/>
      <point x="1024" y="0" type="line"/>
      <point x="1017" y="-22"/>
      <point x="1013" y="-50"/>
      <point x="1006" y="-84" type="curve"/>
    </contour>
    <contour>
      <point x="352" y="30" type="curve" smooth="yes"/>
      <point x="302" y="30"/>
      <point x="274" y="154"/>
      <point x="274" y="282" type="curve" smooth="yes"/>
      <point x="274" y="381"/>
      <point x="306" y="490"/>
      <point x="353" y="490" type="curve" smooth="yes"/>
      <point x="399" y="490"/>
      <point x="448" y="401"/>
      <point x="448" y="277" type="curve" smooth="yes"/>
      <point x="448" y="127"/>
      <point x="393" y="30"/>
    </contour>
    <contour>
      <point x="1038" y="10" type="line"/>
      <point x="1074" y="143"/>
      <point x="1119" y="197"/>
      <point x="1196" y="197" type="curve" smooth="yes"/>
      <point x="1253" y="197"/>
      <point x="1292" y="160"/>
      <point x="1292" y="104" type="curve" smooth="yes"/>
      <point x="1292" y="44"/>
      <point x="1243" y="10"/>
      <point x="1140" y="10" type="curve" smooth="yes"/>
    </contour>
    <contour>
      <point x="675" y="55" type="line"/>
      <point x="675" y="526" type="line"/>
      <point x="1032" y="526" type="line"/>
    </contour>
  </outline>
</glyph>
<glyph name="tslig" format="2">
  <advance width="1069"/>
  <unicode hex="02A6"/>
  <anchor x="534" y="0" name="bottom"/>
  <anchor x="534" y="662" name="top"/>
  <outline>
    <contour>
      <point x="313" y="-10" type="curve" smooth="yes"/>
      <point x="402" y="-10"/>
      <point x="479" y="-2"/>
      <point x="548" y="33" type="curve"/>
      <point x="587" y="6"/>
      <point x="649" y="-10"/>
      <point x="732" y="-10" type="curve" smooth="yes"/>
      <point x="952" y="-10"/>
      <point x="1026" y="68"/>
      <point x="1026" y="176" type="curve" smooth="yes"/>
      <point x="1026" y="292"/>
      <point x="941" y="331"/>
      <point x="815" y="360" type="curve" smooth="yes"/>
      <point x="707" y="386"/>
      <point x="656" y="402"/>
      <point x="656" y="462" type="curve" smooth="yes"/>
      <point x="656" y="499"/>
      <point x="677" y="541"/>
      <point x="760" y="541" type="curve" smooth="yes"/>
      <point x="845" y="541"/>
      <point x="872" y="502"/>
      <point x="872" y="377" type="curve"/>
      <point x="961" y="377"/>
      <point x="999" y="406"/>
      <point x="999" y="449" type="curve" smooth="yes"/>
      <point x="999" y="503"/>
      <point x="939" y="551"/>
      <point x="779" y="551" type="curve" smooth="yes"/>
      <point x="730" y="551"/>
      <point x="685" y="545"/>
      <point x="647" y="536" type="curve"/>
      <point x="338" y="536" type="line"/>
      <point x="338" y="662" type="line"/>
      <point x="328" y="662" type="line"/>
      <point x="293" y="618"/>
      <point x="252" y="586"/>
      <point x="200" y="565" type="curve" smooth="yes"/>
      <point x="153" y="545"/>
      <point x="94" y="536"/>
      <point x="25" y="536" type="curve"/>
      <point x="25" y="526" type="line"/>
      <point x="112" y="526" type="line"/>
      <point x="112" y="151" type="line" smooth="yes"/>
      <point x="112" y="33"/>
      <point x="193" y="-10"/>
    </contour>
    <contour>
      <point x="754" y="0" type="curve" smooth="yes"/>
      <point x="658" y="0"/>
      <point x="621" y="56"/>
      <point x="621" y="196" type="curve"/>
      <point x="553" y="196"/>
      <point x="498" y="172"/>
      <point x="498" y="116" type="curve" smooth="yes"/>
      <point x="498" y="86"/>
      <point x="513" y="60"/>
      <point x="541" y="37" type="curve"/>
      <point x="513" y="24"/>
      <point x="482" y="18"/>
      <point x="451" y="18" type="curve" smooth="yes"/>
      <point x="395" y="18"/>
      <point x="338" y="41"/>
      <point x="338" y="98" type="curve" smooth="yes"/>
      <point x="338" y="526" type="line"/>
      <point x="615" y="526" type="line"/>
      <point x="547" y="500"/>
      <point x="505" y="449"/>
      <point x="505" y="375" type="curve" smooth="yes"/>
      <point x="505" y="265"/>
      <point x="575" y="218"/>
      <point x="718" y="187" type="curve" smooth="yes"/>
      <point x="813" y="168"/>
      <point x="877" y="150"/>
      <point x="877" y="89" type="curve" smooth="yes"/>
      <point x="877" y="39"/>
      <point x="834" y="0"/>
    </contour>
  </outline>
</glyph>
<glyph name="uni02C2" format="2">
  <advance width="305"/>
  <unicode hex="02C2"/>
  <outline>
    <contour>
      <point x="260" y="526" type="curve"/>
      <point x="266" y="526" type="line"/>
      <point x="266" y="540" type="line"/>
      <point x="221" y="590"/>
      <point x="181" y="622"/>
      <point x="122" y="655" type="curve"/>
      <point x="181" y="688"/>
      <point x="221" y="721"/>
      <point x="266" y="771" type="curve"/>
      <point x="266" y="785" type="line"/>
      <point x="260" y="785" type="line"/>
      <point x="187" y="736"/>
      <point x="104" y="696"/>
      <point x="35" y="672" type="curve"/>
      <point x="35" y="637" type="line"/>
      <point x="104" y="613"/>
      <point x="187" y="575"/>
    </contour>
  </outline>
</glyph>
<glyph name="uni02DF" format="2">
  <advance width="264"/>
  <unicode hex="02DF"/>
  <outline>
    <contour>
      <point x="54" y="628" type="line"/>
      <point x="133" y="695" type="line"/>
      <point x="209" y="628" type="line"/>
      <point x="223" y="642" type="line"/>
      <point x="145" y="707" type="line"/>
      <point x="224" y="774" type="line"/>
      <point x="210" y="787" type="line"/>
      <point x="134" y="721" type="line"/>
      <point x="55" y="787" type="line"/>
      <point x="42" y="774" type="line"/>
      <point x="120" y="708" type="line"/>
      <point x="40" y="641" type="line"/>
    </contour>
  </outline>
</glyph>
<glyph name="uni02EF" format="2">
  <advance width="363"/>
  <unicode hex="02EF"/>
  <outline>
    <contour>
      <point x="161" y="-240" type="curve"/>
      <point x="199" y="-240" type="line"/>
      <point x="226" y="-177"/>
      <point x="269" y="-101"/>
      <point x="323" y="-34" type="curve"/>
      <point x="323" y="-28" type="line"/>
      <point x="307" y="-28" type="line"/>
      <point x="253" y="-69"/>
      <point x="217" y="-106"/>
      <point x="181" y="-160" type="curve"/>
      <point x="145" y="-106"/>
      <point x="110" y="-69"/>
      <point x="56" y="-28" type="curve"/>
      <point x="40" y="-28" type="line"/>
      <point x="40" y="-34" type="line"/>
      <point x="94" y="-101"/>
      <point x="135" y="-177"/>
    </contour>
  </outline>
</glyph>
<glyph name="uni02F0" format="2">
  <advance width="363"/>
  <unicode hex="02F0"/>
  <outline>
    <contour>
      <point x="40" y="-240" type="line"/>
      <point x="56" y="-240" type="line"/>
      <point x="110" y="-199"/>
      <point x="145" y="-162"/>
      <point x="181" y="-108" type="curve"/>
      <point x="217" y="-162"/>
      <point x="253" y="-199"/>
      <point x="307" y="-240" type="curve"/>
      <point x="323" y="-240" type="line"/>
      <point x="323" y="-234" type="line"/>
      <point x="269" y="-167"/>
      <point x="226" y="-91"/>
      <point x="199" y="-28" type="curve"/>
      <point x="161" y="-28" type="line"/>
      <point x="135" y="-91"/>
      <point x="94" y="-167"/>
      <point x="40" y="-234" type="curve"/>
    </contour>
  </outline>
</glyph>
<glyph name="uni02F7" format="2">
  <advance width="575"/>
  <unicode hex="02F7"/>
  <outline>
    <contour>
      <point x="399" y="-217" type="curve" smooth="yes"/>
      <point x="498" y="-217"/>
      <point x="538" y="-144"/>
      <point x="535" y="-45" type="curve"/>
      <point x="525" y="-45" type="line"/>
      <point x="532" y="-49"/>
      <point x="498" y="-104"/>
      <point x="429" y="-104" type="curve" smooth="yes"/>
      <point x="356" y="-104"/>
      <point x="270" y="-35"/>
      <point x="176" y="-35" type="curve" smooth="yes"/>
      <point x="79" y="-35"/>
      <point x="36" y="-108"/>
      <point x="40" y="-207" type="curve"/>
      <point x="50" y="-207" type="line"/>
      <point x="43" y="-203"/>
      <point x="75" y="-148"/>
      <point x="146" y="-148" type="curve" smooth="yes"/>
      <point x="222" y="-148"/>
      <point x="305" y="-217"/>
    </contour>
  </outline>
</glyph>
<glyph name="ringhalfleftbelowcomb" format="2">
  <unicode hex="031C"/>
  <anchor x="0" y="0" name="_bottom"/>
  <anchor x="0" y="-240" name="bottom"/>
  <outline>
    <contour>
      <point x="70" y="-240" type="curve"/>
      <point x="70" y="-230" type="line"/>
      <point x="-9" y="-230"/>
      <point x="-58" y="-192"/>
      <point x="-58" y="-131" type="curve" smooth="yes"/>
      <point x="-58" y="-70"/>
      <point x="-9" y="-32"/>
      <point x="70" y="-32" type="curve"/>
      <point x="70" y="-22" type="line"/>
      <point x="-16" y="-22"/>
      <point x="-70" y="-63"/>
      <point x="-70" y="-131" type="curve" smooth="yes"/>
      <point x="-70" y="-199"/>
      <point x="-16" y="-240"/>
    </contour>
  </outline>
</glyph>
<glyph name="fermatacomb" format="2">
  <unicode hex="0352"/>
  <anchor x="1" y="536" name="_top"/>
  <anchor x="1" y="885" name="top"/>
  <outline>
    <contour>
      <point x="-215" y="724" type="curve"/>
      <point x="-205" y="724" type="line"/>
      <point x="-183" y="762"/>
      <point x="-143" y="786"/>
      <point x="0" y="786" type="curve" smooth="yes"/>
      <point x="141" y="786"/>
      <point x="181" y="762"/>
      <point x="204" y="724" type="curve"/>
      <point x="214" y="724" type="line"/>
      <point x="191" y="841"/>
      <point x="113" y="885"/>
      <point x="0" y="885" type="curve" smooth="yes"/>
      <point x="-113" y="885"/>
      <point x="-193" y="841"/>
    </contour>
    <contour>
      <point x="0" y="564" type="curve" smooth="yes"/>
      <point x="50" y="564"/>
      <point x="92" y="587"/>
      <point x="92" y="642" type="curve" smooth="yes"/>
      <point x="92" y="692"/>
      <point x="50" y="719"/>
      <point x="0" y="719" type="curve" smooth="yes"/>
      <point x="-57" y="719"/>
      <point x="-93" y="692"/>
      <point x="-93" y="642" type="curve" smooth="yes"/>
      <point x="-93" y="587"/>
      <point x="-57" y="564"/>
    </contour>
  </outline>
</glyph>
<glyph name="xbelowcomb" format="2">
  <unicode hex="0353"/>
  <anchor x="0" y="0" name="_bottom"/>
  <anchor x="0" y="-240" name="bottom"/>
  <outline>
    <contour>
      <point x="-78" y="-232" type="line"/>
      <point x="-1" y="-160" type="line"/>
      <point x="78" y="-230" type="line"/>
      <point x="94" y="-215" type="line"/>
      <point x="14" y="-144" type="line"/>
      <point x="92" y="-73" type="line"/>
      <point x="79" y="-59" type="line"/>
      <point x="-1" y="-131" type="line"/>
      <point x="-81" y="-61" type="line"/>
      <point x="-94" y="-75" type="line"/>
      <point x="-16" y="-146" type="line"/>
      <point x="-92" y="-215" type="line"/>
    </contour>
  </outline>
</glyph>
<glyph name="uni0375" format="2">
  <advance width="344"/>
  <unicode hex="0375"/>
  <outline>
    <contour>
      <point x="72" y="-240" type="line"/>
      <point x="222" y="-240" type="line"/>
      <point x="227" y="-192"/>
      <point x="251" y="-83"/>
      <point x="271" y="-23" type="curve"/>
      <point x="271" y="-6" type="line"/>
      <point x="256" y="-6" type="line"/>
      <point x="202" y="-64"/>
      <point x="113" y="-172"/>
      <point x="72" y="-227" type="curve"/>
    </contour>
  </outline>
</glyph>
<glyph name="gamma" format="2">
  <advance width="720"/>
  <unicode hex="03B3"/>
  <anchor x="360" y="-240" name="bottom"/>
  <anchor x="360" y="536" name="top"/>
  <anchor x="700" y="536" name="topright"/>
  <outline>
    <contour>
      <point x="293" y="-240" type="curve" smooth="yes"/>
      <point x="373" y="-240"/>
      <point x="460" y="-199"/>
      <point x="460" y="-43" type="curve" smooth="yes"/>
      <point x="460" y="-38"/>
      <point x="462" y="-2"/>
      <point x="455" y="58" type="curve"/>
      <point x="595" y="175"/>
      <point x="677" y="228"/>
      <point x="677" y="402" type="curve" smooth="yes"/>
      <point x="677" y="489"/>
      <point x="655" y="546"/>
      <point x="576" y="546" type="curve" smooth="yes"/>
      <point x="499" y="546"/>
      <point x="484" y="490"/>
      <point x="484" y="442" type="curve"/>
      <point x="570" y="447"/>
      <point x="580" y="400"/>
      <point x="580" y="349" type="curve" smooth="yes"/>
      <point x="580" y="279"/>
      <point x="536" y="181"/>
      <point x="452" y="79" type="curve"/>
      <point x="380" y="292"/>
      <point x="328" y="554"/>
      <point x="171" y="554" type="curve" smooth="yes"/>
      <point x="137" y="554"/>
      <point x="24" y="523"/>
      <point x="-17" y="500" type="curve"/>
      <point x="-12" y="491" type="line"/>
      <point x="3" y="498"/>
      <point x="19" y="504"/>
      <point x="35" y="504" type="curve" smooth="yes"/>
      <point x="107" y="504"/>
      <point x="187" y="269"/>
      <point x="267" y="12" type="curve"/>
      <point x="232" y="-39"/>
      <point x="195" y="-121"/>
      <point x="195" y="-163" type="curve" smooth="yes"/>
      <point x="195" y="-210"/>
      <point x="225" y="-240"/>
    </contour>
  </outline>
</glyph>
<glyph name="eta" format="2">
  <advance width="810"/>
  <unicode hex="03B7"/>
  <anchor x="406" y="-240" name="bottom"/>
  <anchor x="406" y="536" name="top"/>
  <outline>
    <contour>
      <point x="526" y="-240" type="curve"/>
      <point x="731" y="-240" type="line"/>
      <point x="718" y="-215"/>
      <point x="706" y="-142"/>
      <point x="706" y="-67" type="curve" smooth="yes"/>
      <point x="706" y="354" type="line" smooth="yes"/>
      <point x="706" y="493"/>
      <point x="640" y="552"/>
      <point x="500" y="552" type="curve" smooth="yes"/>
      <point x="403" y="552"/>
      <point x="344" y="508"/>
      <point x="329" y="447" type="curve"/>
      <point x="326" y="447" type="line"/>
      <point x="315" y="472"/>
      <point x="298" y="508"/>
      <point x="273" y="536" type="curve"/>
      <point x="69" y="536" type="line"/>
      <point x="86" y="505"/>
      <point x="104" y="452"/>
      <point x="104" y="351" type="curve" smooth="yes"/>
      <point x="104" y="0" type="line"/>
      <point x="331" y="0" type="line"/>
      <point x="331" y="343" type="line" smooth="yes"/>
      <point x="331" y="454"/>
      <point x="349" y="510"/>
      <point x="409" y="510" type="curve" smooth="yes"/>
      <point x="463" y="510"/>
      <point x="480" y="476"/>
      <point x="480" y="390" type="curve" smooth="yes"/>
      <point x="480" y="-69" type="line" smooth="yes"/>
      <point x="480" y="-140"/>
      <point x="498" y="-219"/>
    </contour>
  </outline>
</glyph>
<glyph name="lambda" format="2">
  <advance width="695"/>
  <unicode hex="03BB"/>
  <anchor x="347" y="0" name="bottom"/>
  <anchor x="347" y="770" name="top"/>
  <outline>
    <contour>
      <point x="-7" y="0" type="line"/>
      <point x="229" y="0" type="line"/>
      <point x="419" y="293" type="line" smooth="yes"/>
      <point x="437" y="320"/>
      <point x="450" y="340"/>
      <point x="464" y="367" type="curve"/>
      <point x="466" y="367" type="line"/>
      <point x="496" y="288"/>
      <point x="520" y="218"/>
      <point x="530" y="192" type="curve" smooth="yes"/>
      <point x="585" y="46"/>
      <point x="616" y="0"/>
      <point x="689" y="0" type="curve" smooth="yes"/>
      <point x="692" y="0" type="line"/>
      <point x="692" y="42" type="line"/>
      <point x="683" y="42" type="line" smooth="yes"/>
      <point x="620" y="42"/>
      <point x="576" y="85"/>
      <point x="537" y="197" type="curve" smooth="yes"/>
      <point x="400" y="586" type="line" smooth="yes"/>
      <point x="352" y="722"/>
      <point x="300" y="770"/>
      <point x="202" y="770" type="curve" smooth="yes"/>
      <point x="146" y="770"/>
      <point x="90" y="736"/>
      <point x="90" y="688" type="curve" smooth="yes"/>
      <point x="90" y="653"/>
      <point x="105" y="634"/>
      <point x="133" y="616" type="curve"/>
      <point x="149" y="651"/>
      <point x="176" y="665"/>
      <point x="222" y="665" type="curve" smooth="yes"/>
      <point x="306" y="665"/>
      <point x="353" y="636"/>
      <point x="393" y="570" type="curve"/>
    </contour>
  </outline>
</glyph>
<glyph name="psi" format="2">
  <advance width="859"/>
  <unicode hex="03C8"/>
  <anchor x="429" y="-240" name="bottom"/>
  <anchor x="429" y="760" name="top"/>
  <outline>
    <contour>
      <point x="463" y="-240" type="line"/>
      <point x="533" y="-240" type="line"/>
      <point x="533" y="-5" type="line"/>
      <point x="730" y="28"/>
      <point x="808" y="143"/>
      <point x="808" y="337" type="curve" smooth="yes"/>
      <point x="808" y="506"/>
      <point x="746" y="545"/>
      <point x="683" y="545" type="curve" smooth="yes"/>
      <point x="625" y="545"/>
      <point x="601" y="509"/>
      <point x="601" y="459" type="curve"/>
      <point x="701" y="459"/>
      <point x="720" y="378"/>
      <point x="720" y="278" type="curve" smooth="yes"/>
      <point x="720" y="134"/>
      <point x="679" y="41"/>
      <point x="533" y="6" type="curve"/>
      <point x="533" y="760" type="line"/>
      <point x="463" y="760" type="line"/>
      <point x="463" y="13" type="line"/>
      <point x="357" y="16"/>
      <point x="320" y="109"/>
      <point x="320" y="221" type="curve" smooth="yes"/>
      <point x="320" y="536" type="line"/>
      <point x="33" y="536" type="line"/>
      <point x="33" y="526" type="line"/>
      <point x="38" y="527" type="line" smooth="yes"/>
      <point x="92" y="528"/>
      <point x="96" y="506"/>
      <point x="96" y="474" type="curve" smooth="yes"/>
      <point x="96" y="272" type="line" smooth="yes"/>
      <point x="96" y="73"/>
      <point x="233" y="-11"/>
      <point x="463" y="-10" type="curve"/>
    </contour>
  </outline>
</glyph>
<glyph name="uni03D6" format="2">
  <advance width="1188"/>
  <unicode hex="03D6"/>
  <outline>
    <contour>
      <point x="394" y="-10" type="curve" smooth="yes"/>
      <point x="527" y="-10"/>
      <point x="550" y="27"/>
      <point x="600" y="100" type="curve"/>
      <point x="645" y="29"/>
      <point x="671" y="-10"/>
      <point x="810" y="-10" type="curve" smooth="yes"/>
      <point x="942" y="-10"/>
      <point x="1032" y="81"/>
      <point x="1032" y="161" type="curve" smooth="yes"/>
      <point x="1032" y="247"/>
      <point x="967" y="317"/>
      <point x="876" y="369" type="curve"/>
      <point x="971" y="369" type="line" smooth="yes"/>
      <point x="1068" y="369"/>
      <point x="1165" y="415"/>
      <point x="1165" y="597" type="curve"/>
      <point x="1155" y="597" type="line"/>
      <point x="1157" y="568"/>
      <point x="1123" y="536"/>
      <point x="1057" y="536" type="curve" smooth="yes"/>
      <point x="244" y="536" type="line" smooth="yes"/>
      <point x="147" y="536"/>
      <point x="22" y="520"/>
      <point x="22" y="308" type="curve"/>
      <point x="32" y="308" type="line"/>
      <point x="30" y="337"/>
      <point x="68" y="369"/>
      <point x="134" y="369" type="curve" smooth="yes"/>
      <point x="300" y="369" type="line"/>
      <point x="230" y="337"/>
      <point x="169" y="268"/>
      <point x="169" y="161" type="curve" smooth="yes"/>
      <point x="169" y="81"/>
      <point x="257" y="-10"/>
    </contour>
    <contour>
      <point x="460" y="-2" type="curve" smooth="yes"/>
      <point x="428" y="-2"/>
      <point x="377" y="8"/>
      <point x="377" y="208" type="curve" smooth="yes"/>
      <point x="377" y="309"/>
      <point x="394" y="354"/>
      <point x="406" y="369" type="curve"/>
      <point x="795" y="369" type="line"/>
      <point x="807" y="354"/>
      <point x="824" y="292"/>
      <point x="824" y="212" type="curve" smooth="yes"/>
      <point x="824" y="8"/>
      <point x="769" y="-2"/>
      <point x="737" y="-2" type="curve" smooth="yes"/>
      <point x="724" y="-2"/>
      <point x="663" y="0"/>
      <point x="651" y="164" type="curve"/>
      <point x="669" y="217"/>
      <point x="685" y="251"/>
      <point x="685" y="288" type="curve" smooth="yes"/>
      <point x="685" y="328"/>
      <point x="667" y="382"/>
      <point x="601" y="382" type="curve" smooth="yes"/>
      <point x="534" y="382"/>
      <point x="518" y="328"/>
      <point x="518" y="287" type="curve" smooth="yes"/>
      <point x="518" y="251"/>
      <point x="532" y="217"/>
      <point x="551" y="165" type="curve"/>
      <point x="538" y="-3"/>
      <point x="473" y="-2"/>
    </contour>
  </outline>
</glyph>
<glyph name="uni03DB" format="2">
  <advance width="697"/>
  <unicode hex="03DB"/>
  <anchor x="349" y="-207" name="bottom"/>
  <anchor x="349" y="536" name="top"/>
  <outline>
    <contour>
      <point x="335" y="-208" type="curve" smooth="yes"/>
      <point x="445" y="-208"/>
      <point x="608" y="-147"/>
      <point x="608" y="6" type="curve" smooth="yes"/>
      <point x="608" y="114"/>
      <point x="525" y="132"/>
      <point x="446" y="153" type="curve" smooth="yes"/>
      <point x="304" y="190"/>
      <point x="274" y="222"/>
      <point x="274" y="358" type="curve" smooth="yes"/>
      <point x="274" y="418"/>
      <point x="278" y="576"/>
      <point x="369" y="576" type="curve" smooth="yes"/>
      <point x="465" y="576"/>
      <point x="446" y="397"/>
      <point x="569" y="397" type="curve" smooth="yes"/>
      <point x="641" y="397"/>
      <point x="685" y="458"/>
      <point x="687" y="596" type="curve"/>
      <point x="672" y="596" type="line"/>
      <point x="659" y="584"/>
      <point x="623" y="576"/>
      <point x="549" y="576" type="curve" smooth="yes"/>
      <point x="476" y="576"/>
      <point x="437" y="586"/>
      <point x="377" y="586" type="curve" smooth="yes"/>
      <point x="173" y="586"/>
      <point x="48" y="468"/>
      <point x="48" y="280" type="curve" smooth="yes"/>
      <point x="48" y="29"/>
      <point x="239" y="6"/>
      <point x="418" y="-11" type="curve" smooth="yes"/>
      <point x="518" y="-20"/>
      <point x="565" y="-27"/>
      <point x="565" y="-73" type="curve" smooth="yes"/>
      <point x="565" y="-127"/>
      <point x="493" y="-128"/>
      <point x="222" y="-128" type="curve"/>
      <point x="222" y="-169"/>
      <point x="245" y="-208"/>
    </contour>
  </outline>
</glyph>
<glyph name="uni03DD" format="2">
  <advance width="662"/>
  <unicode hex="03DD"/>
  <anchor x="331" y="-240" name="bottom"/>
  <anchor x="331" y="536" name="top"/>
  <outline>
    <contour>
      <point x="106" y="-240" type="line"/>
      <point x="333" y="-240" type="line"/>
      <point x="333" y="190" type="line"/>
      <point x="367" y="190" type="line" smooth="yes"/>
      <point x="499" y="190"/>
      <point x="544" y="149"/>
      <point x="556" y="21" type="curve"/>
      <point x="566" y="21" type="line"/>
      <point x="559" y="200" type="line"/>
      <point x="333" y="200" type="line"/>
      <point x="333" y="526" type="line"/>
      <point x="429" y="526" type="line" smooth="yes"/>
      <point x="548" y="526"/>
      <point x="590" y="485"/>
      <point x="607" y="356" type="curve" smooth="yes"/>
      <point x="612" y="322" type="line"/>
      <point x="622" y="322" type="line"/>
      <point x="614" y="536" type="line"/>
      <point x="28" y="536" type="line"/>
      <point x="28" y="526" type="line"/>
      <point x="76" y="526" type="line" smooth="yes"/>
      <point x="81" y="526"/>
      <point x="106" y="511"/>
      <point x="106" y="487" type="curve" smooth="yes"/>
    </contour>
  </outline>
</glyph>
<glyph name="afii10029" format="2">
  <advance width="869"/>
  <unicode hex="041B"/>
  <anchor x="435" y="0" name="bottom"/>
  <anchor x="435" y="714" name="top"/>
  <outline>
    <contour>
      <point x="112" y="-7" type="curve" smooth="yes"/>
      <point x="176" y="-7"/>
      <point x="219" y="18"/>
      <point x="257" y="122" type="curve" smooth="yes"/>
      <point x="312" y="285"/>
      <point x="337" y="552"/>
      <point x="345" y="704" type="curve"/>
      <point x="505" y="704" type="line"/>
      <point x="505" y="65" type="line" smooth="yes"/>
      <point x="505" y="16"/>
      <point x="503" y="10"/>
      <point x="460" y="10" type="curve" smooth="yes"/>
      <point x="409" y="10" type="line"/>
      <point x="409" y="0" type="line"/>
      <point x="838" y="0" type="line"/>
      <point x="838" y="10" type="line"/>
      <point x="783" y="10" type="line" smooth="yes"/>
      <point x="746" y="10"/>
      <point x="738" y="14"/>
      <point x="738" y="47" type="curve" smooth="yes"/>
      <point x="738" y="649" type="line" smooth="yes"/>
      <point x="738" y="698"/>
      <point x="742" y="704"/>
      <point x="783" y="704" type="curve" smooth="yes"/>
      <point x="844" y="704" type="line"/>
      <point x="844" y="714" type="line"/>
      <point x="178" y="714" type="line"/>
      <point x="178" y="704" type="line"/>
      <point x="235" y="704" type="line" smooth="yes"/>
      <point x="248" y="704"/>
      <point x="332" y="720"/>
      <point x="332" y="677" type="curve" smooth="yes"/>
      <point x="332" y="655"/>
      <point x="310" y="313"/>
      <point x="259" y="170" type="curve" smooth="yes"/>
      <point x="236" y="147"/>
      <point x="201" y="104"/>
      <point x="142" y="104" type="curve" smooth="yes"/>
      <point x="107" y="104"/>
      <point x="76" y="119"/>
      <point x="62" y="147" type="curve"/>
      <point x="21" y="150"/>
      <point x="-1" y="122"/>
      <point x="-1" y="80" type="curve" smooth="yes"/>
      <point x="-1" y="22"/>
      <point x="42" y="-7"/>
    </contour>
  </outline>
</glyph>
<glyph name="afii10076" format="2">
  <advance width="772"/>
  <unicode hex="043A"/>
  <anchor x="386" y="0" name="bottom"/>
  <anchor x="386" y="536" name="top"/>
  <outline>
    <contour>
      <point x="19" y="0" type="line"/>
      <point x="393" y="0" type="line"/>
      <point x="393" y="10" type="line"/>
      <point x="371" y="10" type="line" smooth="yes"/>
      <point x="336" y="10"/>
      <point x="327" y="30"/>
      <point x="327" y="73" type="curve" smooth="yes"/>
      <point x="327" y="270" type="line"/>
      <point x="347" y="268"/>
      <point x="372" y="265"/>
      <point x="398" y="193" type="curve" smooth="yes"/>
      <point x="431" y="102" type="line" smooth="yes"/>
      <point x="469" y="-1"/>
      <point x="566" y="0"/>
      <point x="694" y="0" type="curve" smooth="yes"/>
      <point x="780" y="0" type="line"/>
      <point x="780" y="10" type="line"/>
      <point x="779" y="10" type="line" smooth="yes"/>
      <point x="728" y="10"/>
      <point x="691" y="54"/>
      <point x="658" y="122" type="curve" smooth="yes"/>
      <point x="612" y="216" type="line" smooth="yes"/>
      <point x="569" y="302"/>
      <point x="491" y="303"/>
      <point x="432" y="303" type="curve"/>
      <point x="468" y="322"/>
      <point x="492" y="366"/>
      <point x="514" y="400" type="curve" smooth="yes"/>
      <point x="533" y="426"/>
      <point x="572" y="441"/>
      <point x="609" y="441" type="curve" smooth="yes"/>
      <point x="653" y="441"/>
      <point x="678" y="420"/>
      <point x="682" y="388" type="curve"/>
      <point x="731" y="389"/>
      <point x="761" y="424"/>
      <point x="761" y="456" type="curve" smooth="yes"/>
      <point x="761" y="498"/>
      <point x="725" y="542"/>
      <point x="653" y="542" type="curve" smooth="yes"/>
      <point x="598" y="542"/>
      <point x="556" y="515"/>
      <point x="511" y="418" type="curve" smooth="yes"/>
      <point x="487" y="367"/>
      <point x="466" y="339"/>
      <point x="440" y="320" type="curve" smooth="yes"/>
      <point x="409" y="293"/>
      <point x="374" y="284"/>
      <point x="327" y="280" type="curve"/>
      <point x="327" y="457" type="line" smooth="yes"/>
      <point x="327" y="514"/>
      <point x="342" y="526"/>
      <point x="371" y="526" type="curve" smooth="yes"/>
      <point x="393" y="526" type="line"/>
      <point x="393" y="536" type="line"/>
      <point x="19" y="536" type="line"/>
      <point x="19" y="526" type="line"/>
      <point x="53" y="526" type="line" smooth="yes"/>
      <point x="80" y="526"/>
      <point x="101" y="512"/>
      <point x="101" y="465" type="curve" smooth="yes"/>
      <point x="101" y="77" type="line" smooth="yes"/>
      <point x="101" y="20"/>
      <point x="76" y="10"/>
      <point x="45" y="10" type="curve" smooth="yes"/>
      <point x="19" y="10" type="line"/>
    </contour>
  </outline>
</glyph>
<glyph name="afii10092" format="2">
  <advance width="835"/>
  <unicode hex="044A"/>
  <anchor x="417" y="0" name="bottom"/>
  <anchor x="417" y="536" name="top"/>
  <outline>
    <contour>
      <point x="132" y="0" type="line"/>
      <point x="546" y="0" type="line" smooth="yes"/>
      <point x="734" y="0"/>
      <point x="823" y="73"/>
      <point x="823" y="161" type="curve" smooth="yes"/>
      <point x="823" y="289"/>
      <point x="700" y="313"/>
      <point x="556" y="313" type="curve" smooth="yes"/>
      <point x="445" y="313" type="line"/>
      <point x="445" y="464" type="line" smooth="yes"/>
      <point x="445" y="496"/>
      <point x="467" y="526"/>
      <point x="530" y="526" type="curve" smooth="yes"/>
      <point x="545" y="526" type="line"/>
      <point x="545" y="536" type="line"/>
      <point x="18" y="536" type="line"/>
      <point x="11" y="329" type="line"/>
      <point x="21" y="329" type="line"/>
      <point x="26" y="356" type="line" smooth="yes"/>
      <point x="42" y="484"/>
      <point x="85" y="526"/>
      <point x="206" y="526" type="curve" smooth="yes"/>
      <point x="219" y="526" type="line"/>
      <point x="219" y="71" type="line" smooth="yes"/>
      <point x="219" y="35"/>
      <point x="205" y="10"/>
      <point x="144" y="10" type="curve" smooth="yes"/>
      <point x="132" y="10" type="line"/>
    </contour>
    <contour>
      <point x="443" y="10" type="line"/>
      <point x="443" y="303" type="line"/>
      <point x="482" y="303" type="line" smooth="yes"/>
      <point x="570" y="303"/>
      <point x="590" y="263"/>
      <point x="590" y="166" type="curve" smooth="yes"/>
      <point x="590" y="52"/>
      <point x="566" y="10"/>
      <point x="485" y="10" type="curve" smooth="yes"/>
    </contour>
  </outline>
</glyph>
<glyph name="afii10094" format="2">
  <advance width="716"/>
  <unicode hex="044C"/>
  <anchor x="358" y="0" name="bottom"/>
  <anchor x="358" y="536" name="top"/>
  <outline>
    <contour>
      <point x="15" y="0" type="line"/>
      <point x="429" y="0" type="line" smooth="yes"/>
      <point x="617" y="0"/>
      <point x="706" y="73"/>
      <point x="706" y="161" type="curve" smooth="yes"/>
      <point x="706" y="289"/>
      <point x="583" y="313"/>
      <point x="439" y="313" type="curve" smooth="yes"/>
      <point x="328" y="313" type="line"/>
      <point x="328" y="464" type="line" smooth="yes"/>
      <point x="328" y="496"/>
      <point x="350" y="526"/>
      <point x="413" y="526" type="curve" smooth="yes"/>
      <point x="428" y="526" type="line"/>
      <point x="428" y="536" type="line"/>
      <point x="15" y="536" type="line"/>
      <point x="15" y="526" type="line"/>
      <point x="27" y="526" type="line" smooth="yes"/>
      <point x="84" y="526"/>
      <point x="102" y="495"/>
      <point x="102" y="452" type="curve" smooth="yes"/>
      <point x="102" y="71" type="line" smooth="yes"/>
      <point x="102" y="35"/>
      <point x="88" y="10"/>
      <point x="27" y="10" type="curve" smooth="yes"/>
      <point x="15" y="10" type="line"/>
    </contour>
    <contour>
      <point x="328" y="10" type="line"/>
      <point x="328" y="303" type="line"/>
      <point x="365" y="303" type="line" smooth="yes"/>
      <point x="453" y="303"/>
      <point x="473" y="263"/>
      <point x="473" y="166" type="curve" smooth="yes"/>
      <point x="473" y="52"/>
      <point x="449" y="10"/>
      <point x="368" y="10" type="curve" smooth="yes"/>
    </contour>
  </outline>
</glyph>
<glyph name="afii10097" format="2">
  <advance width="764"/>
  <unicode hex="044F"/>
  <anchor x="383" y="0" name="bottom"/>
  <anchor x="383" y="536" name="top"/>
  <outline>
    <contour>
      <point x="-7" y="0" type="line"/>
      <point x="240" y="0"/>
      <point x="294" y="35"/>
      <point x="322" y="103" type="curve" smooth="yes"/>
      <point x="387" y="262" type="line"/>
      <point x="427" y="262" type="line"/>
      <point x="427" y="77" type="line" smooth="yes"/>
      <point x="427" y="30"/>
      <point x="405" y="10"/>
      <point x="365" y="10" type="curve" smooth="yes"/>
      <point x="352" y="10" type="line"/>
      <point x="352" y="0" type="line"/>
      <point x="742" y="0" type="line"/>
      <point x="742" y="10" type="line"/>
      <point x="725" y="10" type="line" smooth="yes"/>
      <point x="677" y="10"/>
      <point x="654" y="30"/>
      <point x="654" y="77" type="curve" smooth="yes"/>
      <point x="654" y="461" type="line" smooth="yes"/>
      <point x="654" y="507"/>
      <point x="671" y="526"/>
      <point x="728" y="526" type="curve" smooth="yes"/>
      <point x="742" y="526" type="line"/>
      <point x="742" y="536" type="line"/>
      <point x="335" y="536" type="line" smooth="yes"/>
      <point x="135" y="536"/>
      <point x="63" y="472"/>
      <point x="63" y="383" type="curve" smooth="yes"/>
      <point x="63" y="299"/>
      <point x="132" y="262"/>
      <point x="195" y="248" type="curve"/>
      <point x="53" y="24" type="line" smooth="yes"/>
      <point x="40" y="17"/>
      <point x="19" y="10"/>
      <point x="-3" y="10" type="curve" smooth="yes"/>
      <point x="-7" y="10" type="line"/>
    </contour>
    <contour>
      <point x="395" y="272" type="line" smooth="yes"/>
      <point x="327" y="272"/>
      <point x="295" y="314"/>
      <point x="295" y="394" type="curve" smooth="yes"/>
      <point x="295" y="487"/>
      <point x="327" y="526"/>
      <point x="395" y="526" type="curve" smooth="yes"/>
      <point x="427" y="526" type="line"/>
      <point x="427" y="272" type="line"/>
    </contour>
  </outline>
</glyph>
<glyph name="afii10099" format="2">
  <advance width="793"/>
  <unicode hex="0452"/>
  <anchor x="396" y="-240" name="bottom"/>
  <anchor x="396" y="760" name="top"/>
  <outline>
    <contour>
      <point x="358" y="-240" type="line"/>
      <point x="383" y="-240" type="line" smooth="yes"/>
      <point x="569" y="-240"/>
      <point x="703" y="-187"/>
      <point x="703" y="-10" type="curve" smooth="yes"/>
      <point x="703" y="318" type="line" smooth="yes"/>
      <point x="703" y="451"/>
      <point x="639" y="507"/>
      <point x="514" y="507" type="curve" smooth="yes"/>
      <point x="411" y="507"/>
      <point x="355" y="467"/>
      <point x="336" y="376" type="curve"/>
      <point x="334" y="376" type="line"/>
      <point x="336" y="441"/>
      <point x="336" y="488"/>
      <point x="336" y="553" type="curve" smooth="yes"/>
      <point x="336" y="586" type="line"/>
      <point x="504" y="586" type="line"/>
      <point x="504" y="596" type="line"/>
      <point x="336" y="596" type="line"/>
      <point x="336" y="760" type="line"/>
      <point x="19" y="760" type="line"/>
      <point x="19" y="750" type="line"/>
      <point x="35" y="750" type="line" smooth="yes"/>
      <point x="83" y="750"/>
      <point x="110" y="747"/>
      <point x="110" y="688" type="curve" smooth="yes"/>
      <point x="110" y="596" type="line"/>
      <point x="12" y="596" type="line"/>
      <point x="12" y="586" type="line"/>
      <point x="110" y="586" type="line"/>
      <point x="110" y="76" type="line" smooth="yes"/>
      <point x="110" y="12"/>
      <point x="76" y="10"/>
      <point x="29" y="10" type="curve" smooth="yes"/>
      <point x="24" y="10" type="line"/>
      <point x="24" y="0" type="line"/>
      <point x="415" y="0" type="line"/>
      <point x="415" y="10" type="line"/>
      <point x="410" y="10" type="line" smooth="yes"/>
      <point x="362" y="10"/>
      <point x="337" y="14"/>
      <point x="337" y="73" type="curve" smooth="yes"/>
      <point x="337" y="287" type="line" smooth="yes"/>
      <point x="337" y="340"/>
      <point x="344" y="447"/>
      <point x="409" y="447" type="curve" smooth="yes"/>
      <point x="465" y="447"/>
      <point x="477" y="401"/>
      <point x="477" y="334" type="curve" smooth="yes"/>
      <point x="477" y="-59" type="line" smooth="yes"/>
      <point x="477" y="-189"/>
      <point x="437" y="-230"/>
      <point x="365" y="-230" type="curve" smooth="yes"/>
      <point x="358" y="-230" type="line"/>
    </contour>
  </outline>
</glyph>
<glyph name="afii10107" format="2">
  <advance width="1087"/>
  <unicode hex="045A"/>
  <anchor x="543" y="0" name="bottom"/>
  <anchor x="543" y="536" name="top"/>
  <outline>
    <contour>
      <point x="18" y="0" type="line"/>
      <point x="389" y="0" type="line"/>
      <point x="389" y="10" type="line"/>
      <point x="385" y="10" type="line" smooth="yes"/>
      <point x="346" y="10"/>
      <point x="329" y="24"/>
      <point x="329" y="73" type="curve" smooth="yes"/>
      <point x="329" y="272" type="line"/>
      <point x="482" y="272" type="line"/>
      <point x="482" y="73" type="line" smooth="yes"/>
      <point x="482" y="24"/>
      <point x="467" y="10"/>
      <point x="427" y="10" type="curve" smooth="yes"/>
      <point x="422" y="10" type="line"/>
      <point x="422" y="0" type="line"/>
      <point x="808" y="0" type="line" smooth="yes"/>
      <point x="996" y="0"/>
      <point x="1085" y="73"/>
      <point x="1085" y="161" type="curve" smooth="yes"/>
      <point x="1085" y="289"/>
      <point x="962" y="313"/>
      <point x="818" y="313" type="curve" smooth="yes"/>
      <point x="707" y="313" type="line"/>
      <point x="707" y="464" type="line" smooth="yes"/>
      <point x="707" y="496"/>
      <point x="729" y="526"/>
      <point x="792" y="526" type="curve" smooth="yes"/>
      <point x="807" y="526" type="line"/>
      <point x="807" y="536" type="line"/>
      <point x="422" y="536" type="line"/>
      <point x="422" y="526" type="line"/>
      <point x="427" y="526" type="line" smooth="yes"/>
      <point x="467" y="526"/>
      <point x="482" y="511"/>
      <point x="482" y="464" type="curve" smooth="yes"/>
      <point x="482" y="282" type="line"/>
      <point x="329" y="282" type="line"/>
      <point x="329" y="463" type="line" smooth="yes"/>
      <point x="329" y="509"/>
      <point x="344" y="526"/>
      <point x="383" y="526" type="curve" smooth="yes"/>
      <point x="389" y="526" type="line"/>
      <point x="389" y="536" type="line"/>
      <point x="18" y="536" type="line"/>
      <point x="18" y="526" type="line"/>
      <point x="30" y="526" type="line" smooth="yes"/>
      <point x="75" y="526"/>
      <point x="102" y="511"/>
      <point x="102" y="464" type="curve" smooth="yes"/>
      <point x="102" y="73" type="line" smooth="yes"/>
      <point x="102" y="24"/>
      <point x="76" y="10"/>
      <point x="30" y="10" type="curve" smooth="yes"/>
      <point x="18" y="10" type="line"/>
    </contour>
    <contour>
      <point x="707" y="10" type="line"/>
      <point x="707" y="303" type="line"/>
      <point x="744" y="303" type="line" smooth="yes"/>
      <point x="832" y="303"/>
      <point x="852" y="263"/>
      <point x="852" y="166" type="curve" smooth="yes"/>
      <point x="852" y="52"/>
      <point x="828" y="10"/>
      <point x="747" y="10" type="curve" smooth="yes"/>
    </contour>
  </outline>
</glyph>
<glyph name="uni0461" format="2">
  <advance width="1044"/>
  <unicode hex="0461"/>
  <anchor x="522" y="0" name="bottom"/>
  <anchor x="522" y="536" name="top"/>
  <outline>
    <contour>
      <point x="290" y="0" type="curve"/>
      <point x="418" y="0" type="line"/>
      <point x="528" y="304" type="line"/>
      <point x="570" y="191"/>
      <point x="607" y="71"/>
      <point x="620" y="0" type="curve"/>
      <point x="789" y="0" type="line"/>
      <point x="997" y="305"/>
      <point x="1006" y="309"/>
      <point x="1006" y="418" type="curve" smooth="yes"/>
      <point x="1006" y="496"/>
      <point x="970" y="546"/>
      <point x="901" y="546" type="curve" smooth="yes"/>
      <point x="834" y="546"/>
      <point x="816" y="511"/>
      <point x="816" y="464" type="curve"/>
      <point x="877" y="453"/>
      <point x="890" y="384"/>
      <point x="890" y="328" type="curve" smooth="yes"/>
      <point x="890" y="236"/>
      <point x="853" y="119"/>
      <point x="798" y="27" type="curve"/>
      <point x="774" y="176"/>
      <point x="686" y="457"/>
      <point x="649" y="536" type="curve"/>
      <point x="419" y="536" type="line"/>
      <point x="448" y="485"/>
      <point x="486" y="405"/>
      <point x="523" y="319" type="curve"/>
      <point x="454" y="131" type="line"/>
      <point x="333" y="467"/>
      <point x="299" y="550"/>
      <point x="180" y="550" type="curve" smooth="yes"/>
      <point x="99" y="550"/>
      <point x="31" y="518"/>
      <point x="0" y="495" type="curve"/>
      <point x="6" y="488" type="line"/>
      <point x="8" y="488"/>
      <point x="26" y="495"/>
      <point x="36" y="495" type="curve" smooth="yes"/>
      <point x="64" y="495"/>
      <point x="114" y="545"/>
    </contour>
  </outline>
</glyph>
<glyph name="uni047B" format="2">
  <advance width="794"/>
  <unicode hex="047B"/>
  <outline>
    <contour>
      <point x="398" y="-57" type="curve" smooth="yes"/>
      <point x="440" y="-57"/>
      <point x="465" y="-32"/>
      <point x="477" y="-6" type="curve"/>
      <point x="654" y="16"/>
      <point x="746" y="109"/>
      <point x="746" y="272" type="curve" smooth="yes"/>
      <point x="746" y="435"/>
      <point x="644" y="526"/>
      <point x="477" y="548" type="curve"/>
      <point x="466" y="577"/>
      <point x="441" y="600"/>
      <point x="398" y="600" type="curve" smooth="yes"/>
      <point x="356" y="600"/>
      <point x="330" y="577"/>
      <point x="320" y="548" type="curve"/>
      <point x="142" y="529"/>
      <point x="50" y="438"/>
      <point x="50" y="272" type="curve" smooth="yes"/>
      <point x="50" y="106"/>
      <point x="153" y="15"/>
      <point x="320" y="-6" type="curve"/>
      <point x="333" y="-32"/>
      <point x="357" y="-57"/>
    </contour>
    <contour>
      <point x="313" y="37" type="curve"/>
      <point x="280" y="76"/>
      <point x="269" y="152"/>
      <point x="269" y="272" type="curve" smooth="yes"/>
      <point x="269" y="393"/>
      <point x="280" y="469"/>
      <point x="313" y="509" type="curve"/>
      <point x="314" y="463"/>
      <point x="343" y="418"/>
      <point x="398" y="418" type="curve" smooth="yes"/>
      <point x="454" y="418"/>
      <point x="482" y="462"/>
      <point x="484" y="505" type="curve"/>
      <point x="517" y="463"/>
      <point x="528" y="389"/>
      <point x="528" y="272" type="curve" smooth="yes"/>
      <point x="528" y="152"/>
      <point x="515" y="78"/>
      <point x="484" y="36" type="curve"/>
      <point x="484" y="83"/>
      <point x="456" y="125"/>
      <point x="398" y="125" type="curve" smooth="yes"/>
      <point x="342" y="125"/>
      <point x="314" y="82"/>
    </contour>
  </outline>
</glyph>
<glyph name="dasiapneumatacomb.cy" format="2">
  <unicode hex="0485"/>
  <anchor x="14" y="536" name="_top"/>
  <anchor x="14" y="834" name="top"/>
  <outline>
    <contour>
      <point x="125" y="621" type="curve"/>
      <point x="125" y="631" type="line"/>
      <point x="70" y="621"/>
      <point x="2" y="628"/>
      <point x="2" y="682" type="curve" smooth="yes"/>
      <point x="2" y="756"/>
      <point x="116" y="685"/>
      <point x="116" y="790" type="curve" smooth="yes"/>
      <point x="116" y="851"/>
      <point x="67" y="872"/>
      <point x="18" y="872" type="curve" smooth="yes"/>
      <point x="-55" y="872"/>
      <point x="-99" y="835"/>
      <point x="-99" y="755" type="curve" smooth="yes"/>
      <point x="-99" y="660"/>
      <point x="-14" y="609"/>
    </contour>
  </outline>
</glyph>
<glyph name="pokrytiecomb.cy" format="2">
  <unicode hex="0487"/>
  <anchor x="-1" y="536" name="_top"/>
  <outline>
    <contour>
      <point x="-214" y="760" type="curve"/>
      <point x="-203" y="760" type="line"/>
      <point x="-201" y="761" type="line" smooth="yes"/>
      <point x="-191" y="787"/>
      <point x="-167" y="832"/>
      <point x="-108" y="832" type="curve" smooth="yes"/>
      <point x="-23" y="832"/>
      <point x="-24" y="760"/>
      <point x="189" y="760" type="curve" smooth="yes"/>
      <point x="210" y="760" type="line"/>
      <point x="210" y="916" type="line"/>
      <point x="203" y="916" type="line" smooth="yes"/>
      <point x="99" y="916"/>
      <point x="27" y="968"/>
      <point x="-37" y="968" type="curve" smooth="yes"/>
      <point x="-117" y="968"/>
      <point x="-205" y="865"/>
    </contour>
  </outline>
</glyph>
<glyph name="uni048A" format="2">
  <advance width="1003"/>
  <unicode hex="048A"/>
  <anchor x="501" y="0" name="bottom"/>
  <anchor x="501" y="940" name="top"/>
  <outline>
    <contour>
      <point x="750" y="-210" type="line"/>
      <point x="888" y="-210" type="line"/>
      <point x="952" y="-6" type="line"/>
      <point x="954" y="10" type="line"/>
      <point x="941" y="10" type="line"/>
      <point x="941" y="0" type="line"/>
    </contour>
    <component base="afii10026"/>
    <component base="cyrillicbreve" xOffset="132" yOffset="165"/>
  </outline>
</glyph>
<glyph name="uni048E" format="2">
  <advance width="773"/>
  <unicode hex="048E"/>
  <anchor x="387" y="0" name="bottom"/>
  <anchor x="387" y="714" name="top"/>
  <outline>
    <contour>
      <point x="24" y="0" type="line"/>
      <point x="496" y="0" type="line"/>
      <point x="496" y="10" type="line"/>
      <point x="418" y="10" type="line" smooth="yes"/>
      <point x="397" y="10"/>
      <point x="364" y="8"/>
      <point x="364" y="62" type="curve" smooth="yes"/>
      <point x="364" y="267" type="line"/>
      <point x="390" y="267" type="line" smooth="yes"/>
      <point x="449" y="267"/>
      <point x="503" y="272"/>
      <point x="547" y="280" type="curve"/>
      <point x="611" y="200" type="line"/>
      <point x="619" y="206" type="line"/>
      <point x="557" y="283" type="line"/>
      <point x="710" y="313"/>
      <point x="769" y="394"/>
      <point x="769" y="499" type="curve" smooth="yes"/>
      <point x="769" y="644"/>
      <point x="658" y="714"/>
      <point x="416" y="714" type="curve" smooth="yes"/>
      <point x="24" y="714" type="line"/>
      <point x="24" y="704" type="line"/>
      <point x="77" y="704" type="line" smooth="yes"/>
      <point x="91" y="704"/>
      <point x="132" y="704"/>
      <point x="132" y="651" type="curve" smooth="yes"/>
      <point x="132" y="67" type="line" smooth="yes"/>
      <point x="132" y="9"/>
      <point x="94" y="10"/>
      <point x="71" y="10" type="curve" smooth="yes"/>
      <point x="24" y="10" type="line"/>
    </contour>
    <contour>
      <point x="362" y="277" type="line"/>
      <point x="362" y="704" type="line"/>
      <point x="395" y="704" type="line" smooth="yes"/>
      <point x="490" y="704"/>
      <point x="526" y="645"/>
      <point x="526" y="493" type="curve" smooth="yes"/>
      <point x="526" y="429"/>
      <point x="520" y="381"/>
      <point x="504" y="347" type="curve"/>
      <point x="438" y="427" type="line"/>
      <point x="431" y="421" type="line"/>
      <point x="500" y="338" type="line"/>
      <point x="476" y="295"/>
      <point x="437" y="277"/>
      <point x="379" y="277" type="curve" smooth="yes"/>
    </contour>
  </outline>
</glyph>
<glyph name="uni0497" format="2">
  <advance width="1180"/>
  <unicode hex="0497"/>
  <anchor x="578" y="0" name="bottom"/>
  <anchor x="578" y="536" name="top"/>
  <outline>
    <contour>
      <point x="1132" y="-190" type="line"/>
      <point x="1142" y="-190" type="line"/>
      <point x="1142" y="10" type="line"/>
      <point x="1090" y="10" type="line" smooth="yes"/>
      <point x="1056" y="10"/>
      <point x="1015" y="62"/>
      <point x="986" y="122" type="curve" smooth="yes"/>
      <point x="940" y="216" type="line" smooth="yes"/>
      <point x="897" y="302"/>
      <point x="819" y="303"/>
      <point x="760" y="303" type="curve"/>
      <point x="796" y="322"/>
      <point x="820" y="366"/>
      <point x="842" y="400" type="curve" smooth="yes"/>
      <point x="861" y="426"/>
      <point x="900" y="441"/>
      <point x="937" y="441" type="curve" smooth="yes"/>
      <point x="981" y="441"/>
      <point x="1006" y="420"/>
      <point x="1010" y="388" type="curve"/>
      <point x="1059" y="389"/>
      <point x="1089" y="424"/>
      <point x="1089" y="456" type="curve" smooth="yes"/>
      <point x="1089" y="498"/>
      <point x="1053" y="542"/>
      <point x="981" y="542" type="curve" smooth="yes"/>
      <point x="926" y="542"/>
      <point x="884" y="515"/>
      <point x="839" y="418" type="curve" smooth="yes"/>
      <point x="815" y="367"/>
      <point x="794" y="339"/>
      <point x="768" y="320" type="curve" smooth="yes"/>
      <point x="737" y="293"/>
      <point x="702" y="284"/>
      <point x="655" y="280" type="curve"/>
      <point x="655" y="457" type="line" smooth="yes"/>
      <point x="655" y="514"/>
      <point x="670" y="526"/>
      <point x="699" y="526" type="curve" smooth="yes"/>
      <point x="721" y="526" type="line"/>
      <point x="721" y="536" type="line"/>
      <point x="377" y="536" type="line"/>
      <point x="377" y="526" type="line"/>
      <point x="383" y="526" type="line" smooth="yes"/>
      <point x="420" y="526"/>
      <point x="443" y="512"/>
      <point x="443" y="465" type="curve" smooth="yes"/>
      <point x="443" y="280" type="line"/>
      <point x="396" y="284"/>
      <point x="361" y="293"/>
      <point x="330" y="320" type="curve" smooth="yes"/>
      <point x="304" y="339"/>
      <point x="283" y="367"/>
      <point x="259" y="418" type="curve" smooth="yes"/>
      <point x="214" y="515"/>
      <point x="172" y="542"/>
      <point x="117" y="542" type="curve" smooth="yes"/>
      <point x="45" y="542"/>
      <point x="9" y="498"/>
      <point x="9" y="456" type="curve" smooth="yes"/>
      <point x="9" y="424"/>
      <point x="39" y="389"/>
      <point x="88" y="388" type="curve"/>
      <point x="92" y="420"/>
      <point x="117" y="441"/>
      <point x="161" y="441" type="curve" smooth="yes"/>
      <point x="198" y="441"/>
      <point x="237" y="426"/>
      <point x="256" y="400" type="curve" smooth="yes"/>
      <point x="278" y="366"/>
      <point x="302" y="322"/>
      <point x="338" y="303" type="curve"/>
      <point x="279" y="303"/>
      <point x="201" y="302"/>
      <point x="158" y="216" type="curve" smooth="yes"/>
      <point x="112" y="122" type="line" smooth="yes"/>
      <point x="79" y="54"/>
      <point x="42" y="10"/>
      <point x="-9" y="10" type="curve" smooth="yes"/>
      <point x="-10" y="10" type="line"/>
      <point x="-10" y="0" type="line"/>
      <point x="76" y="0" type="line" smooth="yes"/>
      <point x="204" y="0"/>
      <point x="301" y="-1"/>
      <point x="339" y="102" type="curve" smooth="yes"/>
      <point x="372" y="195" type="line" smooth="yes"/>
      <point x="398" y="267"/>
      <point x="423" y="268"/>
      <point x="443" y="270" type="curve"/>
      <point x="443" y="77" type="line" smooth="yes"/>
      <point x="443" y="20"/>
      <point x="420" y="10"/>
      <point x="379" y="10" type="curve" smooth="yes"/>
      <point x="377" y="10" type="line"/>
      <point x="377" y="0" type="line"/>
      <point x="721" y="0" type="line"/>
      <point x="721" y="10" type="line"/>
      <point x="699" y="10" type="line" smooth="yes"/>
      <point x="664" y="10"/>
      <point x="655" y="30"/>
      <point x="655" y="73" type="curve" smooth="yes"/>
      <point x="655" y="270" type="line"/>
      <point x="675" y="268"/>
      <point x="700" y="267"/>
      <point x="726" y="195" type="curve" smooth="yes"/>
      <point x="759" y="104" type="line" smooth="yes"/>
      <point x="790" y="20"/>
      <point x="867" y="4"/>
      <point x="923" y="4" type="curve" smooth="yes"/>
      <point x="1074" y="-3"/>
      <point x="1127" y="-41"/>
      <point x="1131" y="-157" type="curve" smooth="yes"/>
    </contour>
  </outline>
</glyph>
<glyph name="uni04A0" format="2">
  <advance width="1048"/>
  <unicode hex="04A0"/>
  <anchor x="525" y="0" name="bottom"/>
  <anchor x="525" y="714" name="top"/>
  <outline>
    <contour>
      <point x="164" y="0" type="line"/>
      <point x="612" y="0" type="line"/>
      <point x="612" y="10" type="line"/>
      <point x="568" y="10" type="line" smooth="yes"/>
      <point x="523" y="10"/>
      <point x="503" y="16"/>
      <point x="503" y="65" type="curve" smooth="yes"/>
      <point x="503" y="355" type="line"/>
      <point x="549" y="355"/>
      <point x="581" y="314"/>
      <point x="604" y="269" type="curve" smooth="yes"/>
      <point x="686" y="105" type="line" smooth="yes"/>
      <point x="703" y="73"/>
      <point x="754" y="0"/>
      <point x="853" y="0" type="curve" smooth="yes"/>
      <point x="1048" y="0" type="line"/>
      <point x="1048" y="10" type="line"/>
      <point x="1049" y="10" type="line" smooth="yes"/>
      <point x="1026" y="10"/>
      <point x="968" y="43"/>
      <point x="900" y="177" type="curve" smooth="yes"/>
      <point x="840" y="295" type="line" smooth="yes"/>
      <point x="807" y="354"/>
      <point x="735" y="408"/>
      <point x="661" y="410" type="curve"/>
      <point x="680" y="444"/>
      <point x="724" y="483"/>
      <point x="777" y="565" type="curve" smooth="yes"/>
      <point x="801" y="591"/>
      <point x="816" y="622"/>
      <point x="872" y="622" type="curve" smooth="yes"/>
      <point x="911" y="622"/>
      <point x="948" y="611"/>
      <point x="961" y="575" type="curve"/>
      <point x="1002" y="585"/>
      <point x="1020" y="608"/>
      <point x="1020" y="645" type="curve" smooth="yes"/>
      <point x="1020" y="692"/>
      <point x="988" y="720"/>
      <point x="930" y="720" type="curve" smooth="yes"/>
      <point x="887" y="720"/>
      <point x="862" y="715"/>
      <point x="765" y="557" type="curve" smooth="yes"/>
      <point x="726" y="501"/>
      <point x="688" y="456"/>
      <point x="664" y="433" type="curve" smooth="yes"/>
      <point x="618" y="386"/>
      <point x="572" y="370"/>
      <point x="503" y="365" type="curve"/>
      <point x="503" y="649" type="line" smooth="yes"/>
      <point x="503" y="698"/>
      <point x="513" y="704"/>
      <point x="562" y="704" type="curve" smooth="yes"/>
      <point x="612" y="704" type="line"/>
      <point x="612" y="714" type="line"/>
      <point x="20" y="714" type="line"/>
      <point x="13" y="495" type="line"/>
      <point x="23" y="495" type="line"/>
      <point x="27" y="564" type="line" smooth="yes"/>
      <point x="33" y="670"/>
      <point x="81" y="704"/>
      <point x="199" y="704" type="curve" smooth="yes"/>
      <point x="270" y="704" type="line"/>
      <point x="270" y="64" type="line" smooth="yes"/>
      <point x="270" y="16"/>
      <point x="239" y="10"/>
      <point x="196" y="10" type="curve" smooth="yes"/>
      <point x="164" y="10" type="line"/>
    </contour>
  </outline>
</glyph>
<glyph name="uni04BE" format="2">
  <advance width="1039"/>
  <unicode hex="04BE"/>
  <anchor x="650" y="-210" name="bottom"/>
  <anchor x="620" y="714" name="top"/>
  <outline>
    <contour>
      <point x="637" y="-210" type="curve"/>
      <point x="647" y="-210" type="line"/>
      <point x="647" y="-68"/>
      <point x="703" y="-39"/>
      <point x="830" y="14" type="curve" smooth="yes"/>
      <point x="909" y="47"/>
      <point x="956" y="88"/>
      <point x="956" y="131" type="curve" smooth="yes"/>
      <point x="956" y="164"/>
      <point x="938" y="175"/>
      <point x="913" y="183" type="curve"/>
      <point x="897" y="53"/>
      <point x="802" y="2"/>
      <point x="706" y="2" type="curve" smooth="yes"/>
      <point x="560" y="2"/>
      <point x="462" y="37"/>
      <point x="458" y="363" type="curve"/>
      <point x="975" y="363" type="line"/>
      <point x="975" y="366" type="line" smooth="yes"/>
      <point x="975" y="569"/>
      <point x="895" y="725"/>
      <point x="613" y="725" type="curve" smooth="yes"/>
      <point x="378" y="725"/>
      <point x="235" y="597"/>
      <point x="222" y="376" type="curve"/>
      <point x="168" y="382"/>
      <point x="136" y="426"/>
      <point x="136" y="468" type="curve" smooth="yes"/>
      <point x="136" y="489"/>
      <point x="140" y="501"/>
      <point x="148" y="515" type="curve"/>
      <point x="141" y="521"/>
      <point x="123" y="529"/>
      <point x="104" y="529" type="curve" smooth="yes"/>
      <point x="45" y="529"/>
      <point x="11" y="504"/>
      <point x="11" y="453" type="curve" smooth="yes"/>
      <point x="11" y="388"/>
      <point x="82" y="362"/>
      <point x="222" y="364" type="curve"/>
      <point x="223" y="171"/>
      <point x="315" y="82"/>
      <point x="470" y="14" type="curve" smooth="yes"/>
      <point x="570" y="-30"/>
      <point x="637" y="-78"/>
    </contour>
    <contour>
      <point x="458" y="373" type="line"/>
      <point x="458" y="661"/>
      <point x="489" y="715"/>
      <point x="601" y="715" type="curve" smooth="yes"/>
      <point x="696" y="715"/>
      <point x="725" y="660"/>
      <point x="729" y="373" type="curve"/>
    </contour>
  </outline>
</glyph>
<glyph name="uni04BF" format="2">
  <advance width="876"/>
  <unicode hex="04BF"/>
  <anchor x="568" y="-210" name="bottom"/>
  <anchor x="528" y="536" name="top"/>
  <outline>
    <contour>
      <point x="559" y="-210" type="curve"/>
      <point x="569" y="-210" type="line"/>
      <point x="569" y="-91"/>
      <point x="616" y="-26"/>
      <point x="696" y="5" type="curve" smooth="yes"/>
      <point x="760" y="30"/>
      <point x="811" y="67"/>
      <point x="811" y="117" type="curve" smooth="yes"/>
      <point x="811" y="161"/>
      <point x="785" y="179"/>
      <point x="739" y="187" type="curve"/>
      <point x="744" y="70"/>
      <point x="715" y="2"/>
      <point x="620" y="2" type="curve" smooth="yes"/>
      <point x="502" y="2"/>
      <point x="457" y="90"/>
      <point x="455" y="285" type="curve"/>
      <point x="833" y="285" type="line"/>
      <point x="833" y="310" type="line" smooth="yes"/>
      <point x="833" y="470"/>
      <point x="721" y="552"/>
      <point x="538" y="552" type="curve" smooth="yes"/>
      <point x="352" y="552"/>
      <point x="240" y="466"/>
      <point x="228" y="298" type="curve"/>
      <point x="167" y="309"/>
      <point x="142" y="348"/>
      <point x="142" y="400" type="curve" smooth="yes"/>
      <point x="142" y="423"/>
      <point x="147" y="440"/>
      <point x="154" y="452" type="curve"/>
      <point x="130" y="461"/>
      <point x="118" y="463"/>
      <point x="101" y="463" type="curve" smooth="yes"/>
      <point x="54" y="463"/>
      <point x="12" y="434"/>
      <point x="12" y="391" type="curve" smooth="yes"/>
      <point x="12" y="266"/>
      <point x="136" y="285"/>
      <point x="227" y="285" type="curve"/>
      <point x="227" y="155"/>
      <point x="285" y="55"/>
      <point x="401" y="17" type="curve" smooth="yes"/>
      <point x="495" y="-14"/>
      <point x="559" y="-95"/>
    </contour>
    <contour>
      <point x="455" y="295" type="line"/>
      <point x="455" y="473"/>
      <point x="484" y="542"/>
      <point x="537" y="542" type="curve" smooth="yes"/>
      <point x="593" y="542"/>
      <point x="611" y="473"/>
      <point x="611" y="295" type="curve"/>
    </contour>
  </outline>
</glyph>
<glyph name="uni04CB" format="2">
  <advance width="931"/>
  <unicode hex="04CB"/>
  <anchor x="465" y="-210" name="bottom"/>
  <anchor x="465" y="714" name="top"/>
  <outline>
    <contour>
      <point x="458" y="-210" type="line"/>
      <point x="468" y="-210" type="line"/>
      <point x="468" y="-50"/>
      <point x="518" y="0"/>
      <point x="677" y="0" type="curve" smooth="yes"/>
      <point x="885" y="0" type="line"/>
      <point x="885" y="10" type="line"/>
      <point x="839" y="10" type="line" smooth="yes"/>
      <point x="814" y="10"/>
      <point x="800" y="46"/>
      <point x="800" y="57" type="curve" smooth="yes"/>
      <point x="800" y="642" type="line" smooth="yes"/>
      <point x="800" y="693"/>
      <point x="818" y="704"/>
      <point x="862" y="704" type="curve" smooth="yes"/>
      <point x="907" y="704" type="line"/>
      <point x="907" y="714" type="line"/>
      <point x="476" y="714" type="line"/>
      <point x="476" y="704" type="line"/>
      <point x="504" y="704" type="line" smooth="yes"/>
      <point x="547" y="704"/>
      <point x="565" y="693"/>
      <point x="565" y="642" type="curve" smooth="yes"/>
      <point x="565" y="245" type="line"/>
      <point x="544" y="249"/>
      <point x="509" y="244"/>
      <point x="469" y="244" type="curve" smooth="yes"/>
      <point x="373" y="244"/>
      <point x="342" y="276"/>
      <point x="342" y="409" type="curve" smooth="yes"/>
      <point x="342" y="642" type="line" smooth="yes"/>
      <point x="342" y="693"/>
      <point x="361" y="704"/>
      <point x="404" y="704" type="curve" smooth="yes"/>
      <point x="430" y="704" type="line"/>
      <point x="430" y="714" type="line"/>
      <point x="21" y="714" type="line"/>
      <point x="21" y="704" type="line"/>
      <point x="46" y="704" type="line" smooth="yes"/>
      <point x="91" y="704"/>
      <point x="108" y="693"/>
      <point x="108" y="637" type="curve" smooth="yes"/>
      <point x="108" y="481" type="line" smooth="yes"/>
      <point x="108" y="260"/>
      <point x="225" y="225"/>
      <point x="381" y="225" type="curve" smooth="yes"/>
      <point x="481" y="225"/>
      <point x="544" y="241"/>
      <point x="565" y="238" type="curve"/>
      <point x="565" y="28" type="line" smooth="yes"/>
      <point x="565" y="32"/>
      <point x="572" y="10"/>
      <point x="534" y="10" type="curve" smooth="yes"/>
      <point x="458" y="10" type="line"/>
    </contour>
  </outline>
</glyph>
<glyph name="uni04E8" format="2">
  <advance width="956"/>
  <unicode hex="04E8"/>
  <anchor x="478" y="0" name="bottom"/>
  <anchor x="478" y="714" name="top"/>
  <outline>
    <contour>
      <point x="479" y="-10" type="curve" smooth="yes"/>
      <point x="745" y="-10"/>
      <point x="893" y="137"/>
      <point x="893" y="358" type="curve" smooth="yes"/>
      <point x="893" y="580"/>
      <point x="745" y="725"/>
      <point x="480" y="725" type="curve" smooth="yes"/>
      <point x="200" y="725"/>
      <point x="63" y="580"/>
      <point x="63" y="359" type="curve" smooth="yes"/>
      <point x="63" y="137"/>
      <point x="200" y="-10"/>
    </contour>
    <contour>
      <point x="479" y="0" type="curve" smooth="yes"/>
      <point x="355" y="0"/>
      <point x="307" y="107"/>
      <point x="307" y="367" type="curve"/>
      <point x="648" y="367" type="line"/>
      <point x="648" y="102"/>
      <point x="598" y="0"/>
    </contour>
    <contour>
      <point x="307" y="377" type="line"/>
      <point x="309" y="611"/>
      <point x="357" y="715"/>
      <point x="480" y="715" type="curve" smooth="yes"/>
      <point x="599" y="715"/>
      <point x="646" y="611"/>
      <point x="648" y="377" type="curve"/>
    </contour>
  </outline>
</glyph>
<glyph name="uni0507" format="2">
  <advance width="656"/>
  <unicode hex="0507"/>
  <anchor x="299" y="0" name="bottom"/>
  <anchor x="329" y="536" name="top"/>
  <outline>
    <contour>
      <point x="635" y="-190" type="line"/>
      <point x="645" y="-190" type="line"/>
      <point x="645" y="10" type="line"/>
      <point x="629" y="10" type="line" smooth="yes"/>
      <point x="589" y="10"/>
      <point x="557" y="32"/>
      <point x="557" y="77" type="curve" smooth="yes"/>
      <point x="557" y="151" type="line" smooth="yes"/>
      <point x="557" y="236"/>
      <point x="495" y="288"/>
      <point x="195" y="292" type="curve"/>
      <point x="195" y="294" type="line"/>
      <point x="477" y="299"/>
      <point x="540" y="360"/>
      <point x="540" y="428" type="curve" smooth="yes"/>
      <point x="540" y="509"/>
      <point x="448" y="552"/>
      <point x="268" y="552" type="curve" smooth="yes"/>
      <point x="49" y="552"/>
      <point x="5" y="480"/>
      <point x="5" y="437" type="curve" smooth="yes"/>
      <point x="5" y="403"/>
      <point x="16" y="367"/>
      <point x="152" y="367" type="curve"/>
      <point x="152" y="458"/>
      <point x="145" y="542"/>
      <point x="234" y="542" type="curve" smooth="yes"/>
      <point x="288" y="542"/>
      <point x="312" y="510"/>
      <point x="312" y="418" type="curve" smooth="yes"/>
      <point x="312" y="326"/>
      <point x="277" y="296"/>
      <point x="180" y="296" type="curve" smooth="yes"/>
      <point x="144" y="296" type="line"/>
      <point x="144" y="286" type="line"/>
      <point x="188" y="286" type="line" smooth="yes"/>
      <point x="292" y="286"/>
      <point x="328" y="201"/>
      <point x="328" y="153" type="curve" smooth="yes"/>
      <point x="328" y="0" type="line"/>
      <point x="412" y="0" type="line" smooth="yes"/>
      <point x="567" y="0"/>
      <point x="621" y="-42"/>
      <point x="633" y="-175" type="curve" smooth="yes"/>
    </contour>
  </outline>
</glyph>
<glyph name="uni050D" format="2">
  <advance width="786"/>
  <unicode hex="050D"/>
  <anchor x="393" y="0" name="bottom"/>
  <anchor x="393" y="536" name="top"/>
  <outline>
    <contour>
      <point x="409" y="-4" type="curve" smooth="yes"/>
      <point x="616" y="-4"/>
      <point x="712" y="82"/>
      <point x="724" y="180" type="curve" smooth="yes"/>
      <point x="726" y="197"/>
      <point x="699" y="291"/>
      <point x="761" y="291" type="curve" smooth="yes"/>
      <point x="778" y="291" type="line"/>
      <point x="778" y="301" type="line"/>
      <point x="387" y="301" type="line"/>
      <point x="387" y="291" type="line"/>
      <point x="435" y="291" type="line" smooth="yes"/>
      <point x="503" y="291"/>
      <point x="511" y="258"/>
      <point x="511" y="181" type="curve" smooth="yes"/>
      <point x="511" y="14"/>
      <point x="461" y="6"/>
      <point x="408" y="6" type="curve" smooth="yes"/>
      <point x="312" y="6"/>
      <point x="276" y="63"/>
      <point x="276" y="278" type="curve" smooth="yes"/>
      <point x="276" y="463"/>
      <point x="317" y="541"/>
      <point x="430" y="541" type="curve" smooth="yes"/>
      <point x="477" y="541"/>
      <point x="525" y="535"/>
      <point x="529" y="383" type="curve"/>
      <point x="667" y="383"/>
      <point x="699" y="415"/>
      <point x="699" y="437" type="curve" smooth="yes"/>
      <point x="699" y="495"/>
      <point x="626" y="551"/>
      <point x="439" y="551" type="curve" smooth="yes"/>
      <point x="183" y="551"/>
      <point x="49" y="461"/>
      <point x="49" y="278" type="curve" smooth="yes"/>
      <point x="49" y="98"/>
      <point x="181" y="-4"/>
    </contour>
  </outline>
</glyph>
<glyph name="uni0516" format="2">
  <advance width="1141"/>
  <unicode hex="0516"/>
  <anchor x="571" y="0" name="bottom"/>
  <anchor x="571" y="714" name="top"/>
  <outline>
    <contour>
      <point x="24" y="0" type="line"/>
      <point x="496" y="0" type="line"/>
      <point x="496" y="10" type="line"/>
      <point x="418" y="10" type="line" smooth="yes"/>
      <point x="397" y="10"/>
      <point x="364" y="8"/>
      <point x="364" y="62" type="curve" smooth="yes"/>
      <point x="364" y="267" type="line"/>
      <point x="390" y="267" type="line" smooth="yes"/>
      <point x="490" y="267"/>
      <point x="567" y="279"/>
      <point x="624" y="302" type="curve"/>
      <point x="744" y="114" type="line" smooth="yes"/>
      <point x="759" y="93"/>
      <point x="769" y="70"/>
      <point x="769" y="54" type="curve" smooth="yes"/>
      <point x="769" y="28"/>
      <point x="747" y="10"/>
      <point x="697" y="10" type="curve" smooth="yes"/>
      <point x="710" y="10" type="line"/>
      <point x="710" y="0" type="line"/>
      <point x="1137" y="0" type="line"/>
      <point x="1137" y="10" type="line"/>
      <point x="1123" y="10" type="line" smooth="yes"/>
      <point x="1066" y="10"/>
      <point x="1036" y="35"/>
      <point x="1042" y="11" type="curve" smooth="yes"/>
      <point x="756" y="427" type="line"/>
      <point x="916" y="631" type="line" smooth="yes"/>
      <point x="956" y="683"/>
      <point x="974" y="704"/>
      <point x="1015" y="704" type="curve" smooth="yes"/>
      <point x="1079" y="704" type="line"/>
      <point x="1079" y="714" type="line"/>
      <point x="823" y="714" type="line"/>
      <point x="823" y="704" type="line"/>
      <point x="876" y="704" type="line" smooth="yes"/>
      <point x="906" y="704"/>
      <point x="922" y="696"/>
      <point x="922" y="678" type="curve" smooth="yes"/>
      <point x="922" y="664"/>
      <point x="913" y="646"/>
      <point x="895" y="622" type="curve" smooth="yes"/>
      <point x="765" y="456" type="line"/>
      <point x="768" y="469"/>
      <point x="769" y="484"/>
      <point x="769" y="499" type="curve" smooth="yes"/>
      <point x="769" y="644"/>
      <point x="658" y="714"/>
      <point x="416" y="714" type="curve" smooth="yes"/>
      <point x="24" y="714" type="line"/>
      <point x="24" y="704" type="line"/>
      <point x="77" y="704" type="line" smooth="yes"/>
      <point x="91" y="704"/>
      <point x="132" y="704"/>
      <point x="132" y="651" type="curve" smooth="yes"/>
      <point x="132" y="67" type="line" smooth="yes"/>
      <point x="132" y="9"/>
      <point x="94" y="10"/>
      <point x="71" y="10" type="curve" smooth="yes"/>
      <point x="24" y="10" type="line"/>
    </contour>
    <contour>
      <point x="362" y="277" type="line"/>
      <point x="362" y="704" type="line"/>
      <point x="395" y="704" type="line" smooth="yes"/>
      <point x="490" y="704"/>
      <point x="526" y="645"/>
      <point x="526" y="493" type="curve" smooth="yes"/>
      <point x="526" y="337"/>
      <point x="485" y="277"/>
      <point x="379" y="277" type="curve" smooth="yes"/>
    </contour>
  </outline>
</glyph>
<glyph name="uni0517" format="2">
  <advance width="1173"/>
  <unicode hex="0517"/>
  <anchor x="590" y="-240" name="bottom"/>
  <anchor x="590" y="536" name="top"/>
  <outline>
    <contour>
      <point x="11" y="-217" type="line"/>
      <point x="443" y="-217" type="line"/>
      <point x="443" y="-207" type="line"/>
      <point x="412" y="-207" type="line" smooth="yes"/>
      <point x="387" y="-207"/>
      <point x="328" y="-206"/>
      <point x="328" y="-148" type="curve" smooth="yes"/>
      <point x="328" y="53" type="line" smooth="yes"/>
      <point x="328" y="90"/>
      <point x="328" y="130"/>
      <point x="328" y="167" type="curve"/>
      <point x="330" y="167" type="line"/>
      <point x="353" y="40"/>
      <point x="404" y="-10"/>
      <point x="510" y="-10" type="curve" smooth="yes"/>
      <point x="648" y="-10"/>
      <point x="717" y="82"/>
      <point x="728" y="236" type="curve"/>
      <point x="801" y="143" type="line" smooth="yes"/>
      <point x="832" y="98"/>
      <point x="850" y="66"/>
      <point x="850" y="44" type="curve" smooth="yes"/>
      <point x="850" y="21"/>
      <point x="828" y="10"/>
      <point x="777" y="10" type="curve" smooth="yes"/>
      <point x="750" y="10" type="line"/>
      <point x="750" y="0" type="line"/>
      <point x="1162" y="0" type="line"/>
      <point x="1162" y="10" type="line"/>
      <point x="1160" y="10" type="line" smooth="yes"/>
      <point x="1144" y="10"/>
      <point x="1092" y="30"/>
      <point x="1067" y="67" type="curve" smooth="yes"/>
      <point x="863" y="359" type="line"/>
      <point x="977" y="448" type="line" smooth="yes"/>
      <point x="1035" y="498"/>
      <point x="1056" y="526"/>
      <point x="1130" y="526" type="curve" smooth="yes"/>
      <point x="1147" y="526" type="line"/>
      <point x="1147" y="536" type="line"/>
      <point x="843" y="536" type="line"/>
      <point x="843" y="526" type="line"/>
      <point x="886" y="526" type="line" smooth="yes"/>
      <point x="940" y="526"/>
      <point x="969" y="506"/>
      <point x="969" y="479" type="curve" smooth="yes"/>
      <point x="969" y="466"/>
      <point x="964" y="453"/>
      <point x="949" y="442" type="curve" smooth="yes"/>
      <point x="729" y="256" type="line"/>
      <point x="729" y="451"/>
      <point x="662" y="550"/>
      <point x="523" y="550" type="curve" smooth="yes"/>
      <point x="426" y="550"/>
      <point x="353" y="491"/>
      <point x="330" y="356" type="curve"/>
      <point x="328" y="356" type="line"/>
      <point x="328" y="536" type="line"/>
      <point x="32" y="536" type="line"/>
      <point x="32" y="526" type="line"/>
      <point x="34" y="526" type="line" smooth="yes"/>
      <point x="104" y="526"/>
      <point x="102" y="501"/>
      <point x="102" y="455" type="curve" smooth="yes"/>
      <point x="102" y="-148" type="line" smooth="yes"/>
      <point x="102" y="-206"/>
      <point x="43" y="-207"/>
      <point x="18" y="-207" type="curve" smooth="yes"/>
      <point x="11" y="-207" type="line"/>
    </contour>
    <contour>
      <point x="422" y="30" type="curve" smooth="yes"/>
      <point x="373" y="30"/>
      <point x="329" y="127"/>
      <point x="329" y="277" type="curve" smooth="yes"/>
      <point x="329" y="401"/>
      <point x="376" y="489"/>
      <point x="424" y="489" type="curve" smooth="yes"/>
      <point x="471" y="489"/>
      <point x="503" y="381"/>
      <point x="503" y="282" type="curve" smooth="yes"/>
      <point x="503" y="154"/>
      <point x="475" y="30"/>
    </contour>
  </outline>
</glyph>
<glyph name="uni1AB2" format="2">
  <unicode hex="1AB2"/>
  <anchor x="2" y="510" name="_top"/>
  <anchor x="2" y="792" name="top"/>
  <outline>
    <contour>
      <point x="159" y="615" type="curve" smooth="yes"/>
      <point x="241" y="615"/>
      <point x="294" y="651"/>
      <point x="294" y="703" type="curve" smooth="yes"/>
      <point x="294" y="760"/>
      <point x="236" y="793"/>
      <point x="161" y="793" type="curve" smooth="yes"/>
      <point x="93" y="793"/>
      <point x="44" y="764"/>
      <point x="3" y="717" type="curve"/>
      <point x="-40" y="763"/>
      <point x="-93" y="794"/>
      <point x="-164" y="794" type="curve" smooth="yes"/>
      <point x="-241" y="794"/>
      <point x="-293" y="761"/>
      <point x="-293" y="706" type="curve" smooth="yes"/>
      <point x="-293" y="649"/>
      <point x="-236" y="616"/>
      <point x="-163" y="616" type="curve" smooth="yes"/>
      <point x="-96" y="616"/>
      <point x="-46" y="648"/>
      <point x="1" y="694" type="curve"/>
      <point x="38" y="644"/>
      <point x="83" y="615"/>
    </contour>
    <contour>
      <point x="-164" y="628" type="curve" smooth="yes"/>
      <point x="-232" y="628"/>
      <point x="-283" y="656"/>
      <point x="-283" y="706" type="curve" smooth="yes"/>
      <point x="-283" y="753"/>
      <point x="-235" y="783"/>
      <point x="-165" y="783" type="curve" smooth="yes"/>
      <point x="-96" y="783"/>
      <point x="-48" y="752"/>
      <point x="-3" y="705" type="curve"/>
      <point x="-46" y="649"/>
      <point x="-101" y="628"/>
    </contour>
    <contour>
      <point x="159" y="626" type="curve" smooth="yes"/>
      <point x="81" y="626"/>
      <point x="41" y="664"/>
      <point x="8" y="706" type="curve"/>
      <point x="44" y="749"/>
      <point x="93" y="782"/>
      <point x="161" y="782" type="curve" smooth="yes"/>
      <point x="221" y="782"/>
      <point x="284" y="764"/>
      <point x="284" y="705" type="curve" smooth="yes"/>
      <point x="284" y="655"/>
      <point x="232" y="626"/>
    </contour>
  </outline>
</glyph>
<glyph name="uni1C88" format="2">
  <advance width="746"/>
  <unicode hex="1C88"/>
  <anchor x="373" y="0" name="bottom"/>
  <anchor x="373" y="759" name="top"/>
  <outline>
    <contour>
      <point x="372" y="-10" type="curve" smooth="yes"/>
      <point x="586" y="-10"/>
      <point x="697" y="90"/>
      <point x="697" y="218" type="curve" smooth="yes"/>
      <point x="697" y="319"/>
      <point x="622" y="399"/>
      <point x="495" y="432" type="curve"/>
      <point x="638" y="672" type="line" smooth="yes"/>
      <point x="674" y="732"/>
      <point x="700" y="750"/>
      <point x="742" y="750" type="curve" smooth="yes"/>
      <point x="747" y="750" type="line"/>
      <point x="747" y="760" type="line"/>
      <point x="509" y="760" type="line"/>
      <point x="509" y="750" type="line"/>
      <point x="575" y="750" type="line" smooth="yes"/>
      <point x="618" y="750"/>
      <point x="632" y="738"/>
      <point x="632" y="717" type="curve" smooth="yes"/>
      <point x="632" y="692"/>
      <point x="613" y="654"/>
      <point x="588" y="609" type="curve" smooth="yes"/>
      <point x="491" y="446" type="line"/>
      <point x="415" y="604" type="line" smooth="yes"/>
      <point x="390" y="655"/>
      <point x="368" y="699"/>
      <point x="368" y="719" type="curve" smooth="yes"/>
      <point x="368" y="738"/>
      <point x="381" y="750"/>
      <point x="430" y="750" type="curve" smooth="yes"/>
      <point x="422" y="750" type="line"/>
      <point x="422" y="760" type="line"/>
      <point x="0" y="760" type="line"/>
      <point x="0" y="750" type="line"/>
      <point x="31" y="750"/>
      <point x="36" y="757"/>
      <point x="69" y="692" type="curve" smooth="yes"/>
      <point x="211" y="419" type="line"/>
      <point x="106" y="383"/>
      <point x="51" y="308"/>
      <point x="51" y="218" type="curve" smooth="yes"/>
      <point x="51" y="90"/>
      <point x="173" y="-10"/>
    </contour>
    <contour>
      <point x="372" y="0" type="curve" smooth="yes"/>
      <point x="300" y="0"/>
      <point x="278" y="52"/>
      <point x="278" y="218" type="curve" smooth="yes"/>
      <point x="278" y="377"/>
      <point x="299" y="426"/>
      <point x="370" y="426" type="curve" smooth="yes"/>
      <point x="445" y="426"/>
      <point x="468" y="377"/>
      <point x="468" y="218" type="curve" smooth="yes"/>
      <point x="468" y="52"/>
      <point x="446" y="0"/>
    </contour>
  </outline>
</glyph>
<glyph name="uni1D04" format="2">
  <advance width="692"/>
  <unicode hex="1D04"/>
  <anchor x="346" y="0" name="bottom"/>
  <anchor x="346" y="536" name="top"/>
  <outline>
    <contour>
      <point x="412" y="-8" type="curve" smooth="yes"/>
      <point x="607" y="-8"/>
      <point x="653" y="53"/>
      <point x="653" y="106" type="curve" smooth="yes"/>
      <point x="653" y="140"/>
      <point x="635" y="161"/>
      <point x="617" y="162" type="curve"/>
      <point x="610" y="56"/>
      <point x="556" y="2"/>
      <point x="436" y="2" type="curve" smooth="yes"/>
      <point x="331" y="2"/>
      <point x="275" y="41"/>
      <point x="275" y="257" type="curve" smooth="yes"/>
      <point x="275" y="451"/>
      <point x="294" y="533"/>
      <point x="409" y="533" type="curve" smooth="yes"/>
      <point x="466" y="533"/>
      <point x="484" y="445"/>
      <point x="484" y="365" type="curve"/>
      <point x="597" y="365"/>
      <point x="650" y="408"/>
      <point x="650" y="457" type="curve" smooth="yes"/>
      <point x="650" y="504"/>
      <point x="583" y="543"/>
      <point x="399" y="543" type="curve" smooth="yes"/>
      <point x="179" y="543"/>
      <point x="50" y="418"/>
      <point x="50" y="266" type="curve" smooth="yes"/>
      <point x="50" y="108"/>
      <point x="164" y="-8"/>
    </contour>
  </outline>
</glyph>
<glyph name="uni1D06" format="2">
  <advance width="778"/>
  <unicode hex="1D06"/>
  <anchor x="390" y="0" name="bottom"/>
  <anchor x="390" y="536" name="top"/>
  <outline>
    <contour>
      <point x="17" y="0" type="line"/>
      <point x="357" y="0" type="line" smooth="yes"/>
      <point x="595" y="0"/>
      <point x="724" y="130"/>
      <point x="724" y="294" type="curve" smooth="yes"/>
      <point x="724" y="464"/>
      <point x="582" y="536"/>
      <point x="357" y="536" type="curve" smooth="yes"/>
      <point x="17" y="536" type="line"/>
      <point x="17" y="526" type="line"/>
      <point x="60" y="526" type="line" smooth="yes"/>
      <point x="87" y="526"/>
      <point x="102" y="511"/>
      <point x="102" y="484" type="curve" smooth="yes"/>
      <point x="102" y="274" type="line"/>
      <point x="22" y="274" type="line"/>
      <point x="22" y="264" type="line"/>
      <point x="102" y="264" type="line"/>
      <point x="102" y="52" type="line" smooth="yes"/>
      <point x="102" y="27"/>
      <point x="90" y="10"/>
      <point x="53" y="10" type="curve" smooth="yes"/>
      <point x="17" y="10" type="line"/>
    </contour>
    <contour>
      <point x="317" y="10" type="line"/>
      <point x="317" y="264" type="line"/>
      <point x="424" y="264" type="line"/>
      <point x="424" y="274" type="line"/>
      <point x="317" y="274" type="line"/>
      <point x="317" y="526" type="line"/>
      <point x="335" y="526" type="line" smooth="yes"/>
      <point x="453" y="526"/>
      <point x="495" y="464"/>
      <point x="495" y="289" type="curve" smooth="yes"/>
      <point x="495" y="83"/>
      <point x="453" y="10"/>
      <point x="334" y="10" type="curve" smooth="yes"/>
    </contour>
  </outline>
</glyph>
<glyph name="uni1D0B" format="2">
  <advance width="780"/>
  <unicode hex="1D0B"/>
  <anchor x="397" y="0" name="bottom"/>
  <anchor x="397" y="536" name="top"/>
  <outline>
    <contour>
      <point x="17" y="0" type="line"/>
      <point x="386" y="0" type="line"/>
      <point x="386" y="10" type="line"/>
      <point x="392" y="10" type="line" smooth="yes"/>
      <point x="345" y="10"/>
      <point x="328" y="27"/>
      <point x="328" y="94" type="curve" smooth="yes"/>
      <point x="328" y="224" type="line"/>
      <point x="356" y="255" type="line"/>
      <point x="453" y="92" type="line" smooth="yes"/>
      <point x="495" y="22"/>
      <point x="515" y="0"/>
      <point x="737" y="0" type="curve" smooth="yes"/>
      <point x="773" y="0" type="line"/>
      <point x="773" y="11" type="line"/>
      <point x="750" y="11"/>
      <point x="720" y="37"/>
      <point x="711" y="52" type="curve" smooth="yes"/>
      <point x="510" y="413" type="line"/>
      <point x="524" y="425" type="line" smooth="yes"/>
      <point x="587" y="489"/>
      <point x="642" y="525"/>
      <point x="762" y="525" type="curve"/>
      <point x="762" y="536" type="line"/>
      <point x="460" y="536" type="line"/>
      <point x="460" y="525" type="line"/>
      <point x="531" y="525"/>
      <point x="567" y="513"/>
      <point x="567" y="492" type="curve" smooth="yes"/>
      <point x="567" y="485"/>
      <point x="565" y="480"/>
      <point x="563" y="480" type="curve" smooth="yes"/>
      <point x="328" y="240" type="line"/>
      <point x="328" y="441" type="line" smooth="yes"/>
      <point x="328" y="512"/>
      <point x="343" y="526"/>
      <point x="391" y="526" type="curve" smooth="yes"/>
      <point x="385" y="526" type="line"/>
      <point x="385" y="536" type="line"/>
      <point x="17" y="536" type="line"/>
      <point x="17" y="526" type="line"/>
      <point x="4" y="526" type="line" smooth="yes"/>
      <point x="82" y="526"/>
      <point x="101" y="511"/>
      <point x="101" y="448" type="curve" smooth="yes"/>
      <point x="101" y="89" type="line" smooth="yes"/>
      <point x="101" y="24"/>
      <point x="82" y="10"/>
      <point x="11" y="10" type="curve" smooth="yes"/>
      <point x="17" y="10" type="line"/>
    </contour>
  </outline>
</glyph>
<glyph name="uni1D1C" format="2">
  <advance width="742"/>
  <unicode hex="1D1C"/>
  <anchor x="371" y="0" name="bottom"/>
  <anchor x="371" y="536" name="top"/>
  <outline>
    <contour>
      <point x="403" y="-8" type="curve" smooth="yes"/>
      <point x="589" y="-8"/>
      <point x="623" y="104"/>
      <point x="623" y="178" type="curve" smooth="yes"/>
      <point x="623" y="479" type="line" smooth="yes"/>
      <point x="623" y="518"/>
      <point x="659" y="526"/>
      <point x="667" y="526" type="curve" smooth="yes"/>
      <point x="725" y="526" type="line"/>
      <point x="725" y="536" type="line"/>
      <point x="505" y="536" type="line"/>
      <point x="505" y="526" type="line"/>
      <point x="567" y="526" type="line" smooth="yes"/>
      <point x="577" y="526"/>
      <point x="613" y="517"/>
      <point x="613" y="482" type="curve" smooth="yes"/>
      <point x="613" y="174" type="line" smooth="yes"/>
      <point x="613" y="93"/>
      <point x="562" y="17"/>
      <point x="469" y="17" type="curve" smooth="yes"/>
      <point x="363" y="17"/>
      <point x="320" y="49"/>
      <point x="320" y="188" type="curve" smooth="yes"/>
      <point x="320" y="479" type="line" smooth="yes"/>
      <point x="320" y="518"/>
      <point x="362" y="526"/>
      <point x="368" y="526" type="curve" smooth="yes"/>
      <point x="407" y="526" type="line"/>
      <point x="407" y="536" type="line"/>
      <point x="17" y="536" type="line"/>
      <point x="17" y="526" type="line"/>
      <point x="60" y="526" type="line" smooth="yes"/>
      <point x="71" y="526"/>
      <point x="104" y="517"/>
      <point x="104" y="482" type="curve" smooth="yes"/>
      <point x="104" y="178" type="line" smooth="yes"/>
      <point x="104" y="28"/>
      <point x="219" y="-8"/>
    </contour>
  </outline>
</glyph>
<glyph name="uni1D2B" format="2">
  <advance width="755"/>
  <unicode hex="1D2B"/>
  <outline>
    <contour>
      <point x="103" y="-9" type="curve" smooth="yes"/>
      <point x="168" y="-9"/>
      <point x="206" y="28"/>
      <point x="268" y="175" type="curve" smooth="yes"/>
      <point x="320" y="298"/>
      <point x="347" y="440"/>
      <point x="342" y="526" type="curve"/>
      <point x="431" y="526" type="line"/>
      <point x="431" y="90" type="line" smooth="yes"/>
      <point x="431" y="14"/>
      <point x="360" y="10"/>
      <point x="362" y="10" type="curve" smooth="yes"/>
      <point x="351" y="10" type="line"/>
      <point x="351" y="0" type="line"/>
      <point x="737" y="0" type="line"/>
      <point x="737" y="10" type="line"/>
      <point x="739" y="10" type="line" smooth="yes"/>
      <point x="732" y="10"/>
      <point x="650" y="15"/>
      <point x="650" y="91" type="curve" smooth="yes"/>
      <point x="650" y="445" type="line" smooth="yes"/>
      <point x="650" y="521"/>
      <point x="732" y="526"/>
      <point x="739" y="526" type="curve" smooth="yes"/>
      <point x="737" y="526" type="line"/>
      <point x="737" y="536" type="line"/>
      <point x="184" y="536" type="line"/>
      <point x="184" y="526" type="line"/>
      <point x="256" y="526" type="line" smooth="yes"/>
      <point x="300" y="526"/>
      <point x="326" y="509"/>
      <point x="326" y="458" type="curve" smooth="yes"/>
      <point x="326" y="410"/>
      <point x="325" y="427"/>
      <point x="318" y="389" type="curve" smooth="yes"/>
      <point x="287" y="257"/>
      <point x="239" y="97"/>
      <point x="136" y="97" type="curve" smooth="yes"/>
      <point x="108" y="97"/>
      <point x="81" y="110"/>
      <point x="79" y="139" type="curve"/>
      <point x="70" y="133"/>
      <point x="7" y="127"/>
      <point x="7" y="66" type="curve" smooth="yes"/>
      <point x="7" y="18"/>
      <point x="48" y="-9"/>
    </contour>
  </outline>
</glyph>
<glyph name="uni1D7A" format="2">
  <advance width="1343"/>
  <unicode hex="1D7A"/>
  <anchor x="923" y="760" name="top_2"/>
  <anchor x="1250" y="760" name="topright_2"/>
  <anchor x="477" y="662" name="topright_1"/>
  <anchor x="318" y="0" name="bottom_1"/>
  <anchor x="923" y="0" name="bottom_2"/>
  <anchor x="248" y="662" name="top_1"/>
  <anchor x="923" y="268" name="center_2"/>
  <anchor x="258" y="268" name="center_1"/>
  <outline>
    <contour>
      <point x="90" y="-110" type="line"/>
      <point x="105" y="-110" type="line"/>
      <point x="1081" y="760" type="line"/>
      <point x="1066" y="760" type="line"/>
    </contour>
    <component base="t"/>
    <component base="h" xOffset="519"/>
  </outline>
</glyph>
<glyph name="uni1D8F" format="2">
  <advance width="729"/>
  <unicode hex="1D8F"/>
  <anchor x="364" y="536" name="top"/>
  <anchor x="709" y="536" name="topright"/>
  <anchor x="364" y="0" name="bottom"/>
  <outline>
    <contour>
      <point x="806" y="-209" type="curve" smooth="yes"/>
      <point x="876" y="-209"/>
      <point x="927" y="-182"/>
      <point x="927" y="-138" type="curve" smooth="yes"/>
      <point x="927" y="-120"/>
      <point x="921" y="-105"/>
      <point x="910" y="-90" type="curve"/>
      <point x="872" y="-102"/>
      <point x="842" y="-108"/>
      <point x="806" y="-108" type="curve" smooth="yes"/>
      <point x="729" y="-108"/>
      <point x="700" y="-84"/>
      <point x="700" y="-24" type="curve" smooth="yes"/>
      <point x="700" y="10" type="line"/>
      <point x="690" y="10" type="line"/>
      <point x="690" y="-115" type="line" smooth="yes"/>
      <point x="690" y="-176"/>
      <point x="722" y="-209"/>
    </contour>
    <component base="a"/>
  </outline>
</glyph>
<glyph name="uni1D92" format="2">
  <advance width="697"/>
  <unicode hex="1D92"/>
  <anchor x="358" y="536" name="top"/>
  <anchor x="677" y="536" name="topright"/>
  <anchor x="358" y="0" name="bottom"/>
  <outline>
    <contour>
      <point x="738" y="-209" type="curve" smooth="yes"/>
      <point x="808" y="-209"/>
      <point x="859" y="-182"/>
      <point x="859" y="-138" type="curve" smooth="yes"/>
      <point x="859" y="-120"/>
      <point x="853" y="-105"/>
      <point x="842" y="-90" type="curve"/>
      <point x="804" y="-102"/>
      <point x="774" y="-108"/>
      <point x="738" y="-108" type="curve" smooth="yes"/>
      <point x="661" y="-108"/>
      <point x="632" y="-84"/>
      <point x="632" y="-24" type="curve" smooth="yes"/>
      <point x="632" y="116" type="line"/>
      <point x="622" y="116" type="line"/>
      <point x="622" y="-115" type="line" smooth="yes"/>
      <point x="622" y="-176"/>
      <point x="654" y="-209"/>
    </contour>
    <component base="e"/>
  </outline>
</glyph>
<glyph name="gravemacron" format="2">
  <unicode hex="1DC5"/>
  <anchor x="-8" y="536" name="_top"/>
  <anchor x="-8" y="743" name="top"/>
  <outline>
    <contour>
      <point x="-26" y="636" type="line"/>
      <point x="158" y="636" type="line"/>
      <point x="158" y="656" type="line"/>
      <point x="-19" y="656" type="line"/>
      <point x="-159" y="725" type="line"/>
      <point x="-168" y="707" type="line"/>
    </contour>
  </outline>
</glyph>
<glyph name="macronbreve" format="2">
  <unicode hex="1DCC"/>
  <anchor x="-245" y="536" name="_top"/>
  <anchor x="-245" y="796" name="top"/>
  <outline>
    <contour>
      <point x="-124" y="606" type="curve" smooth="yes"/>
      <point x="-15" y="606"/>
      <point x="70" y="650"/>
      <point x="80" y="796" type="curve"/>
      <point x="70" y="796" type="line"/>
      <point x="47" y="740"/>
      <point x="5" y="710"/>
      <point x="-123" y="710" type="curve" smooth="yes"/>
      <point x="-255" y="710"/>
      <point x="-296" y="740"/>
      <point x="-317" y="796" type="curve"/>
      <point x="-327" y="796" type="line"/>
      <point x="-317" y="651"/>
      <point x="-244" y="606"/>
    </contour>
    <contour>
      <point x="-572" y="776" type="line"/>
      <point x="-316" y="776" type="line"/>
      <point x="-316" y="796" type="line"/>
      <point x="-572" y="796" type="line"/>
    </contour>
  </outline>
</glyph>
<glyph name="uni1E11" format="2">
  <advance width="787"/>
  <unicode hex="1E11"/>
  <anchor x="400" y="-236" name="bottom"/>
  <anchor x="394" y="760" name="top"/>
  <anchor x="727" y="760" name="topright"/>
  <anchor x="394" y="268" name="center"/>
  <outline>
    <contour>
      <point x="375" y="-242" type="curve" smooth="yes"/>
      <point x="483" y="-242"/>
      <point x="549" y="-204"/>
      <point x="549" y="-143" type="curve" smooth="yes"/>
      <point x="549" y="-74"/>
      <point x="478" y="-49"/>
      <point x="341" y="-54" type="curve"/>
      <point x="356" y="8" type="line"/>
      <point x="346" y="8" type="line"/>
      <point x="328" y="-67" type="line"/>
      <point x="384" y="-68"/>
      <point x="413" y="-95"/>
      <point x="413" y="-136" type="curve" smooth="yes"/>
      <point x="413" y="-186"/>
      <point x="382" y="-226"/>
      <point x="320" y="-226" type="curve" smooth="yes"/>
      <point x="304" y="-226"/>
      <point x="283" y="-224"/>
      <point x="265" y="-221" type="curve"/>
      <point x="265" y="-231" type="line"/>
      <point x="290" y="-238"/>
      <point x="359" y="-242"/>
    </contour>
    <component base="d"/>
  </outline>
</glyph>
<glyph name="uni1FCD" format="2">
  <advance width="467"/>
  <unicode hex="1FCD"/>
  <anchor x="234" y="536" name="_top"/>
  <anchor x="234" y="724" name="top"/>
  <outline>
    <contour>
      <point x="48" y="544" type="line"/>
      <point x="175" y="556"/>
      <point x="212" y="596"/>
      <point x="212" y="652" type="curve" smooth="yes"/>
      <point x="212" y="703"/>
      <point x="173" y="724"/>
      <point x="126" y="724" type="curve" smooth="yes"/>
      <point x="55" y="724"/>
      <point x="44" y="691"/>
      <point x="44" y="671" type="curve" smooth="yes"/>
      <point x="44" y="619"/>
      <point x="136" y="641"/>
      <point x="136" y="595" type="curve" smooth="yes"/>
      <point x="136" y="572"/>
      <point x="104" y="564"/>
      <point x="48" y="554" type="curve"/>
    </contour>
    <contour>
      <point x="376" y="553" type="curve"/>
      <point x="393" y="553" type="line"/>
      <point x="393" y="575" type="line"/>
      <point x="378" y="616"/>
      <point x="362" y="668"/>
      <point x="352" y="714" type="curve"/>
      <point x="225" y="714" type="line"/>
      <point x="225" y="704" type="line"/>
      <point x="270" y="648"/>
      <point x="318" y="603"/>
    </contour>
  </outline>
</glyph>
<glyph name="daggerdbl" format="2">
  <advance width="582"/>
  <unicode hex="2021"/>
  <outline>
    <contour>
      <point x="208" y="-111" type="line"/>
      <point x="375" y="-111" type="line"/>
      <point x="296" y="56" type="line"/>
      <point x="542" y="-14" type="line"/>
      <point x="542" y="137" type="line"/>
      <point x="296" y="66" type="line"/>
      <point x="397" y="246" type="line"/>
      <point x="376" y="243"/>
      <point x="335" y="285"/>
      <point x="296" y="327" type="curve"/>
      <point x="329" y="371"/>
      <point x="371" y="401"/>
      <point x="397" y="401" type="curve"/>
      <point x="296" y="584" type="line"/>
      <point x="542" y="512" type="line"/>
      <point x="542" y="663" type="line"/>
      <point x="296" y="594" type="line"/>
      <point x="375" y="760" type="line"/>
      <point x="208" y="760" type="line"/>
      <point x="285" y="594" type="line"/>
      <point x="40" y="663" type="line"/>
      <point x="40" y="512" type="line"/>
      <point x="285" y="584" type="line"/>
      <point x="192" y="401" type="line"/>
      <point x="214" y="398"/>
      <point x="253" y="368"/>
      <point x="285" y="327" type="curve"/>
      <point x="250" y="293"/>
      <point x="210" y="251"/>
      <point x="192" y="246" type="curve"/>
      <point x="285" y="66" type="line"/>
      <point x="40" y="137" type="line"/>
      <point x="40" y="-14" type="line"/>
      <point x="285" y="56" type="line"/>
    </contour>
  </outline>
</glyph>
<glyph name="closeup" format="2">
  <advance width="932"/>
  <unicode hex="2050"/>
  <outline>
    <contour>
      <point x="52" y="532" type="curve"/>
      <point x="62" y="532" type="line"/>
      <point x="139" y="608"/>
      <point x="223" y="632"/>
      <point x="466" y="632" type="curve" smooth="yes"/>
      <point x="712" y="632"/>
      <point x="796" y="606"/>
      <point x="873" y="532" type="curve"/>
      <point x="883" y="532" type="line"/>
      <point x="819" y="668"/>
      <point x="643" y="725"/>
      <point x="466" y="725" type="curve" smooth="yes"/>
      <point x="288" y="725"/>
      <point x="115" y="668"/>
    </contour>
    <contour>
      <point x="466" y="-10" type="curve" smooth="yes"/>
      <point x="643" y="-10"/>
      <point x="819" y="46"/>
      <point x="883" y="182" type="curve"/>
      <point x="873" y="182" type="line"/>
      <point x="796" y="109"/>
      <point x="712" y="83"/>
      <point x="466" y="83" type="curve" smooth="yes"/>
      <point x="223" y="83"/>
      <point x="139" y="105"/>
      <point x="62" y="182" type="curve"/>
      <point x="52" y="182" type="line"/>
      <point x="115" y="46"/>
      <point x="288" y="-10"/>
    </contour>
  </outline>
</glyph>
<glyph name="peseta" format="2">
  <advance width="1117"/>
  <unicode hex="20A7"/>
  <outline>
    <contour>
      <point x="32" y="0" type="line"/>
      <point x="475" y="0" type="line"/>
      <point x="475" y="10" type="line"/>
      <point x="397" y="10" type="line" smooth="yes"/>
      <point x="376" y="10"/>
      <point x="343" y="8"/>
      <point x="343" y="62" type="curve" smooth="yes"/>
      <point x="343" y="267" type="line"/>
      <point x="353" y="267" type="line" smooth="yes"/>
      <point x="630" y="267"/>
      <point x="732" y="363"/>
      <point x="732" y="499" type="curve" smooth="yes"/>
      <point x="732" y="644"/>
      <point x="621" y="714"/>
      <point x="379" y="714" type="curve" smooth="yes"/>
      <point x="32" y="714" type="line"/>
      <point x="32" y="704" type="line"/>
      <point x="87" y="704" type="line" smooth="yes"/>
      <point x="101" y="704"/>
      <point x="142" y="704"/>
      <point x="142" y="651" type="curve" smooth="yes"/>
      <point x="142" y="67" type="line" smooth="yes"/>
      <point x="142" y="9"/>
      <point x="104" y="10"/>
      <point x="81" y="10" type="curve" smooth="yes"/>
      <point x="32" y="10" type="line"/>
    </contour>
    <contour>
      <point x="341" y="277" type="line"/>
      <point x="341" y="704" type="line"/>
      <point x="363" y="704" type="line" smooth="yes"/>
      <point x="480" y="704"/>
      <point x="525" y="645"/>
      <point x="525" y="493" type="curve" smooth="yes"/>
      <point x="525" y="337"/>
      <point x="474" y="277"/>
      <point x="341" y="277" type="curve" smooth="yes"/>
    </contour>
    <contour>
      <point x="895" y="-10" type="curve" smooth="yes"/>
      <point x="972" y="-10"/>
      <point x="1020" y="9"/>
      <point x="1042" y="18" type="curve"/>
      <point x="1042" y="27" type="line"/>
      <point x="1021" y="15"/>
      <point x="1000" y="8"/>
      <point x="981" y="8" type="curve" smooth="yes"/>
      <point x="952" y="8"/>
      <point x="932" y="28"/>
      <point x="932" y="73" type="curve" smooth="yes"/>
      <point x="932" y="330" type="line"/>
      <point x="1061" y="330" type="line"/>
      <point x="1061" y="334" type="line"/>
      <point x="932" y="334" type="line"/>
      <point x="932" y="494" type="line"/>
      <point x="920" y="494" type="line"/>
      <point x="915" y="414"/>
      <point x="846" y="334"/>
      <point x="693" y="334" type="curve"/>
      <point x="693" y="330" type="line"/>
      <point x="754" y="330" type="line"/>
      <point x="754" y="115" type="line" smooth="yes"/>
      <point x="754" y="24"/>
      <point x="802" y="-10"/>
    </contour>
  </outline>
</glyph>
<glyph name="spesmilo" format="2">
  <advance width="652"/>
  <unicode hex="20B7"/>
  <outline>
    <contour>
      <point x="141" y="-89" type="line"/>
      <point x="208" y="-89" type="line"/>
      <point x="208" y="-4" type="line"/>
      <point x="223" y="-6"/>
      <point x="243" y="-7"/>
      <point x="260" y="-8" type="curve"/>
      <point x="260" y="-89" type="line"/>
      <point x="329" y="-89" type="line"/>
      <point x="329" y="-10" type="line"/>
      <point x="346" y="-9"/>
      <point x="365" y="-8"/>
      <point x="381" y="-6" type="curve"/>
      <point x="381" y="-89" type="line"/>
      <point x="448" y="-89" type="line"/>
      <point x="448" y="6" type="line"/>
      <point x="560" y="36"/>
      <point x="634" y="126"/>
      <point x="634" y="224" type="curve" smooth="yes"/>
      <point x="634" y="383"/>
      <point x="501" y="437"/>
      <point x="381" y="483" type="curve" smooth="yes"/>
      <point x="286" y="519"/>
      <point x="203" y="550"/>
      <point x="203" y="614" type="curve" smooth="yes"/>
      <point x="203" y="690"/>
      <point x="261" y="712"/>
      <point x="318" y="712" type="curve" smooth="yes"/>
      <point x="420" y="712"/>
      <point x="443" y="653"/>
      <point x="443" y="499" type="curve"/>
      <point x="550" y="499"/>
      <point x="623" y="538"/>
      <point x="623" y="607" type="curve" smooth="yes"/>
      <point x="623" y="676"/>
      <point x="552" y="724"/>
      <point x="352" y="724" type="curve" smooth="yes"/>
      <point x="189" y="724"/>
      <point x="54" y="650"/>
      <point x="54" y="535" type="curve" smooth="yes"/>
      <point x="54" y="383"/>
      <point x="185" y="339"/>
      <point x="248" y="312" type="curve" smooth="yes"/>
      <point x="356" y="264"/>
      <point x="516" y="240"/>
      <point x="516" y="133" type="curve" smooth="yes"/>
      <point x="516" y="73"/>
      <point x="484" y="46"/>
      <point x="448" y="31" type="curve"/>
      <point x="448" y="137" type="line" smooth="yes"/>
      <point x="448" y="192"/>
      <point x="414" y="217"/>
      <point x="371" y="217" type="curve" smooth="yes"/>
      <point x="347" y="217"/>
      <point x="325" y="206"/>
      <point x="318" y="182" type="curve"/>
      <point x="315" y="182" type="line"/>
      <point x="305" y="204"/>
      <point x="277" y="217"/>
      <point x="251" y="217" type="curve" smooth="yes"/>
      <point x="223" y="217"/>
      <point x="207" y="204"/>
      <point x="195" y="181" type="curve"/>
      <point x="193" y="181" type="line"/>
      <point x="179" y="201"/>
      <point x="157" y="219"/>
      <point x="124" y="219" type="curve" smooth="yes"/>
      <point x="62" y="219"/>
      <point x="31" y="190"/>
      <point x="31" y="131" type="curve" smooth="yes"/>
      <point x="31" y="87"/>
      <point x="58" y="35"/>
      <point x="141" y="11" type="curve"/>
    </contour>
    <contour>
      <point x="141" y="22" type="line"/>
      <point x="115" y="31"/>
      <point x="45" y="56"/>
      <point x="45" y="134" type="curve" smooth="yes"/>
      <point x="45" y="182"/>
      <point x="71" y="201"/>
      <point x="104" y="201" type="curve" smooth="yes"/>
      <point x="134" y="201"/>
      <point x="141" y="182"/>
      <point x="141" y="154" type="curve" smooth="yes"/>
    </contour>
    <contour>
      <point x="260" y="3" type="line"/>
      <point x="242" y="4"/>
      <point x="223" y="5"/>
      <point x="208" y="7" type="curve"/>
      <point x="208" y="157" type="line" smooth="yes"/>
      <point x="208" y="187"/>
      <point x="219" y="200"/>
      <point x="239" y="200" type="curve" smooth="yes"/>
      <point x="257" y="200"/>
      <point x="260" y="189"/>
      <point x="260" y="157" type="curve" smooth="yes"/>
    </contour>
    <contour>
      <point x="329" y="3" type="curve"/>
      <point x="329" y="157" type="line" smooth="yes"/>
      <point x="329" y="190"/>
      <point x="340" y="200"/>
      <point x="360" y="200" type="curve" smooth="yes"/>
      <point x="377" y="200"/>
      <point x="381" y="189"/>
      <point x="381" y="157" type="curve" smooth="yes"/>
      <point x="381" y="8" type="line"/>
      <point x="365" y="5"/>
      <point x="346" y="3"/>
    </contour>
  </outline>
</glyph>
<glyph name="uni20BB" format="2">
  <advance width="762"/>
  <unicode hex="20BB"/>
  <outline>
    <contour>
      <point x="503" y="-10" type="curve" smooth="yes"/>
      <point x="614" y="-10"/>
      <point x="689" y="42"/>
      <point x="689" y="105" type="curve" smooth="yes"/>
      <point x="689" y="180"/>
      <point x="671" y="194"/>
      <point x="642" y="205" type="curve"/>
      <point x="624" y="152"/>
      <point x="579" y="116"/>
      <point x="494" y="116" type="curve" smooth="yes"/>
      <point x="354" y="116"/>
      <point x="293" y="190"/>
      <point x="294" y="307" type="curve"/>
      <point x="340" y="346" type="line"/>
      <point x="405" y="226" type="line"/>
      <point x="484" y="329" type="line"/>
      <point x="544" y="224" type="line"/>
      <point x="621" y="235"/>
      <point x="710" y="297"/>
      <point x="710" y="412" type="curve" smooth="yes"/>
      <point x="710" y="543"/>
      <point x="611" y="590"/>
      <point x="492" y="590" type="curve" smooth="yes"/>
      <point x="414" y="590"/>
      <point x="352" y="578"/>
      <point x="292" y="569" type="curve"/>
      <point x="287" y="680"/>
      <point x="250" y="724"/>
      <point x="161" y="724" type="curve" smooth="yes"/>
      <point x="68" y="724"/>
      <point x="19" y="669"/>
      <point x="19" y="602" type="curve" smooth="yes"/>
      <point x="19" y="477"/>
      <point x="83" y="434"/>
      <point x="158" y="434" type="curve" smooth="yes"/>
      <point x="207" y="434"/>
      <point x="246" y="438"/>
      <point x="282" y="443" type="curve"/>
      <point x="282" y="311" type="line"/>
      <point x="128" y="185" type="line"/>
      <point x="136" y="177" type="line"/>
      <point x="282" y="298" type="line"/>
      <point x="282" y="64"/>
      <point x="322" y="-10"/>
    </contour>
    <contour>
      <point x="187" y="559" type="curve" smooth="yes"/>
      <point x="67" y="559"/>
      <point x="31" y="571"/>
      <point x="31" y="598" type="curve" smooth="yes"/>
      <point x="31" y="614"/>
      <point x="34" y="626"/>
      <point x="122" y="626" type="curve" smooth="yes"/>
      <point x="228" y="626"/>
      <point x="262" y="605"/>
      <point x="278" y="567" type="curve"/>
      <point x="248" y="561"/>
      <point x="219" y="559"/>
    </contour>
    <contour>
      <point x="607" y="259" type="curve"/>
      <point x="525" y="397" type="line"/>
      <point x="446" y="295" type="line"/>
      <point x="388" y="397" type="line"/>
      <point x="294" y="320" type="line"/>
      <point x="294" y="443" type="line"/>
      <point x="352" y="453"/>
      <point x="401" y="463"/>
      <point x="462" y="463" type="curve" smooth="yes"/>
      <point x="642" y="463"/>
      <point x="687" y="433"/>
      <point x="687" y="361" type="curve" smooth="yes"/>
      <point x="687" y="332"/>
      <point x="655" y="279"/>
    </contour>
  </outline>
</glyph>
<glyph name="addressedtothesubject" format="2">
  <advance width="982"/>
  <unicode hex="2101"/>
  <outline>
    <contour>
      <point x="161" y="380" type="curve" smooth="yes"/>
      <point x="219" y="380"/>
      <point x="286" y="406"/>
      <point x="298" y="512" type="curve"/>
      <point x="300" y="512" type="line"/>
      <point x="300" y="386" type="line"/>
      <point x="494" y="386" type="line"/>
      <point x="494" y="396" type="line"/>
      <point x="456" y="396"/>
      <point x="444" y="405"/>
      <point x="444" y="433" type="curve" smooth="yes"/>
      <point x="444" y="616" type="line" smooth="yes"/>
      <point x="444" y="689"/>
      <point x="379" y="719"/>
      <point x="252" y="719" type="curve" smooth="yes"/>
      <point x="123" y="719"/>
      <point x="61" y="685"/>
      <point x="61" y="630" type="curve" smooth="yes"/>
      <point x="61" y="599"/>
      <point x="100" y="607"/>
      <point x="196" y="607" type="curve"/>
      <point x="196" y="692"/>
      <point x="212" y="709"/>
      <point x="242" y="709" type="curve" smooth="yes"/>
      <point x="273" y="709"/>
      <point x="287" y="682"/>
      <point x="287" y="578" type="curve" smooth="yes"/>
      <point x="287" y="570" type="line"/>
      <point x="229" y="568" type="line" smooth="yes"/>
      <point x="93" y="563"/>
      <point x="29" y="555"/>
      <point x="29" y="475" type="curve" smooth="yes"/>
      <point x="29" y="407"/>
      <point x="79" y="380"/>
    </contour>
    <contour>
      <point x="228" y="428" type="curve" smooth="yes"/>
      <point x="202" y="428"/>
      <point x="186" y="451"/>
      <point x="186" y="484" type="curve" smooth="yes"/>
      <point x="186" y="525"/>
      <point x="211" y="555"/>
      <point x="267" y="559" type="curve" smooth="yes"/>
      <point x="287" y="560" type="line"/>
      <point x="287" y="522" type="line" smooth="yes"/>
      <point x="287" y="471"/>
      <point x="267" y="428"/>
    </contour>
    <contour>
      <point x="332" y="0" type="line"/>
      <point x="343" y="0" type="line"/>
      <point x="770" y="714" type="line"/>
      <point x="759" y="714" type="line"/>
    </contour>
    <contour>
      <point x="760" y="-11" type="curve" smooth="yes"/>
      <point x="908" y="-11"/>
      <point x="958" y="52"/>
      <point x="958" y="104" type="curve" smooth="yes"/>
      <point x="958" y="173"/>
      <point x="907" y="187"/>
      <point x="824" y="207" type="curve" smooth="yes"/>
      <point x="753" y="224"/>
      <point x="710" y="224"/>
      <point x="710" y="271" type="curve" smooth="yes"/>
      <point x="710" y="310"/>
      <point x="736" y="318"/>
      <point x="774" y="318" type="curve" smooth="yes"/>
      <point x="798" y="318"/>
      <point x="837" y="329"/>
      <point x="837" y="224" type="curve"/>
      <point x="922" y="224"/>
      <point x="941" y="236"/>
      <point x="941" y="266" type="curve" smooth="yes"/>
      <point x="941" y="292"/>
      <point x="897" y="328"/>
      <point x="775" y="328" type="curve" smooth="yes"/>
      <point x="655" y="328"/>
      <point x="587" y="298"/>
      <point x="587" y="219" type="curve" smooth="yes"/>
      <point x="587" y="164"/>
      <point x="634" y="137"/>
      <point x="718" y="117" type="curve" smooth="yes"/>
      <point x="732" y="119"/>
      <point x="826" y="111"/>
      <point x="826" y="48" type="curve" smooth="yes"/>
      <point x="826" y="15"/>
      <point x="796" y="-1"/>
      <point x="746" y="-1" type="curve" smooth="yes"/>
      <point x="697" y="-1"/>
      <point x="675" y="32"/>
      <point x="675" y="110" type="curve"/>
      <point x="589" y="110"/>
      <point x="577" y="95"/>
      <point x="577" y="58" type="curve" smooth="yes"/>
      <point x="577" y="16"/>
      <point x="621" y="-11"/>
    </contour>
  </outline>
</glyph>
<glyph name="planckconstant" format="2">
  <advance width="850"/>
  <unicode hex="210E"/>
  <outline>
    <contour>
      <point x="642" y="-10" type="curve" smooth="yes"/>
      <point x="724" y="-10"/>
      <point x="805" y="31"/>
      <point x="841" y="73" type="curve"/>
      <point x="835" y="81" type="line"/>
      <point x="800" y="47"/>
      <point x="759" y="20"/>
      <point x="720" y="20" type="curve" smooth="yes"/>
      <point x="698" y="20"/>
      <point x="685" y="34"/>
      <point x="685" y="61" type="curve" smooth="yes"/>
      <point x="685" y="88"/>
      <point x="694" y="117"/>
      <point x="701" y="153" type="curve" smooth="yes"/>
      <point x="734" y="314" type="line" smooth="yes"/>
      <point x="741" y="349"/>
      <point x="752" y="394"/>
      <point x="752" y="429" type="curve" smooth="yes"/>
      <point x="752" y="491"/>
      <point x="714" y="547"/>
      <point x="610" y="547" type="curve" smooth="yes"/>
      <point x="475" y="547"/>
      <point x="411" y="506"/>
      <point x="361" y="393" type="curve"/>
      <point x="359" y="393" type="line"/>
      <point x="365" y="407"/>
      <point x="384" y="494"/>
      <point x="388" y="513" type="curve" smooth="yes"/>
      <point x="441" y="760" type="line"/>
      <point x="117" y="760" type="line"/>
      <point x="117" y="750" type="line"/>
      <point x="153" y="750" type="line" smooth="yes"/>
      <point x="202" y="750"/>
      <point x="200" y="735"/>
      <point x="200" y="713" type="curve" smooth="yes"/>
      <point x="200" y="704"/>
      <point x="195" y="685"/>
      <point x="193" y="677" type="curve" smooth="yes"/>
      <point x="52" y="0" type="line"/>
      <point x="272" y="0" type="line"/>
      <point x="347" y="319" type="line" smooth="yes"/>
      <point x="358" y="363"/>
      <point x="374" y="401"/>
      <point x="393" y="434" type="curve" smooth="yes"/>
      <point x="419" y="478"/>
      <point x="455" y="508"/>
      <point x="498" y="508" type="curve" smooth="yes"/>
      <point x="523" y="508"/>
      <point x="536" y="488"/>
      <point x="536" y="455" type="curve" smooth="yes"/>
      <point x="536" y="423"/>
      <point x="525" y="373"/>
      <point x="520" y="348" type="curve" smooth="yes"/>
      <point x="489" y="202" type="line" smooth="yes"/>
      <point x="480" y="159"/>
      <point x="475" y="124"/>
      <point x="475" y="99" type="curve" smooth="yes"/>
      <point x="475" y="31"/>
      <point x="536" y="-10"/>
    </contour>
  </outline>
</glyph>
<glyph name="uni2117" format="2">
  <advance width="985"/>
  <unicode hex="2117"/>
  <outline>
    <contour>
      <point x="310" y="141" type="line"/>
      <point x="583" y="141" type="line"/>
      <point x="583" y="151" type="line"/>
      <point x="535" y="151" type="line" smooth="yes"/>
      <point x="514" y="151"/>
      <point x="478" y="149"/>
      <point x="478" y="176" type="curve" smooth="yes"/>
      <point x="478" y="276" type="line"/>
      <point x="554" y="276" type="line" smooth="yes"/>
      <point x="688" y="276"/>
      <point x="761" y="320"/>
      <point x="761" y="432" type="curve" smooth="yes"/>
      <point x="761" y="529"/>
      <point x="693" y="585"/>
      <point x="560" y="585" type="curve" smooth="yes"/>
      <point x="310" y="585" type="line"/>
      <point x="310" y="575" type="line"/>
      <point x="318" y="575" type="line" smooth="yes"/>
      <point x="339" y="575"/>
      <point x="375" y="575"/>
      <point x="375" y="540" type="curve" smooth="yes"/>
      <point x="375" y="186" type="line" smooth="yes"/>
      <point x="375" y="151"/>
      <point x="339" y="151"/>
      <point x="318" y="151" type="curve" smooth="yes"/>
      <point x="310" y="151" type="line"/>
    </contour>
    <contour>
      <point x="478" y="286" type="line"/>
      <point x="478" y="575" type="line"/>
      <point x="524" y="575" type="line" smooth="yes"/>
      <point x="617" y="575"/>
      <point x="659" y="525"/>
      <point x="659" y="435" type="curve" smooth="yes"/>
      <point x="659" y="324"/>
      <point x="615" y="286"/>
      <point x="529" y="286" type="curve" smooth="yes"/>
    </contour>
    <contour>
      <point x="491" y="-10" type="curve" smooth="yes"/>
      <point x="735" y="-10"/>
      <point x="929" y="158"/>
      <point x="929" y="356" type="curve" smooth="yes"/>
      <point x="929" y="556"/>
      <point x="734" y="725"/>
      <point x="490" y="725" type="curve" smooth="yes"/>
      <point x="248" y="725"/>
      <point x="57" y="554"/>
      <point x="57" y="358" type="curve" smooth="yes"/>
      <point x="57" y="158"/>
      <point x="251" y="-10"/>
    </contour>
    <contour>
      <point x="493" y="0" type="curve" smooth="yes"/>
      <point x="271" y="0"/>
      <point x="69" y="156"/>
      <point x="69" y="357" type="curve" smooth="yes"/>
      <point x="69" y="550"/>
      <point x="257" y="715"/>
      <point x="491" y="715" type="curve" smooth="yes"/>
      <point x="728" y="715"/>
      <point x="917" y="549"/>
      <point x="917" y="358" type="curve" smooth="yes"/>
      <point x="917" y="166"/>
      <point x="725" y="0"/>
    </contour>
  </outline>
</glyph>
<glyph name="telephone" format="2">
  <advance width="1134"/>
  <unicode hex="2121"/>
  <outline>
    <contour>
      <point x="109" y="368" type="line"/>
      <point x="299" y="368" type="line"/>
      <point x="299" y="378" type="line"/>
      <point x="273" y="378" type="line" smooth="yes"/>
      <point x="262" y="378"/>
      <point x="235" y="379"/>
      <point x="235" y="409" type="curve" smooth="yes"/>
      <point x="235" y="704" type="line"/>
      <point x="295" y="704" type="line" smooth="yes"/>
      <point x="346" y="704"/>
      <point x="363" y="688"/>
      <point x="367" y="638" type="curve" smooth="yes"/>
      <point x="368" y="623" type="line"/>
      <point x="378" y="623" type="line"/>
      <point x="375" y="714" type="line"/>
      <point x="35" y="714" type="line"/>
      <point x="32" y="623" type="line"/>
      <point x="42" y="623" type="line"/>
      <point x="43" y="638" type="line" smooth="yes"/>
      <point x="46" y="688"/>
      <point x="63" y="704"/>
      <point x="113" y="704" type="curve" smooth="yes"/>
      <point x="173" y="704" type="line"/>
      <point x="173" y="406" type="line" smooth="yes"/>
      <point x="173" y="379"/>
      <point x="148" y="378"/>
      <point x="136" y="378" type="curve" smooth="yes"/>
      <point x="109" y="378" type="line"/>
    </contour>
    <contour>
      <point x="397" y="368" type="line"/>
      <point x="727" y="368" type="line"/>
      <point x="731" y="459" type="line"/>
      <point x="721" y="459" type="line"/>
      <point x="720" y="443" type="line" smooth="yes"/>
      <point x="717" y="394"/>
      <point x="699" y="378"/>
      <point x="645" y="378" type="curve" smooth="yes"/>
      <point x="514" y="378" type="line"/>
      <point x="514" y="542" type="line"/>
      <point x="672" y="542" type="line"/>
      <point x="672" y="552" type="line"/>
      <point x="514" y="552" type="line"/>
      <point x="514" y="704" type="line"/>
      <point x="626" y="704" type="line" smooth="yes"/>
      <point x="676" y="704"/>
      <point x="694" y="689"/>
      <point x="700" y="640" type="curve" smooth="yes"/>
      <point x="702" y="623" type="line"/>
      <point x="712" y="623" type="line"/>
      <point x="709" y="714" type="line"/>
      <point x="397" y="714" type="line"/>
      <point x="397" y="704" type="line"/>
      <point x="415" y="704" type="line" smooth="yes"/>
      <point x="429" y="704"/>
      <point x="455" y="703"/>
      <point x="455" y="673" type="curve" smooth="yes"/>
      <point x="455" y="407" type="line" smooth="yes"/>
      <point x="455" y="379"/>
      <point x="429" y="378"/>
      <point x="415" y="378" type="curve" smooth="yes"/>
      <point x="397" y="378" type="line"/>
    </contour>
    <contour>
      <point x="750" y="368" type="line"/>
      <point x="1080" y="368" type="line"/>
      <point x="1084" y="478" type="line"/>
      <point x="1074" y="478" type="line"/>
      <point x="1072" y="454" type="line" smooth="yes"/>
      <point x="1068" y="396"/>
      <point x="1047" y="378"/>
      <point x="991" y="378" type="curve" smooth="yes"/>
      <point x="875" y="378" type="line"/>
      <point x="875" y="657" type="line" smooth="yes"/>
      <point x="875" y="707"/>
      <point x="905" y="704"/>
      <point x="922" y="704" type="curve" smooth="yes"/>
      <point x="938" y="704" type="line"/>
      <point x="938" y="714" type="line"/>
      <point x="750" y="714" type="line"/>
      <point x="750" y="704" type="line"/>
      <point x="772" y="704" type="line" smooth="yes"/>
      <point x="788" y="704"/>
      <point x="816" y="708"/>
      <point x="816" y="655" type="curve" smooth="yes"/>
      <point x="816" y="409" type="line" smooth="yes"/>
      <point x="816" y="379"/>
      <point x="788" y="378"/>
      <point x="772" y="378" type="curve" smooth="yes"/>
      <point x="750" y="378" type="line"/>
    </contour>
  </outline>
</glyph>
<glyph name="uni2C60" format="2">
  <advance width="790"/>
  <unicode hex="2C60"/>
  <anchor x="396" y="0" name="bottom"/>
  <anchor x="396" y="714" name="top"/>
  <anchor x="770" y="714" name="topright"/>
  <anchor x="396" y="357" name="center"/>
  <outline>
    <contour>
      <point x="7" y="431" type="line"/>
      <point x="547" y="431" type="line"/>
      <point x="547" y="441" type="line"/>
      <point x="7" y="441" type="line"/>
    </contour>
    <contour>
      <point x="7" y="303" type="line"/>
      <point x="547" y="303" type="line"/>
      <point x="547" y="313" type="line"/>
      <point x="7" y="313" type="line"/>
    </contour>
    <component base="L"/>
  </outline>
</glyph>
<glyph name="uni2C61" format="2">
  <advance width="447"/>
  <unicode hex="2C61"/>
  <anchor x="224" y="0" name="bottom"/>
  <anchor x="224" y="760" name="top"/>
  <anchor x="387" y="760" name="topright"/>
  <anchor x="224" y="268" name="center"/>
  <outline>
    <contour>
      <point x="27" y="437" type="line"/>
      <point x="427" y="437" type="line"/>
      <point x="427" y="447" type="line"/>
      <point x="27" y="447" type="line"/>
    </contour>
    <contour>
      <point x="27" y="311" type="line"/>
      <point x="427" y="311" type="line"/>
      <point x="427" y="321" type="line"/>
      <point x="27" y="321" type="line"/>
    </contour>
    <component base="l"/>
  </outline>
</glyph>
<glyph name="leftsubstitutionbracket" format="2">
  <advance width="399"/>
  <unicode hex="2E02"/>
  <outline>
    <contour>
      <point x="79" y="246" type="line"/>
      <point x="99" y="246" type="line"/>
      <point x="99" y="583" type="line"/>
      <point x="321" y="695" type="line"/>
      <point x="312" y="713" type="line"/>
      <point x="79" y="593" type="line"/>
    </contour>
  </outline>
</glyph>
<glyph name="raisedinterpolationmarker" format="2">
  <advance width="596"/>
  <unicode hex="2E06"/>
  <outline>
    <contour>
      <point x="287" y="246" type="line"/>
      <point x="309" y="246" type="line"/>
      <point x="309" y="669" type="line"/>
      <point x="553" y="669" type="line"/>
      <point x="553" y="689" type="line"/>
      <point x="44" y="689" type="line"/>
      <point x="44" y="669" type="line"/>
      <point x="287" y="669" type="line"/>
    </contour>
  </outline>
</glyph>
<glyph name="fivedotmark" format="2">
  <advance width="772"/>
  <unicode hex="2E2D"/>
  <outline>
    <contour>
      <point x="384" y="414" type="curve" smooth="yes"/>
      <point x="444" y="414"/>
      <point x="494" y="434"/>
      <point x="494" y="512" type="curve" smooth="yes"/>
      <point x="494" y="591"/>
      <point x="444" y="612"/>
      <point x="384" y="612" type="curve" smooth="yes"/>
      <point x="322" y="612"/>
      <point x="272" y="591"/>
      <point x="272" y="512" type="curve" smooth="yes"/>
      <point x="272" y="434"/>
      <point x="322" y="414"/>
    </contour>
    <contour>
      <point x="643" y="191" type="curve" smooth="yes"/>
      <point x="703" y="191"/>
      <point x="753" y="211"/>
      <point x="753" y="289" type="curve" smooth="yes"/>
      <point x="753" y="368"/>
      <point x="703" y="389"/>
      <point x="643" y="389" type="curve" smooth="yes"/>
      <point x="581" y="389"/>
      <point x="531" y="368"/>
      <point x="531" y="289" type="curve" smooth="yes"/>
      <point x="531" y="211"/>
      <point x="581" y="191"/>
    </contour>
    <contour>
      <point x="125" y="191" type="curve" smooth="yes"/>
      <point x="185" y="191"/>
      <point x="235" y="211"/>
      <point x="235" y="289" type="curve" smooth="yes"/>
      <point x="235" y="368"/>
      <point x="185" y="389"/>
      <point x="125" y="389" type="curve" smooth="yes"/>
      <point x="63" y="389"/>
      <point x="13" y="368"/>
      <point x="13" y="289" type="curve" smooth="yes"/>
      <point x="13" y="211"/>
      <point x="63" y="191"/>
    </contour>
    <contour>
      <point x="384" y="191" type="curve" smooth="yes"/>
      <point x="444" y="191"/>
      <point x="494" y="211"/>
      <point x="494" y="289" type="curve" smooth="yes"/>
      <point x="494" y="368"/>
      <point x="444" y="389"/>
      <point x="384" y="389" type="curve" smooth="yes"/>
      <point x="322" y="389"/>
      <point x="272" y="368"/>
      <point x="272" y="289" type="curve" smooth="yes"/>
      <point x="272" y="211"/>
      <point x="322" y="191"/>
    </contour>
    <contour>
      <point x="384" y="-14" type="curve" smooth="yes"/>
      <point x="444" y="-14"/>
      <point x="494" y="6"/>
      <point x="494" y="84" type="curve" smooth="yes"/>
      <point x="494" y="163"/>
      <point x="444" y="182"/>
      <point x="384" y="182" type="curve" smooth="yes"/>
      <point x="322" y="182"/>
      <point x="272" y="163"/>
      <point x="272" y="84" type="curve" smooth="yes"/>
      <point x="272" y="6"/>
      <point x="322" y="-14"/>
    </contour>
  </outline>
</glyph>
<glyph name="daggerwithrightguard" format="2">
  <advance width="583"/>
  <unicode hex="2E37"/>
  <outline>
    <contour>
      <point x="286" y="-111" type="curve"/>
      <point x="296" y="-111" type="line"/>
      <point x="296" y="134"/>
      <point x="356" y="270"/>
      <point x="387" y="355" type="curve"/>
      <point x="294" y="515" type="line"/>
      <point x="542" y="440" type="line"/>
      <point x="542" y="593" type="line"/>
      <point x="294" y="520" type="line"/>
      <point x="375" y="760" type="line"/>
      <point x="203" y="760" type="line"/>
      <point x="289" y="517" type="line"/>
      <point x="192" y="355" type="line"/>
      <point x="226" y="270"/>
      <point x="286" y="134"/>
    </contour>
  </outline>
</glyph>
<glyph name="tophalfsectionsign" format="2">
  <advance width="634"/>
  <unicode hex="2E39"/>
  <outline>
    <contour>
      <point x="451" y="67" type="curve"/>
      <point x="549" y="156"/>
      <point x="597" y="230"/>
      <point x="597" y="318" type="curve" smooth="yes"/>
      <point x="597" y="368"/>
      <point x="574" y="412"/>
      <point x="402" y="481" type="curve" smooth="yes"/>
      <point x="348" y="495"/>
      <point x="217" y="522"/>
      <point x="217" y="655" type="curve" smooth="yes"/>
      <point x="217" y="737"/>
      <point x="276" y="751"/>
      <point x="312" y="751" type="curve" smooth="yes"/>
      <point x="407" y="751"/>
      <point x="422" y="712"/>
      <point x="422" y="554" type="curve"/>
      <point x="517" y="554"/>
      <point x="553" y="601"/>
      <point x="553" y="644" type="curve" smooth="yes"/>
      <point x="553" y="706"/>
      <point x="473" y="760"/>
      <point x="334" y="760" type="curve" smooth="yes"/>
      <point x="186" y="760"/>
      <point x="90" y="695"/>
      <point x="90" y="600" type="curve" smooth="yes"/>
      <point x="90" y="539"/>
      <point x="125" y="494"/>
      <point x="169" y="461" type="curve"/>
      <point x="93" y="443"/>
      <point x="64" y="400"/>
      <point x="64" y="356" type="curve" smooth="yes"/>
      <point x="64" y="208"/>
      <point x="246" y="175"/>
      <point x="324" y="143" type="curve" smooth="yes"/>
      <point x="359" y="129"/>
      <point x="410" y="112"/>
    </contour>
    <contour>
      <point x="527" y="166" type="curve"/>
      <point x="500" y="197"/>
      <point x="445" y="234"/>
      <point x="323" y="290" type="curve" smooth="yes"/>
      <point x="269" y="310"/>
      <point x="164" y="353"/>
      <point x="164" y="425" type="curve" smooth="yes"/>
      <point x="164" y="437"/>
      <point x="167" y="442"/>
      <point x="175" y="457" type="curve"/>
      <point x="226" y="419"/>
      <point x="288" y="397"/>
      <point x="332" y="380" type="curve" smooth="yes"/>
      <point x="482" y="316"/>
      <point x="539" y="273"/>
      <point x="539" y="209" type="curve" smooth="yes"/>
      <point x="539" y="195"/>
      <point x="535" y="184"/>
    </contour>
  </outline>
</glyph>
<glyph name="uni2E3F" format="2">
  <advance width="806"/>
  <unicode hex="2E3F"/>
  <outline>
    <contour>
      <point x="262" y="-111" type="line"/>
      <point x="468" y="-111" type="line"/>
      <point x="468" y="246" type="line"/>
      <point x="556" y="246" type="line"/>
      <point x="556" y="-111" type="line"/>
      <point x="761" y="-111" type="line"/>
      <point x="761" y="-101" type="line"/>
      <point x="737" y="-101" type="line" smooth="yes"/>
      <point x="706" y="-101"/>
      <point x="650" y="-100"/>
      <point x="650" y="-29" type="curve" smooth="yes"/>
      <point x="650" y="246" type="line"/>
      <point x="749" y="246" type="line"/>
      <point x="749" y="256" type="line"/>
      <point x="650" y="256" type="line"/>
      <point x="650" y="704" type="line"/>
      <point x="761" y="704" type="line"/>
      <point x="761" y="714" type="line"/>
      <point x="650" y="714" type="line"/>
      <point x="650" y="790" type="line"/>
      <point x="556" y="790" type="line"/>
      <point x="556" y="714" type="line"/>
      <point x="468" y="714" type="line"/>
      <point x="468" y="790" type="line"/>
      <point x="372" y="790" type="line"/>
      <point x="372" y="712" type="line"/>
      <point x="145" y="705"/>
      <point x="24" y="627"/>
      <point x="24" y="486" type="curve" smooth="yes"/>
      <point x="24" y="340"/>
      <point x="143" y="251"/>
      <point x="372" y="247" type="curve"/>
      <point x="372" y="-29" type="line" smooth="yes"/>
      <point x="372" y="-100"/>
      <point x="317" y="-101"/>
      <point x="286" y="-101" type="curve" smooth="yes"/>
      <point x="262" y="-101" type="line"/>
    </contour>
    <contour>
      <point x="372" y="260" type="line"/>
      <point x="288" y="269"/>
      <point x="261" y="322"/>
      <point x="261" y="485" type="curve" smooth="yes"/>
      <point x="261" y="642"/>
      <point x="288" y="694"/>
      <point x="372" y="700" type="curve"/>
    </contour>
    <contour>
      <point x="468" y="256" type="line"/>
      <point x="468" y="704" type="line"/>
      <point x="556" y="704" type="line"/>
      <point x="556" y="256" type="line"/>
    </contour>
  </outline>
</glyph>
<glyph name="uniA64F" format="2">
  <advance width="858"/>
  <unicode hex="A64F"/>
  <outline>
    <contour>
      <point x="157" y="0" type="line"/>
      <point x="571" y="0" type="line" smooth="yes"/>
      <point x="759" y="0"/>
      <point x="849" y="67"/>
      <point x="849" y="155" type="curve" smooth="yes"/>
      <point x="849" y="283"/>
      <point x="725" y="313"/>
      <point x="582" y="313" type="curve" smooth="yes"/>
      <point x="471" y="313" type="line"/>
      <point x="471" y="366" type="line" smooth="yes"/>
      <point x="471" y="494"/>
      <point x="389" y="550"/>
      <point x="217" y="550" type="curve" smooth="yes"/>
      <point x="45" y="550"/>
      <point x="6" y="488"/>
      <point x="6" y="447" type="curve" smooth="yes"/>
      <point x="6" y="403"/>
      <point x="40" y="378"/>
      <point x="158" y="378" type="curve"/>
      <point x="158" y="517"/>
      <point x="170" y="541"/>
      <point x="204" y="541" type="curve" smooth="yes"/>
      <point x="235" y="541"/>
      <point x="244" y="532"/>
      <point x="244" y="450" type="curve" smooth="yes"/>
      <point x="244" y="71" type="line" smooth="yes"/>
      <point x="244" y="39"/>
      <point x="233" y="10"/>
      <point x="169" y="10" type="curve" smooth="yes"/>
      <point x="157" y="10" type="line"/>
    </contour>
    <contour>
      <point x="471" y="10" type="line"/>
      <point x="471" y="303" type="line"/>
      <point x="508" y="303" type="line" smooth="yes"/>
      <point x="586" y="303"/>
      <point x="615" y="261"/>
      <point x="615" y="160" type="curve" smooth="yes"/>
      <point x="615" y="44"/>
      <point x="588" y="10"/>
      <point x="510" y="10" type="curve" smooth="yes"/>
    </contour>
  </outline>
</glyph>
<glyph name="uniA654" format="2">
  <advance width="1360"/>
  <unicode hex="A654"/>
  <outline>
    <contour>
      <point x="470" y="-10" type="curve" smooth="yes"/>
      <point x="710" y="-10"/>
      <point x="868" y="129"/>
      <point x="868" y="365" type="curve"/>
      <point x="977" y="365" type="line"/>
      <point x="977" y="50" type="line" smooth="yes"/>
      <point x="977" y="19"/>
      <point x="961" y="10"/>
      <point x="911" y="10" type="curve" smooth="yes"/>
      <point x="892" y="10" type="line"/>
      <point x="892" y="0" type="line"/>
      <point x="1320" y="0" type="line"/>
      <point x="1320" y="10" type="line"/>
      <point x="1274" y="10" type="line" smooth="yes"/>
      <point x="1226" y="10"/>
      <point x="1210" y="21"/>
      <point x="1210" y="55" type="curve" smooth="yes"/>
      <point x="1210" y="653" type="line" smooth="yes"/>
      <point x="1210" y="692"/>
      <point x="1226" y="704"/>
      <point x="1274" y="704" type="curve" smooth="yes"/>
      <point x="1320" y="704" type="line"/>
      <point x="1320" y="714" type="line"/>
      <point x="892" y="714" type="line"/>
      <point x="892" y="704" type="line"/>
      <point x="911" y="704" type="line" smooth="yes"/>
      <point x="961" y="704"/>
      <point x="977" y="692"/>
      <point x="977" y="656" type="curve" smooth="yes"/>
      <point x="977" y="375" type="line"/>
      <point x="868" y="375" type="line"/>
      <point x="860" y="587"/>
      <point x="710" y="725"/>
      <point x="473" y="725" type="curve" smooth="yes"/>
      <point x="188" y="725"/>
      <point x="63" y="580"/>
      <point x="63" y="360" type="curve" smooth="yes"/>
      <point x="63" y="137"/>
      <point x="188" y="-10"/>
    </contour>
    <contour>
      <point x="470" y="0" type="curve" smooth="yes"/>
      <point x="352" y="0"/>
      <point x="309" y="100"/>
      <point x="309" y="358" type="curve" smooth="yes"/>
      <point x="309" y="615"/>
      <point x="352" y="715"/>
      <point x="473" y="715" type="curve" smooth="yes"/>
      <point x="586" y="715"/>
      <point x="627" y="615"/>
      <point x="627" y="358" type="curve" smooth="yes"/>
      <point x="627" y="100"/>
      <point x="584" y="0"/>
    </contour>
  </outline>
</glyph>
<glyph name="uniA65B" format="2">
  <advance width="968"/>
  <unicode hex="A65B"/>
  <outline>
    <contour>
      <point x="16" y="0" type="line"/>
      <point x="283" y="0" type="line"/>
      <point x="283" y="154" type="line"/>
      <point x="376" y="154" type="line"/>
      <point x="376" y="60" type="line" smooth="yes"/>
      <point x="376" y="32"/>
      <point x="356" y="10"/>
      <point x="343" y="10" type="curve" smooth="yes"/>
      <point x="325" y="10" type="line"/>
      <point x="325" y="0" type="line"/>
      <point x="641" y="0" type="line"/>
      <point x="641" y="10" type="line"/>
      <point x="617" y="10" type="line" smooth="yes"/>
      <point x="601" y="10"/>
      <point x="587" y="34"/>
      <point x="587" y="56" type="curve" smooth="yes"/>
      <point x="587" y="154" type="line"/>
      <point x="683" y="154" type="line"/>
      <point x="683" y="0" type="line"/>
      <point x="952" y="0" type="line"/>
      <point x="952" y="10" type="line"/>
      <point x="903" y="10"/>
      <point x="881" y="27"/>
      <point x="881" y="72" type="curve" smooth="yes"/>
      <point x="881" y="150" type="line" smooth="yes"/>
      <point x="881" y="249"/>
      <point x="836" y="326"/>
      <point x="584" y="326" type="curve"/>
      <point x="837" y="526" type="line"/>
      <point x="837" y="536" type="line"/>
      <point x="96" y="536" type="line"/>
      <point x="96" y="526" type="line"/>
      <point x="330" y="326" type="line"/>
      <point x="127" y="326"/>
      <point x="84" y="243"/>
      <point x="84" y="150" type="curve" smooth="yes"/>
      <point x="84" y="72" type="line" smooth="yes"/>
      <point x="84" y="27"/>
      <point x="60" y="10"/>
      <point x="16" y="10" type="curve"/>
    </contour>
    <contour>
      <point x="283" y="164" type="line"/>
      <point x="283" y="283"/>
      <point x="325" y="316"/>
      <point x="422" y="316" type="curve" smooth="yes"/>
      <point x="543" y="316" type="line" smooth="yes"/>
      <point x="640" y="316"/>
      <point x="683" y="283"/>
      <point x="683" y="164" type="curve"/>
    </contour>
    <contour>
      <point x="563" y="326" type="line"/>
      <point x="371" y="526" type="line"/>
      <point x="820" y="526" type="line"/>
      <point x="566" y="326" type="line"/>
    </contour>
  </outline>
</glyph>
<glyph name="uniA65E" format="2">
  <advance width="1054"/>
  <unicode hex="A65E"/>
  <outline>
    <contour>
      <point x="239" y="-240" type="line"/>
      <point x="688" y="-240" type="line"/>
      <point x="688" y="-230" type="line"/>
      <point x="656" y="-230" type="line" smooth="yes"/>
      <point x="652" y="-230"/>
      <point x="585" y="-230"/>
      <point x="585" y="-165" type="curve" smooth="yes"/>
      <point x="585" y="421" type="line"/>
      <point x="699" y="90" type="line" smooth="yes"/>
      <point x="710" y="61"/>
      <point x="714" y="44"/>
      <point x="714" y="29" type="curve" smooth="yes"/>
      <point x="714" y="22"/>
      <point x="713" y="10"/>
      <point x="684" y="10" type="curve" smooth="yes"/>
      <point x="672" y="10" type="line"/>
      <point x="674" y="0" type="line"/>
      <point x="1054" y="0" type="line"/>
      <point x="1052" y="10" type="line"/>
      <point x="1042" y="10" type="line" smooth="yes"/>
      <point x="1022" y="10"/>
      <point x="973" y="20"/>
      <point x="956" y="60" type="curve" smooth="yes"/>
      <point x="671" y="714" type="line"/>
      <point x="377" y="714" type="line"/>
      <point x="271" y="229" type="line" smooth="yes"/>
      <point x="256" y="156"/>
      <point x="209" y="128"/>
      <point x="157" y="128" type="curve" smooth="yes"/>
      <point x="123" y="128"/>
      <point x="94" y="154"/>
      <point x="85" y="191" type="curve"/>
      <point x="30" y="177"/>
      <point x="3" y="142"/>
      <point x="3" y="90" type="curve" smooth="yes"/>
      <point x="3" y="31"/>
      <point x="42" y="-6"/>
      <point x="109" y="-6" type="curve" smooth="yes"/>
      <point x="180" y="-6"/>
      <point x="262" y="54"/>
      <point x="287" y="195" type="curve" smooth="yes"/>
      <point x="342" y="482" type="line"/>
      <point x="342" y="-165" type="line" smooth="yes"/>
      <point x="342" y="-230"/>
      <point x="275" y="-230"/>
      <point x="271" y="-230" type="curve" smooth="yes"/>
      <point x="239" y="-230" type="line"/>
    </contour>
  </outline>
</glyph>
<glyph name="uniA663" format="2">
  <advance width="943"/>
  <unicode hex="A663"/>
  <outline>
    <contour>
      <point x="20" y="-210" type="line"/>
      <point x="30" y="-210" type="line"/>
      <point x="30" y="-172" type="line" smooth="yes"/>
      <point x="32" y="-42"/>
      <point x="78" y="0"/>
      <point x="220" y="0" type="curve" smooth="yes"/>
      <point x="536" y="0" type="line" smooth="yes"/>
      <point x="672" y="0"/>
      <point x="722" y="-42"/>
      <point x="726" y="-171" type="curve" smooth="yes"/>
      <point x="727" y="-210" type="line"/>
      <point x="737" y="-210" type="line"/>
      <point x="737" y="10" type="line"/>
      <point x="704" y="10" type="line" smooth="yes"/>
      <point x="650" y="10"/>
      <point x="628" y="28"/>
      <point x="628" y="80" type="curve" smooth="yes"/>
      <point x="628" y="526" type="line"/>
      <point x="582" y="526" type="line" smooth="yes"/>
      <point x="843" y="526"/>
      <point x="894" y="487"/>
      <point x="900" y="368" type="curve" smooth="yes"/>
      <point x="902" y="339" type="line"/>
      <point x="912" y="339" type="line"/>
      <point x="919" y="536" type="line"/>
      <point x="116" y="536" type="line"/>
      <point x="116" y="525" type="line"/>
      <point x="153" y="525" type="line" smooth="yes"/>
      <point x="206" y="525"/>
      <point x="264" y="521"/>
      <point x="264" y="388" type="curve" smooth="yes"/>
      <point x="264" y="316"/>
      <point x="253" y="264"/>
      <point x="234" y="217" type="curve" smooth="yes"/>
      <point x="208" y="146"/>
      <point x="173" y="83"/>
      <point x="125" y="10" type="curve"/>
      <point x="20" y="10" type="line"/>
    </contour>
    <contour>
      <point x="135" y="10" type="line"/>
      <point x="251" y="164"/>
      <point x="296" y="342"/>
      <point x="288" y="526" type="curve"/>
      <point x="420" y="526" type="line"/>
      <point x="420" y="10" type="line"/>
    </contour>
  </outline>
</glyph>
<glyph name="uniA667" format="2">
  <advance width="1163"/>
  <unicode hex="A667"/>
  <outline>
    <contour>
      <point x="19" y="0" type="line"/>
      <point x="267" y="0" type="line"/>
      <point x="267" y="10" type="line"/>
      <point x="239" y="10" type="line" smooth="yes"/>
      <point x="187" y="10"/>
      <point x="172" y="25"/>
      <point x="172" y="84" type="curve" smooth="yes"/>
      <point x="172" y="482" type="line"/>
      <point x="174" y="482" type="line"/>
      <point x="374" y="0" type="line"/>
      <point x="467" y="0" type="line"/>
      <point x="649" y="537" type="line"/>
      <point x="651" y="537" type="line"/>
      <point x="651" y="84" type="line" smooth="yes"/>
      <point x="651" y="25"/>
      <point x="626" y="10"/>
      <point x="577" y="10" type="curve" smooth="yes"/>
      <point x="563" y="10" type="line"/>
      <point x="563" y="0" type="line"/>
      <point x="955" y="0" type="line"/>
      <point x="955" y="10" type="line"/>
      <point x="946" y="10" type="line" smooth="yes"/>
      <point x="883" y="10"/>
      <point x="862" y="25"/>
      <point x="862" y="84" type="curve" smooth="yes"/>
      <point x="862" y="526" type="line"/>
      <point x="810" y="526" type="line" smooth="yes"/>
      <point x="1071" y="526"/>
      <point x="1122" y="487"/>
      <point x="1128" y="368" type="curve" smooth="yes"/>
      <point x="1130" y="339" type="line"/>
      <point x="1140" y="339" type="line"/>
      <point x="1147" y="536" type="line"/>
      <point x="639" y="536" type="line"/>
      <point x="518" y="183" type="line"/>
      <point x="377" y="536" type="line"/>
      <point x="19" y="536" type="line"/>
      <point x="19" y="526" type="line"/>
      <point x="22" y="526" type="line" smooth="yes"/>
      <point x="132" y="526"/>
      <point x="162" y="512"/>
      <point x="162" y="457" type="curve" smooth="yes"/>
      <point x="162" y="81" type="line" smooth="yes"/>
      <point x="162" y="25"/>
      <point x="136" y="10"/>
      <point x="96" y="10" type="curve" smooth="yes"/>
      <point x="19" y="10" type="line"/>
    </contour>
  </outline>
</glyph>
<glyph name="uniA68A" format="2">
  <advance width="1049"/>
  <unicode hex="A68A"/>
  <outline>
    <contour>
      <point x="615" y="-233" type="line"/>
      <point x="645" y="-233" type="line" smooth="yes"/>
      <point x="834" y="-233"/>
      <point x="975" y="-176"/>
      <point x="975" y="3" type="curve" smooth="yes"/>
      <point x="975" y="234" type="line" smooth="yes"/>
      <point x="975" y="362"/>
      <point x="880" y="438"/>
      <point x="704" y="438" type="curve" smooth="yes"/>
      <point x="589" y="438"/>
      <point x="528" y="416"/>
      <point x="493" y="404" type="curve"/>
      <point x="493" y="704" type="line"/>
      <point x="574" y="704" type="line" smooth="yes"/>
      <point x="684" y="704"/>
      <point x="721" y="666"/>
      <point x="734" y="544" type="curve" smooth="yes"/>
      <point x="739" y="492" type="line"/>
      <point x="749" y="492" type="line"/>
      <point x="742" y="714" type="line"/>
      <point x="11" y="714" type="line"/>
      <point x="4" y="492" type="line"/>
      <point x="14" y="492" type="line"/>
      <point x="17" y="544" type="line" smooth="yes"/>
      <point x="24" y="666"/>
      <point x="69" y="704"/>
      <point x="179" y="704" type="curve" smooth="yes"/>
      <point x="258" y="704" type="line"/>
      <point x="258" y="73" type="line" smooth="yes"/>
      <point x="258" y="10"/>
      <point x="222" y="10"/>
      <point x="185" y="10" type="curve" smooth="yes"/>
      <point x="169" y="10" type="line"/>
      <point x="169" y="0" type="line"/>
      <point x="579" y="0" type="line"/>
      <point x="579" y="10" type="line"/>
      <point x="566" y="10" type="line" smooth="yes"/>
      <point x="531" y="10"/>
      <point x="493" y="8"/>
      <point x="493" y="65" type="curve" smooth="yes"/>
      <point x="493" y="394" type="line"/>
      <point x="516" y="401"/>
      <point x="567" y="414"/>
      <point x="618" y="414" type="curve" smooth="yes"/>
      <point x="721" y="414"/>
      <point x="740" y="355"/>
      <point x="740" y="174" type="curve" smooth="yes"/>
      <point x="740" y="-75" type="line" smooth="yes"/>
      <point x="740" y="-185"/>
      <point x="686" y="-223"/>
      <point x="621" y="-223" type="curve" smooth="yes"/>
      <point x="615" y="-223" type="line"/>
    </contour>
  </outline>
</glyph>
<glyph name="uniA68C" format="2">
  <advance width="795"/>
  <unicode hex="A68C"/>
  <outline>
    <contour>
      <point x="496" y="-8" type="curve" smooth="yes"/>
      <point x="580" y="-8"/>
      <point x="631" y="2"/>
      <point x="667" y="10" type="curve"/>
      <point x="667" y="20" type="line"/>
      <point x="643" y="15"/>
      <point x="622" y="12"/>
      <point x="606" y="12" type="curve" smooth="yes"/>
      <point x="558" y="12"/>
      <point x="516" y="23"/>
      <point x="516" y="78" type="curve" smooth="yes"/>
      <point x="516" y="704" type="line"/>
      <point x="765" y="704" type="line"/>
      <point x="765" y="714" type="line"/>
      <point x="11" y="714" type="line"/>
      <point x="4" y="497" type="line"/>
      <point x="14" y="497" type="line"/>
      <point x="17" y="554" type="line" smooth="yes"/>
      <point x="22" y="668"/>
      <point x="70" y="704"/>
      <point x="189" y="704" type="curve" smooth="yes"/>
      <point x="281" y="704" type="line"/>
      <point x="281" y="168" type="line" smooth="yes"/>
      <point x="281" y="54"/>
      <point x="330" y="-8"/>
    </contour>
  </outline>
</glyph>
